<svg xmlns="http://www.w3.org/2000/svg" width="291.93" height="50.978" viewBox="0 0 291.93 50.978">
  <g id="jkc_logo" transform="translate(4846.166 -5693.943)">
    <path id="Path_7565" data-name="Path 7565" d="M15.178-170.856H20.8v17.681a18.041,18.041,0,0,1-.61,5.335,7.554,7.554,0,0,1-2.972,3.915,9.859,9.859,0,0,1-5.678,1.477,8.423,8.423,0,0,1-6.363-2.315c-1.486-1.543-2.457-4.417-2.47-7.4H8.243a7.436,7.436,0,0,0,.7,3.391,3.036,3.036,0,0,0,2.782,1.505,3.076,3.076,0,0,0,2.667-1.076q.781-1.076.781-4.468Zm11.7,27.931v-27.931h5.31l.017,13.794,13.652-13.794h6.208L40.992-159.122l11.071,16.2h-7.3l-7.661-12.253-4.9,4.668-.017,7.585Zm46.194-9.914,4.753,2.121c-.838,3.048-2.8,4.489-4.753,5.968a11.928,11.928,0,0,1-7.421,2.22,12.014,12.014,0,0,1-9.145-3.8q-3.582-3.8-3.582-10.393,0-6.973,3.6-10.831c2.4-2.572,5.157-3.539,9.069-3.539,3.417,0,6.592.69,8.726,2.71a11.908,11.908,0,0,1,3.505,5.177l-4.753,1.72a6.161,6.161,0,0,0-2.675-4.226,8.753,8.753,0,0,0-4.8-.94A7.768,7.768,0,0,0,59.9-164.44q-1.934,2.229-1.934,7.221,0,5.3,1.905,7.545a7.9,7.9,0,0,0,5.723,2.324c1.5,0,3.723-.3,4.8-1.249A7.775,7.775,0,0,0,73.069-152.84Z" transform="translate(-4783.404 5876.642)" fill="#90b646"/>
    <path id="Path_7566" data-name="Path 7566" d="M39.406-194.017c-.053-2.688-.105-14.372-11.93-14.372-7.989,0-12.4,5.583-12.4,14.01,0,8.582,4.52,14.01,12.351,14.01,8.567,0,10.138-4.823,10.418-5.1L35.2-187.347c-.631,1.706-1.627,4.393-7.619,4.393-6.044,0-9.04-4.6-9.145-11.063ZM18.488-196.6c1.051-8.788,7.253-9.2,8.882-9.2,3.889,0,8.041,2.068,8.672,9.2Zm28.538-11.166v26.779H50.18v-14.268c0-5.325,2.155-10.339,7.673-10.339,5.413,0,5.308,4.859,5.308,7.651v16.956h3.153v-13.183c0-5.273.841-11.528,7.253-11.528,5.624,0,5.729,4.756,5.729,8.065v16.646H82.45v-18.249c0-3.774-1.1-5.738-2.05-6.721a8.261,8.261,0,0,0-6.149-2.43c-4.835,0-7.1,2.688-8.514,4.446-.631-1.344-2.05-4.446-7.253-4.446a9.283,9.283,0,0,0-8.2,4.446H50.18v-3.826Zm67.483,13.751c-.053-2.688-.105-14.372-11.93-14.372-7.989,0-12.4,5.583-12.4,14.01,0,8.582,4.52,14.01,12.351,14.01,5.877,0,8.736-2.822,10.282-5.47-.558-.558-1.908-1.354-2.48-1.925a8.041,8.041,0,0,1-7.645,4.811c-6.044,0-9.04-4.6-9.145-11.063ZM93.592-196.6c1.051-8.788,7.253-9.2,8.882-9.2,3.889,0,8.041,2.068,8.672,9.2Zm28.538-11.166v26.779h3.153v-11.632c0-4.549.158-6.617.946-8.271a8.5,8.5,0,0,1,7.516-4.756A6.254,6.254,0,0,1,139-203.116c.946,1.344,1.051,3.309,1.051,5.48v16.646h3.153v-17.473c0-1.6.053-4.859-1.945-7.082a9.381,9.381,0,0,0-7.2-2.843c-5.151,0-7.2,2.585-8.672,4.549h-.105v-3.929Zm34.162-8.892-3.153,2.016v6.876h-3.784v2.326h3.784v17.99c0,3-.105,6.876,5.781,6.876a17.092,17.092,0,0,0,3.364-.414l-.42-2.533a13.892,13.892,0,0,1-2.523.362c-2.68,0-3.048-1.4-3.048-4.7v-17.577h5.1v-2.326h-5.1Z" transform="translate(-4716.519 5915.064)" fill="#999"/>
    <path id="Path_7567" data-name="Path 7567" d="M-7890.953,5912.667s8.917,7.859,20.623,7.6,21.294-9.129,21.294-9.129-5.142-10.759-20.6-10.892A23.5,23.5,0,0,0-7890.953,5912.667Z" transform="translate(3048.077 -206.301)" fill="#90b645"/>
    <path id="Path_7569" data-name="Path 7569" d="M-7755.892,5988.968s11.328,21.955-15.465,35.586c-8.411,1.249-12.175,2.167-10.068-6.841S-7767.029,5997.424-7755.892,5988.968Z" transform="translate(2957.062 -280.418)" fill="#1055a0"/>
    <path id="Path_7568" data-name="Path 7568" d="M-7910.041,6003.576l14.092,10.319s2.489,1.281,0,3.77-7.974,8.083-7.974,11.319S-7913.928,6020.491-7910.041,6003.576Z" transform="translate(3064.772 -292.621)" fill="#999"/>
  </g>
</svg>
