<svg xmlns="http://www.w3.org/2000/svg" width="295.397" height="272.502" viewBox="0 0 295.397 272.502">
  <g id="mi_img" transform="translate(-58.645 -81.642)">
    <g id="freepik--Shadow--inject-242" transform="translate(61.686 336.02)">
      <ellipse id="Ellipse_927" data-name="Ellipse 927" cx="146.178" cy="9.062" rx="146.178" ry="9.062" transform="translate(0)" fill="#b0bec5"/>
      <ellipse id="Ellipse_928" data-name="Ellipse 928" cx="146.178" cy="9.062" rx="146.178" ry="9.062" transform="translate(0)" fill="#fff" opacity="0.7"/>
    </g>
    <g id="freepik--Graphics--inject-242" transform="translate(122.924 82.585)">
      <path id="Path_7227" data-name="Path 7227" d="M290.961,109.38l-.421,3.569,1.932.686a15.818,15.818,0,0,0,.506,3.623l-1.675,1.216,1.41,3.312,2.034-.382a15.731,15.731,0,0,0,2.244,2.883l-.849,1.9,2.883,2.151,1.558-1.325a15.383,15.383,0,0,0,3.389,1.371l.218,2.065,3.561.429.694-1.94a15.811,15.811,0,0,0,3.623-.506l1.223,1.668,3.319-1.426-.366-2.026a15.757,15.757,0,0,0,2.875-2.244l1.9.849,2.151-2.883-1.332-1.558a15.172,15.172,0,0,0,1.371-3.382l2.065-.218.429-3.569-1.94-.693a15.329,15.329,0,0,0-.506-3.616l1.683-1.223-1.418-3.312-2.026.374a15.792,15.792,0,0,0-2.252-2.875l.841-1.893-2.906-2.119-1.558,1.332a15.988,15.988,0,0,0-3.366-1.371l-.218-2.065-3.569-.421-.693,1.932a15.693,15.693,0,0,0-3.615.514l-1.223-1.675-3.312,1.41L300,99.968a15.741,15.741,0,0,0-2.867,2.213l-1.894-.842-2.158,2.883,1.332,1.558a15.45,15.45,0,0,0-1.371,3.39Zm8.283,2.86a8.93,8.93,0,1,1,7.792,9.919h0a8.93,8.93,0,0,1-7.792-9.919Z" transform="translate(-174.018 -85.591)" fill="none" stroke="#263238" stroke-linejoin="round" stroke-width="1.571"/>
      <path id="Path_7228" data-name="Path 7228" d="M171.5,222.434l-.382,3.234,1.753.623a14.176,14.176,0,0,0,.46,3.28l-1.558,1.106,1.278,3,1.839-.351a14.412,14.412,0,0,0,2.034,2.61l-.779,1.722,2.673,1.964,1.41-1.208a13.805,13.805,0,0,0,3.07,1.247l.195,1.87,3.234.39.623-1.761a14.024,14.024,0,0,0,3.28-.46l1.106,1.519,2.992-1.286-.327-1.87a14.41,14.41,0,0,0,2.61-2.034l1.722.779,1.948-2.6-1.208-1.426a13.963,13.963,0,0,0,1.247-3.062l1.87-.2.382-3.234-1.753-.623a14.171,14.171,0,0,0-.46-3.28l1.558-1.106-1.286-3-1.831.335a14.374,14.374,0,0,0-2.049-2.595l.779-1.722-2.673-1.94-1.418,1.208a13.879,13.879,0,0,0-3.054-1.239l-.195-1.87-3.234-.39-.623,1.761a14.114,14.114,0,0,0-3.28.46l-1.106-1.488-3,1.278.335,1.839a14.328,14.328,0,0,0-2.61,2.034l-1.722-.779-1.948,2.61,1.208,1.418a14.188,14.188,0,0,0-1.247,3.07Zm7.5,2.587a8.088,8.088,0,1,1,7.075,8.992h0A8.1,8.1,0,0,1,179.006,225.021Z" transform="translate(-147.65 -110.829)" fill="#263238"/>
      <path id="Path_7229" data-name="Path 7229" d="M362.85,316.553v-7.332l-4.091-.927a31.582,31.582,0,0,0-1.9-7.215l3.117-2.875-3.678-6.389-4.021,1.27a32.128,32.128,0,0,0-5.252-5.291l1.27-4.06-6.366-3.67-2.844,3.062a31.569,31.569,0,0,0-7.2-1.956l-.935-4.13h-7.332l-.935,4.1a31.289,31.289,0,0,0-7.215,1.9l-2.875-3.117-6.35,3.662,1.239,4.021a32.087,32.087,0,0,0-5.291,5.244l-4.052-1.254-3.662,6.343,3.07,2.86a31.612,31.612,0,0,0-1.956,7.192l-4.13.943v7.332l4.091.935a32.034,32.034,0,0,0,1.9,7.208l-3.117,2.883,3.67,6.366,4.013-1.239a31.787,31.787,0,0,0,5.267,5.267l-1.255,4.06,6.374,3.67,2.844-3.117a31.378,31.378,0,0,0,7.161,1.963l.935,4.13h7.34l.927-4.091a32.076,32.076,0,0,0,7.223-1.917l2.875,3.117,6.366-3.67-1.239-4.013a31.786,31.786,0,0,0,5.291-5.244l4.052,1.255,3.67-6.374-3.078-2.852a32,32,0,0,0,1.964-7.2Zm-12.678-3.787a23.018,23.018,0,1,1-23.018-23.018h0A23.018,23.018,0,0,1,350.173,312.766Z" transform="translate(-174.221 -125.618)" fill="#fff"/>
      <rect id="Rectangle_7918" data-name="Rectangle 7918" width="18.888" height="4.356" transform="translate(42.342 8.914)" fill="#b0bec5"/>
      <rect id="Rectangle_7919" data-name="Rectangle 7919" width="12.413" height="4.356" transform="translate(42.342 15.21)" fill="#b0bec5"/>
      <rect id="Rectangle_7920" data-name="Rectangle 7920" width="7.145" height="4.356" transform="translate(42.342 21.506)" fill="#b0bec5"/>
      <rect id="Rectangle_7921" data-name="Rectangle 7921" width="18.888" height="4.356" transform="translate(42.342 8.914)" opacity="0.2" style="isolation: isolate"/>
      <rect id="Rectangle_7922" data-name="Rectangle 7922" width="12.413" height="4.356" transform="translate(42.342 15.21)" opacity="0.2" style="isolation: isolate"/>
      <rect id="Rectangle_7923" data-name="Rectangle 7923" width="7.145" height="4.356" transform="translate(42.342 21.506)" opacity="0.2" style="isolation: isolate"/>
      <rect id="Rectangle_7924" data-name="Rectangle 7924" width="6.405" height="13.122" transform="translate(9.545 57.162)" fill="#b0bec5"/>
      <rect id="Rectangle_7925" data-name="Rectangle 7925" width="6.405" height="8.618" transform="translate(18.794 61.674)" fill="#b0bec5"/>
      <rect id="Rectangle_7926" data-name="Rectangle 7926" width="6.405" height="4.964" transform="translate(28.051 65.328)" fill="#b0bec5"/>
      <rect id="Rectangle_7927" data-name="Rectangle 7927" width="6.405" height="13.122" transform="translate(9.545 57.162)" opacity="0.2" style="isolation: isolate"/>
      <rect id="Rectangle_7928" data-name="Rectangle 7928" width="6.405" height="8.618" transform="translate(18.794 61.674)" opacity="0.2" style="isolation: isolate"/>
      <rect id="Rectangle_7929" data-name="Rectangle 7929" width="6.405" height="4.964" transform="translate(28.051 65.328)" opacity="0.2" style="isolation: isolate"/>
      <path id="Path_7230" data-name="Path 7230" d="M226.665,162.929H149.111a8.1,8.1,0,0,1-8.111-8.1V90.806a8.111,8.111,0,0,1,8.1-8.1H226.65a8.1,8.1,0,0,1,8.111,8.1v64.027a8.1,8.1,0,0,1-8.1,8.1ZM149.111,83.45a7.4,7.4,0,0,0-7.387,7.387v64.027a7.4,7.4,0,0,0,7.387,7.387h77.554a7.4,7.4,0,0,0,7.387-7.387V90.806a7.4,7.4,0,0,0-7.387-7.387Z" transform="translate(-141 -82.71)" fill="#263238"/>
      <rect id="Rectangle_7930" data-name="Rectangle 7930" width="27.654" height="0.709" transform="translate(57.014 57.521)" fill="#263238"/>
      <rect id="Rectangle_7931" data-name="Rectangle 7931" width="27.654" height="0.709" transform="translate(57.014 60.489)" fill="#263238"/>
      <rect id="Rectangle_7932" data-name="Rectangle 7932" width="27.654" height="0.709" transform="translate(57.014 63.45)" fill="#263238"/>
      <rect id="Rectangle_7933" data-name="Rectangle 7933" width="27.654" height="0.709" transform="translate(57.014 66.411)" fill="#263238"/>
      <rect id="Rectangle_7934" data-name="Rectangle 7934" width="27.654" height="0.709" transform="translate(57.014 69.372)" fill="#263238"/>
      <rect id="Rectangle_7935" data-name="Rectangle 7935" width="27.654" height="0.709" transform="translate(8.696 9.21)" fill="#263238"/>
      <rect id="Rectangle_7936" data-name="Rectangle 7936" width="27.654" height="0.709" transform="translate(8.696 12.171)" fill="#263238"/>
      <rect id="Rectangle_7937" data-name="Rectangle 7937" width="27.654" height="0.709" transform="translate(8.696 15.132)" fill="#263238"/>
      <rect id="Rectangle_7938" data-name="Rectangle 7938" width="27.654" height="0.709" transform="translate(8.696 18.093)" fill="#263238"/>
      <rect id="Rectangle_7939" data-name="Rectangle 7939" width="27.654" height="0.709" transform="translate(8.696 21.054)" fill="#263238"/>
      <path id="Path_7231" data-name="Path 7231" d="M223.861,122.006l4.956,2.6-.569-13.979-11.82,7.48,4.956,2.595-3.732,7.1h0a2.946,2.946,0,0,0-1.816.623l-6.584-3.047v-.039a3.023,3.023,0,1,0-6.039-.3h0a1.873,1.873,0,0,0,0,.3,3.156,3.156,0,0,0,.273,1.255l-8.571,9.35a2.883,2.883,0,0,0-.849-.132,2.152,2.152,0,0,0-.444.047l-12.343-15.67a3.016,3.016,0,0,0-5.517-2.423,2.89,2.89,0,0,0-.257,1.2,3.342,3.342,0,0,0,.156.912L161.6,134.294a3.016,3.016,0,1,0,1.8,3.9h0a3.119,3.119,0,0,0,.179-1.036,2.637,2.637,0,0,0-.1-.732l14.22-14.594a2.749,2.749,0,0,0,.865.14,2.662,2.662,0,0,0,.553-.055L191.384,137.5a3.049,3.049,0,0,0,5.361,2.906,2.984,2.984,0,0,0,.366-1.286,1.969,1.969,0,0,0,0-.3,3.117,3.117,0,0,0-.156-.927l8.774-9.553a2.783,2.783,0,0,0,.506.047,3.016,3.016,0,0,0,1.683-.514l6.7,3.117a3.015,3.015,0,1,0,6.024-.288,2.984,2.984,0,0,0-.538-1.558Z" transform="translate(-144.656 -88.875)" fill="#263238"/>
      <g id="freepik--chart-1--inject-2--inject-242" transform="translate(81.247 88.471)">
        <path id="Path_7232" data-name="Path 7232" d="M249.867,196.266a4.605,4.605,0,0,0-4.6,4.605v39.9a4.6,4.6,0,0,0,4.6,4.6h48.31a4.605,4.605,0,0,0,4.605-4.6V200.847a4.605,4.605,0,0,0-4.605-4.6Z" transform="translate(-245.27 -196.25)" fill="none" stroke="#263238" stroke-linejoin="round" stroke-width="1"/>
        <rect id="Rectangle_7940" data-name="Rectangle 7940" width="3.67" height="0.491" transform="translate(3.81 5.454)" fill="#263238"/>
        <rect id="Rectangle_7941" data-name="Rectangle 7941" width="3.67" height="0.491" transform="translate(3.81 9.46)" fill="#263238"/>
        <rect id="Rectangle_7942" data-name="Rectangle 7942" width="3.67" height="0.491" transform="translate(3.81 13.465)" fill="#263238"/>
        <rect id="Rectangle_7943" data-name="Rectangle 7943" width="3.67" height="0.491" transform="translate(3.81 17.477)" fill="#263238"/>
        <rect id="Rectangle_7944" data-name="Rectangle 7944" width="3.67" height="0.491" transform="translate(3.67 9.46)" fill="#263238"/>
        <rect id="Rectangle_7945" data-name="Rectangle 7945" width="3.67" height="0.491" transform="translate(3.81 21.483)" fill="#263238"/>
      </g>
      <path id="Path_7233" data-name="Path 7233" d="M280.875,241.665a17.6,17.6,0,1,0-17.236-17.922A17.6,17.6,0,0,0,280.875,241.665Zm.616-30.03a12.467,12.467,0,1,1-12.717,12.21A12.467,12.467,0,0,1,281.491,211.635Z" transform="translate(-168.078 -110.035)" fill="#b0bec5"/>
      <path id="Path_7234" data-name="Path 7234" d="M280.875,241.665a17.6,17.6,0,1,0-17.236-17.922A17.6,17.6,0,0,0,280.875,241.665Zm.616-30.03a12.467,12.467,0,1,1-12.717,12.21A12.467,12.467,0,0,1,281.491,211.635Z" transform="translate(-168.078 -110.035)" opacity="0.2" style="isolation: isolate"/>
      <path id="Path_7235" data-name="Path 7235" d="M268.519,236.557a17.922,17.922,0,0,0,25.347.109.374.374,0,0,0,0-.5l-3.655-3.678a.35.35,0,0,0-.249-.109.445.445,0,0,0-.257.1A11.968,11.968,0,0,1,280.916,236h-.865a12.039,12.039,0,0,1-7.176-2.891c-.179-.164-.366-.327-.538-.5a12.3,12.3,0,0,1-1.364-15.794.322.322,0,0,0,.039-.07c.078-.109.164-.2.257-.312a12.055,12.055,0,0,1,10.13-4.566.351.351,0,0,0,.359-.343h0l.1-5.166a.359.359,0,0,0-.343-.366h0a17.922,17.922,0,0,0-13,30.568Z" transform="translate(-168.002 -109.929)" fill="#263238"/>
      <path id="Path_7236" data-name="Path 7236" d="M281.493,206a18.319,18.319,0,1,1-.039,0Zm-.717,35.2A17.252,17.252,0,1,0,263.884,223.6h0a17.259,17.259,0,0,0,16.893,17.6Zm.616-30.03a12.795,12.795,0,1,1-13.052,12.53A12.794,12.794,0,0,1,281.392,211.166Zm-.507,24.864A12.085,12.085,0,1,0,269.05,223.7h0a12.085,12.085,0,0,0,11.836,12.319Z" transform="translate(-167.972 -109.932)" fill="#263238"/>
      <line id="Line_20" data-name="Line 20" y2="47.266" transform="translate(22.34 152.272)" fill="none" stroke="#263238" stroke-linecap="round" stroke-linejoin="round" stroke-width="0.879"/>
      <rect id="Rectangle_7946" data-name="Rectangle 7946" width="4.013" height="27.062" transform="translate(25.924 170.107)" fill="#263238"/>
      <rect id="Rectangle_7947" data-name="Rectangle 7947" width="4.013" height="16.013" transform="translate(31.659 181.149)" fill="#b0bec5"/>
      <rect id="Rectangle_7948" data-name="Rectangle 7948" width="4.013" height="35.812" transform="translate(38.399 161.357)" fill="#fff" stroke="#263238" stroke-linejoin="round" stroke-width="0.879"/>
      <rect id="Rectangle_7949" data-name="Rectangle 7949" width="4.013" height="40.97" transform="translate(49.588 156.191)" fill="#263238"/>
      <rect id="Rectangle_7950" data-name="Rectangle 7950" width="4.013" height="10.137" transform="translate(55.331 187.032)" fill="#b0bec5"/>
      <rect id="Rectangle_7951" data-name="Rectangle 7951" width="4.013" height="24.194" transform="translate(62.071 172.975)" fill="#fff" stroke="#263238" stroke-linejoin="round" stroke-width="0.879"/>
      <rect id="Rectangle_7952" data-name="Rectangle 7952" width="4.013" height="20.485" transform="translate(78.419 176.676)" fill="#263238"/>
      <rect id="Rectangle_7953" data-name="Rectangle 7953" width="4.013" height="36.381" transform="translate(84.162 160.78)" fill="#b0bec5"/>
      <rect id="Rectangle_7954" data-name="Rectangle 7954" width="4.013" height="28.347" transform="translate(90.902 168.814)" fill="#fff" stroke="#263238" stroke-linejoin="round" stroke-width="0.879"/>
      <line id="Line_21" data-name="Line 21" x2="2.244" transform="translate(18.031 190.904)" fill="none" stroke="#263238" stroke-linecap="round" stroke-linejoin="round" stroke-width="0.879"/>
      <line id="Line_22" data-name="Line 22" x2="2.244" transform="translate(18.031 185.068)" fill="none" stroke="#263238" stroke-linecap="round" stroke-linejoin="round" stroke-width="0.879"/>
      <line id="Line_23" data-name="Line 23" x2="2.244" transform="translate(18.031 179.24)" fill="none" stroke="#263238" stroke-linecap="round" stroke-linejoin="round" stroke-width="0.879"/>
      <line id="Line_24" data-name="Line 24" x2="2.244" transform="translate(18.031 173.403)" fill="none" stroke="#263238" stroke-linecap="round" stroke-linejoin="round" stroke-width="0.879"/>
      <line id="Line_25" data-name="Line 25" x2="2.244" transform="translate(18.031 167.567)" fill="none" stroke="#263238" stroke-linecap="round" stroke-linejoin="round" stroke-width="0.879"/>
      <line id="Line_26" data-name="Line 26" x2="2.244" transform="translate(18.031 161.731)" fill="none" stroke="#263238" stroke-linecap="round" stroke-linejoin="round" stroke-width="0.879"/>
      <line id="Line_27" data-name="Line 27" x2="2.244" transform="translate(18.031 155.895)" fill="none" stroke="#263238" stroke-linecap="round" stroke-linejoin="round" stroke-width="0.879"/>
      <line id="Line_28" data-name="Line 28" x2="78.045" transform="translate(19.683 197.169)" fill="none" stroke="#263238" stroke-linecap="round" stroke-linejoin="round" stroke-width="0.879"/>
      <rect id="Rectangle_7955" data-name="Rectangle 7955" width="4.013" height="16.013" transform="translate(31.659 181.149)" opacity="0.3"/>
      <rect id="Rectangle_7956" data-name="Rectangle 7956" width="4.013" height="10.137" transform="translate(55.331 187.032)" opacity="0.3"/>
      <rect id="Rectangle_7957" data-name="Rectangle 7957" width="4.013" height="36.381" transform="translate(84.162 160.78)" opacity="0.3"/>
      <path id="Path_7237" data-name="Path 7237" d="M158.613,269.7a5.08,5.08,0,0,0-5.073,5.073v46.37a5.088,5.088,0,0,0,5.073,5.081h86.063a5.1,5.1,0,0,0,5.08-5.081V274.76a5.088,5.088,0,0,0-5.08-5.08Z" transform="translate(-143.769 -123.993)" fill="none" stroke="#263238" stroke-linejoin="round" stroke-width="1"/>
    </g>
    <g id="freepik--character-1--inject-242" transform="translate(59.132 82.145)">
      <path id="Path_7238" data-name="Path 7238" d="M69.665,401.72s1.8,12.015-2.556,13.246-7.379-.39-7.924-2.19S62.5,398.12,62.5,398.12Z" transform="translate(-59.132 -151.912)" fill="#fff"/>
      <path id="Path_7239" data-name="Path 7239" d="M167.064,405.234,186,409.722s1.434.779,1.278,2.065-8.8,4.582-11.22,4.995-16.41,2.236-18.4.53S159.872,402,159.872,402Z" transform="translate(-80.769 -152.768)" fill="#fff"/>
      <path id="Path_7240" data-name="Path 7240" d="M121.334,124.841s2.665,4.021,2.7,6.054-.21,4.356,1.036,5.556,2.205,2.509,1.691,3.117-1.5,1.792-1.5,1.792,1.286,6.849-.382,8.088-6.678,0-6.678,0v4.426s-7.122-2.338-12.039-1.9l-.873-9.483S115.973,121.95,121.334,124.841Z" transform="translate(-69.324 -91.51)" fill="#fff"/>
      <path id="Path_7241" data-name="Path 7241" d="M181.849,155.2s-.639-4.862,1.73-7.792c0,0-2.836-.483-2.493-1.512s4.675.319,4.675.319l-1.169-2.338s-4.091-1.356-3.584-2.626,6.506,1.854,6.506,1.854-3.561-2.977-3.062-4.215,4.122-1.216,6.054,5.205l.982-1.223s.351-7.309,1.356-7.706c0,0,1.558.857,1.558,5.057,0,0,1.558,1.878.569,3.467s-3.319,5.166-5.3,6.506-1.971,6.569-1.971,6.569Z" transform="translate(-86.033 -93.852)" fill="#fff"/>
      <path id="Path_7242" data-name="Path 7242" d="M99.776,103.55l.9-1.2s10.028-4.473,9.779-5.867-5.93.53-7.013-.21c0,0,1.036-13.2,0-13.628s-2.19,6.195-2.19,6.195-1.457-6.795-2.579-6.6-.655,7.013-.655,7.013-2.143-4.371-2.977-3.966.413,5.735.413,5.735-1.558-1.831-2.182-1.278a20.657,20.657,0,0,0,2.221,7.893L93.325,101.3Z" transform="translate(-66.67 -82.164)" fill="#fff"/>
      <path id="Path_7243" data-name="Path 7243" d="M155.484,148.573l6.911.966s-5.057,42.856-6.545,48.147-2.828,9.093-7.909,9.35-23.181-14.961-23.181-14.961l-.842,21.039,1.177,8.727s-22.137,11.633-44.648,1.512l.507-10.239-8.112-46.83L66.46,144.046,87.054,105l7.465,3.9L81.351,144.435,85.036,156.3l4.122-1.652,4.558-5.813s7.73-4.013,17.509,1.558l1.558,4.878s11.47.865,30.833,27.708Z" transform="translate(-60.75 -87.191)" fill="#b0bec5"/>
      <path id="Path_7244" data-name="Path 7244" d="M117.3,160.92l.873,6s6.436,4.27,9.023,5.751c0,0,6.327,39.957,1.644,47.82l-4.932,7.722s5.041,0,7.363-3.53c0,0-2.891,9.647-10.387,12.241,0,0,11.509-1.2,15.467-2.727l-1.177-8.727,1.893-48.661s1.784-3.257-13.052-9.093l-2.19-5.26Z" transform="translate(-71.976 -99.538)" opacity="0.2"/>
      <path id="Path_7245" data-name="Path 7245" d="M124.992,125.62s2.416,3.538,2.7,5.509-.569,4.145,1.036,5.556,2.338,2.338,1.691,3.117-1.5,1.792-1.5,1.792.655,6.678-.382,8.088-6.678,0-6.678,0v4.426" transform="translate(-72.982 -91.744)" fill="none" stroke="#263238" stroke-linecap="round" stroke-linejoin="round" stroke-width="1"/>
      <path id="Path_7246" data-name="Path 7246" d="M120.547,144.424s-2.26-5.836-3.951-4.426-.187,9.124,3.951,7.434" transform="translate(-71.67 -94.87)" fill="none" stroke="#263238" stroke-linecap="round" stroke-linejoin="round" stroke-width="1"/>
      <path id="Path_7247" data-name="Path 7247" d="M114.51,136.772s2.688-.218.99-6.522,1.979-5.454,5.93-7.247,4.893-5.08,4.044-7.052-2.26-3.016-7.247-2.073c0,0-5.454-6.3-10.722.662,0,0-11.859-.187-15.054,5.454s1.036,20.041,7.247,24.841,12.28.958,13.543-3.553c0,0-4.231-2.283-2.065-7.55C111.175,133.7,113.146,133,114.51,136.772Z" transform="translate(-66.248 -88.574)" fill="#263238"/>
      <path id="Path_7248" data-name="Path 7248" d="M73.86,176.469s28.7-20.813,53.71,0l-2.018,50.352,1.177,8.727s-21.148,9.9-44.648,1.512l.507-10.239Z" transform="translate(-62.384 -100.929)" fill="none" stroke="#263238" stroke-linecap="round" stroke-linejoin="round" stroke-width="1"/>
      <path id="Path_7249" data-name="Path 7249" d="M95.1,167.28l4.94-6.3s9.685-3.351,17.509,1.558l1.558,4.878" transform="translate(-67.074 -99.306)" fill="none" stroke="#263238" stroke-linecap="round" stroke-linejoin="round" stroke-width="1"/>
      <line id="Line_29" data-name="Line 29" x2="24.989" y2="28.737" transform="translate(65.186 75.54)" fill="none" stroke="#263238" stroke-linecap="round" stroke-linejoin="round" stroke-width="1"/>
      <path id="Path_7250" data-name="Path 7250" d="M141.31,203.847s16.558,15.4,23.158,15.584,7.7-7.792,7.7-7.792l6.756-49.713-6.912-.966L160.12,195.424" transform="translate(-77.277 -99.547)" fill="none" stroke="#263238" stroke-linecap="round" stroke-linejoin="round" stroke-width="1"/>
      <path id="Path_7251" data-name="Path 7251" d="M188.507,157.8s.865-5.618,3.117-6.9,4.925-6.234,4.067-7.66-3.475,3.21-5.836,4.1-4.278,5.252-4.605,7.145" transform="translate(-86.979 -95.575)" fill="none" stroke="#263238" stroke-linecap="round" stroke-linejoin="round" stroke-width="1"/>
      <path id="Path_7252" data-name="Path 7252" d="M197,141.3s0-6.491-1.192-6.187-1.356,8.525-1.356,8.525" transform="translate(-89.01 -93.839)" fill="none" stroke="#263238" stroke-linecap="round" stroke-linejoin="round" stroke-width="1"/>
      <path id="Path_7253" data-name="Path 7253" d="M191.576,145.306s-.779-3.639-2.922-5.415-3.483-.818-3.241-.218,3.9,5.454,3.81,7.106" transform="translate(-87.008 -94.669)" fill="none" stroke="#263238" stroke-linecap="round" stroke-linejoin="round" stroke-width="1"/>
      <path id="Path_7254" data-name="Path 7254" d="M186.9,144.367s-5.883-2.7-5.9-1.083,3.584,2.236,3.584,2.236l1.169,2.338s-4.956-1.558-4.675-.32,2.493,1.512,2.493,1.512-2.408,2.384-1.73,7.792" transform="translate(-86.04 -95.531)" fill="none" stroke="#263238" stroke-linecap="round" stroke-linejoin="round" stroke-width="1"/>
      <path id="Path_7255" data-name="Path 7255" d="M120.438,255.347l1.5,10.535s13.846,41.539,15.95,49.658,3.312,26.493,3.9,34.916,5.454,22.6,5.454,22.6-.6,5.719-10.831,4.815c0,0-4.215-16.854-8.727-26.789s-5.174-25-5.174-25l-21.973-40.332s-4.5,23.485-7.519,32.2c-3.117,8.992-24.366,58.884-22.877,55.386,0,0-3.008,1.808-9.35-2.712,0,0,4.512-15.046,5.712-23.173s7.527-26.789,7.527-26.789,1.5-35.212,3.9-46.051c0,0-1.558-11.937,1.769-20.368a71.625,71.625,0,0,0,40.744,1.106Z" transform="translate(-59.498 -120.143)" fill="#263238"/>
      <path id="Path_7256" data-name="Path 7256" d="M96.35,285.59l9.865,2.868,1.434,3.5" transform="translate(-67.35 -127.065)" fill="none" stroke="#fff" stroke-linecap="round" stroke-linejoin="round" stroke-width="1"/>
      <path id="Path_7257" data-name="Path 7257" d="M157.93,410.3s-1.332,6.678-.242,8.049c.577.717,2.291.584,3.117.6,1.9.039,3.81-.086,5.712-.21,3.8-.249,7.7-.21,11.369-1.387a36.168,36.168,0,0,0,8.782-3.982c1.5-1,0-2.61,0-2.61L168.55,406.69" transform="translate(-80.798 -153.804)" fill="none" stroke="#263238" stroke-linecap="round" stroke-linejoin="round" stroke-width="1"/>
      <path id="Path_7258" data-name="Path 7258" d="M158,417.146s20.361,3.343,28.83-5.236" transform="translate(-80.962 -154.956)" fill="none" stroke="#263238" stroke-linecap="round" stroke-linejoin="round" stroke-width="1"/>
      <path id="Path_7259" data-name="Path 7259" d="M61.225,402.74s-2.338,8.018-1.995,10.543,2.875,3.117,5.836,3.047,4.177-1.395,4.613-3.4,0-8.478,0-8.478" transform="translate(-59.146 -152.932)" fill="none" stroke="#263238" stroke-linecap="round" stroke-linejoin="round" stroke-width="1"/>
      <line id="Line_30" data-name="Line 30" x2="10.48" y2="0.873" transform="translate(0.053 259.128)" fill="none" stroke="#263238" stroke-linecap="round" stroke-linejoin="round" stroke-width="1"/>
      <path id="Path_7260" data-name="Path 7260" d="M94.063,100.2c.888-1.621,1.41-2.61,1.41-2.61s-2.891-6.989-2.166-7.847,2.4,1.558,2.4,1.558-1.714-5.556-.631-6.031,3.016,4.675,3.016,4.675-.506-7.441.616-7.792,2.47,7.075,2.47,7.075,1.449-6.608,2.338-6.67,0,13.628,0,13.628c1.792.88,7.06-1.27,7.013.468s-10.13,5.735-10.13,5.735a4.5,4.5,0,0,0-.46.732" transform="translate(-66.652 -82.145)" fill="none" stroke="#263238" stroke-linecap="round" stroke-linejoin="round" stroke-width="1"/>
      <path id="Path_7261" data-name="Path 7261" d="M72.226,162.738,66.46,144.052,87.054,105.03l7.465,3.9L81.351,144.473l3.686,11.867" transform="translate(-60.75 -87.198)" fill="none" stroke="#263238" stroke-linecap="round" stroke-linejoin="round" stroke-width="1"/>
      <path id="Path_7262" data-name="Path 7262" d="M74.53,151.32s7.387-.062,8.454,3.374a14.8,14.8,0,0,0-9.124,2.525" transform="translate(-62.384 -97.418)" fill="none" stroke="#263238" stroke-linecap="round" stroke-linejoin="round" stroke-width="1"/>
      <line id="Line_31" data-name="Line 31" y1="5.415" transform="translate(36.551 55.452)" fill="none" stroke="#263238" stroke-linecap="round" stroke-linejoin="round" stroke-width="1"/>
      <path id="Path_7263" data-name="Path 7263" d="M142.33,198.43l1.847,12.288s1.512-8.018,2.455-8.018,0,9.4,0,9.4,15.491,14.026,22.192,14.1c0,0-3.725,2.618-7.457.67s-20.1-14.8-20.1-14.8Z" transform="translate(-77.268 -107.82)" opacity="0.2"/>
      <path id="Path_7264" data-name="Path 7264" d="M94.828,109.15,80.662,143.56s-4.932-.078-6.8,4.348l7.574-1.356,2.548,11.688,2.688-1.021-3.686-11.867,13.168-35.539Z" transform="translate(-62.384 -88.107)" opacity="0.2"/>
    </g>
    <g id="freepik--character-2--inject-242" transform="translate(259.292 101.22)">
      <path id="Path_7265" data-name="Path 7265" d="M343.516,183.434l-5.579-11.914L316.01,186.005,334.1,218.062l14.111-8.01Z" transform="translate(-316.01 -120.954)" fill="#fff"/>
      <path id="Path_7266" data-name="Path 7266" d="M370.888,317.832s3.545,9.841,4.067,14.633-1.075,24.973-.732,30.537,3.35,22.168,3.35,22.168-14.75,10.722-19.433,7.27c0,0,10.395-8.415,11.446-11.766L366.22,357.93l-3.343-26.9a49.534,49.534,0,0,0-2.034-8.509c-1.184-2.891-1.005-9.023-1.005-9.023Z" transform="translate(-325.312 -152.303)" fill="#fff"/>
      <path id="Path_7267" data-name="Path 7267" d="M370.183,316.86s3.834,10.363,4.73,17.8-1.8,24.319-.912,32.446,1.8,12.623,3.374,16.9l-.779,12.553h-2.018l-.779-7.122s-3.164-1.317-5.08,3.241-9,5.158-12.358,2.517c0,0,0-2.041,2.525-3.841S368,383.934,369.2,380.576c0,0-3.6-23.376-4.441-30.95s-2.158-21.342-3.841-25.784-1.675-10.792-1.675-10.792" transform="translate(-324.919 -152.204)" fill="none" stroke="#263238" stroke-linecap="round" stroke-linejoin="round" stroke-width="1"/>
      <path id="Path_7268" data-name="Path 7268" d="M377.187,401.1S367.3,411.853,359,411.783" transform="translate(-325.502 -171.645)" fill="none" stroke="#263238" stroke-linecap="round" stroke-linejoin="round" stroke-width="1"/>
      <path id="Path_7269" data-name="Path 7269" d="M357.711,411.948a8.773,8.773,0,0,0,4.052-.506c2.236-.779,10.285-4.675,14.244-9.592l1.215,1.379-.639,12.654-2.034.288-.779-7.122a3.32,3.32,0,0,0-4.278,1.738c-1.675,2.93-2.883,4.94-5.813,5.587s-7.348-1.558-7.348-1.558S355.56,413.655,357.711,411.948Z" transform="translate(-324.883 -171.811)" fill="#263238"/>
      <path id="Path_7270" data-name="Path 7270" d="M383.35,318.881a90.4,90.4,0,0,0,3.382,10.059c1.769,4.06,17.049,45.116,17.049,45.116s1.161,22.223,7.667,22.153-.257-15.53-.257-15.53l-3.958-8.47s-1.512-24.88-3.382-34.028l-7.963-21.451Z" transform="translate(-330.879 -153.016)" fill="#fff"/>
      <path id="Path_7271" data-name="Path 7271" d="M395.6,316.436s6.538,14.875,7.886,20.735,2.7,32.22,3.382,34.028,11.493,20.953,4.956,24.786-8.08-22.083-8.08-22.083-15.093-41.921-17.353-45.973-4.73-15.779-4.73-15.779Z" transform="translate(-330.505 -152.005)" fill="none" stroke="#263238" stroke-linecap="round" stroke-linejoin="round" stroke-width="1"/>
      <path id="Path_7272" data-name="Path 7272" d="M419.827,407.13s-.452,5.189-2.166,5.922-5.5-5.119-5.5-5.119" transform="translate(-337.24 -172.977)" fill="none" stroke="#263238" stroke-linecap="round" stroke-linejoin="round" stroke-width="1"/>
      <path id="Path_7273" data-name="Path 7273" d="M412.18,409.138s2.338,8.852,5.454,8.478,3.678-5.291,2.205-9.085c0,0-.522,3.9-2.166,4.831C416.014,413.384,412.18,409.138,412.18,409.138Z" transform="translate(-337.244 -173.286)" fill="#263238"/>
      <path id="Path_7274" data-name="Path 7274" d="M370.594,218.35s7.878,10.753,13.34,28.051,4.9,50.43,4.9,50.43-20.329,6.537-40.035-1.769l3.608-74.648S365.085,220.649,370.594,218.35Z" transform="translate(-323.25 -131.294)" fill="#263238"/>
      <path id="Path_7275" data-name="Path 7275" d="M360.972,118.27s-6.125,5.735-6.841,9.491a29.466,29.466,0,0,1-2.821,7.535,5.493,5.493,0,0,0,2.751,2.151s.4,7.691,2.634,8.283l5.345-1.4.569,3.3,7.668-2.914v-4.441l5.844-3.818-2.081-9.982-9.506-4.441Z" transform="translate(-323.804 -109.197)" fill="#fff"/>
      <path id="Path_7276" data-name="Path 7276" d="M352.135,204.666l-.678-10.784s-4.987-9.35-3.405-12.748c1.745-3.732,12.234-17.555,12.234-17.555l-1.029-7.543,14.7-6.3.7,6.3-1.777,1.317,1.972,4.223s.125-1.255,3.538,5.112,16.27,29.017,17.283,33.365-19.994,19.667-27.085,23.283c0,0-.818-1.753-9.241,4.675-2.143-.374-5.1-2.3-5.735-3.491s2.423-4.029,2.423-4.029,1.839-3.475,5.088-.693h3.46l19.8-18.428-10.036-14.688-3.982,16.5S357.481,207.089,352.135,204.666Z" transform="translate(-323.017 -116.145)" fill="#fff"/>
      <path id="Path_7277" data-name="Path 7277" d="M362.52,156.036l1.052,7.706,14.345-7.706-.7-6.3Z" transform="translate(-326.279 -116.145)" fill="none" stroke="#263238" stroke-linecap="round" stroke-linejoin="round" stroke-width="1"/>
      <path id="Path_7278" data-name="Path 7278" d="M360.269,167.71s-13.051,15.966-12.7,19.114,3.849,11.026,3.849,11.026l.717,11.376s10.558.288,18.187-2.057l3.982-16.5" transform="translate(-322.977 -120.113)" fill="none" stroke="#263238" stroke-linecap="round" stroke-linejoin="round" stroke-width="1"/>
      <path id="Path_7279" data-name="Path 7279" d="M388.914,204.4l-20.22-30.482s-1.987-7.013,2.8-9.514,8.945.67,10.434,2.338,17.54,32.594,18.288,36.311-16.207,18.584-26.017,22.6c0,0-4.465,2.68-4.465-2.821Z" transform="translate(-327.552 -119.179)" fill="none" stroke="#263238" stroke-linecap="round" stroke-linejoin="round" stroke-width="1"/>
      <line id="Line_32" data-name="Line 32" x1="1.893" y1="4.519" transform="translate(49.744 40.912)" fill="none" stroke="#263238" stroke-linecap="round" stroke-linejoin="round" stroke-width="1"/>
      <path id="Path_7280" data-name="Path 7280" d="M366.83,239.333h-4.067s-3.171-2.836-4.675,0-3.405,3.4-2.836,4.722,3.826,3.966,5.735,3.491,7.293-4.854,7.293-4.854" transform="translate(-324.652 -135.649)" fill="none" stroke="#263238" stroke-linecap="round" stroke-linejoin="round" stroke-width="1"/>
      <path id="Path_7281" data-name="Path 7281" d="M359.507,120.86s-4.777,4.176-5.306,6.491-.3,6.234-2.891,8.517c0,0,.133,1.87,2.751,2.151,0,0,1.34,7.379,2.634,8.283s9.21-3.179,12.311-4.862a4.107,4.107,0,0,0,1.629-2.267" transform="translate(-323.804 -109.769)" fill="none" stroke="#263238" stroke-linecap="round" stroke-linejoin="round" stroke-width="1"/>
      <path id="Path_7282" data-name="Path 7282" d="M357.07,145.15a6.016,6.016,0,0,0,3.709-2.19" transform="translate(-325.076 -114.648)" fill="none" stroke="#263238" stroke-linecap="round" stroke-linejoin="round" stroke-width="1"/>
      <path id="Path_7283" data-name="Path 7283" d="M357.07,131.977a2.086,2.086,0,0,1,2.922.725" transform="translate(-325.076 -112.151)" fill="none" stroke="#263238" stroke-linecap="round" stroke-linejoin="round" stroke-width="1"/>
      <path id="Path_7284" data-name="Path 7284" d="M358.431,136.784c0,.631-.179,1.145-.468,1.161s-.553-.483-.584-1.106.179-1.153.468-1.169S358.4,136.153,358.431,136.784Z" transform="translate(-325.144 -113.038)" fill="#263238"/>
      <line id="Line_33" data-name="Line 33" x2="0.631" y2="3.639" transform="translate(38.235 35.13)" fill="none" stroke="#263238" stroke-linecap="round" stroke-linejoin="round" stroke-width="1"/>
      <path id="Path_7285" data-name="Path 7285" d="M366.918,129.888s1.169-2.267,2.47-.943,3.771,7.449-2.891,5.992c0,0-.444,3.74,2.891,4.675s9.67-4.223,9.88-13.02-8.283-14.735-12.771-13.036c0,0-6.506-10.2-12.958-5.852s-2.1,11.041-3.475,12.553-4.3.094-4.395,4.153,6.693,3.647,6.693,3.647l.818-4.473,5.618-5.867a10.581,10.581,0,0,0,.927,7.924C361.76,128.961,366.918,129.888,366.918,129.888Z" transform="translate(-322.559 -106.626)" fill="#263238"/>
      <path id="Path_7286" data-name="Path 7286" d="M384.491,130.412s3.117.7,2.774,4.917-7.379,14.579-6.849,20.547l18.163,33.849s8.174-1.558,7.792-9.974-10.356-15.506-8.431-21.709,9.483-22-1.223-31.051-27.4,4.823-27.4,4.823l8.174-2.634Z" transform="translate(-327.781 -110.445)" fill="#263238"/>
      <path id="Path_7287" data-name="Path 7287" d="M342.815,182.74l-4.878-11.22L316.01,186.005,334.1,218.062l10.971-6.039" transform="translate(-316.01 -120.954)" fill="none" stroke="#263238" stroke-linecap="round" stroke-linejoin="round" stroke-width="1"/>
      <path id="Path_7288" data-name="Path 7288" d="M324.649,208.1s-1.184-2.447.4-3.795,7.013-5.345,7.013-4.364a1.714,1.714,0,0,1-.374,1.348c-1.558,2.088-5.291,5.454-5.049,5.727,0,0,6.81-4.519,7.465-4.091.164.109.07.693-.5,1.262a58.941,58.941,0,0,1-5.9,4.613s7.184-2.782,8.112-2.338c.265.125.21.53-.623,1.036a65.529,65.529,0,0,1-6.428,3.054l1.8,3.008S327.166,214.159,324.649,208.1Z" transform="translate(-317.824 -127.197)" fill="#fff" stroke="#263238" stroke-linecap="round" stroke-linejoin="round" stroke-width="1"/>
      <line id="Line_34" data-name="Line 34" x2="0.499" y2="5.01" transform="translate(45.973 30.501)" fill="none" stroke="#263238" stroke-linejoin="round" stroke-width="1"/>
    </g>
  </g>
</svg>
