<svg xmlns="http://www.w3.org/2000/svg" width="341.14" height="330.539" viewBox="0 0 341.14 330.539">
  <g id="Business_deal-cuate" data-name="Business deal-cuate" transform="translate(-30.46 -50.324)">
    <g id="freepik--background-complete--inject-112" transform="translate(42.208 50.324)">
      <circle id="Ellipse_908" data-name="Ellipse 908" cx="20.928" cy="20.928" r="20.928" transform="matrix(0.16, -0.987, 0.987, 0.16, 178.166, 41.32)" fill="#ebebeb"/>
      <circle id="Ellipse_909" data-name="Ellipse 909" cx="19.914" cy="19.914" r="19.914" transform="matrix(0.161, -0.987, 0.987, 0.161, 180.398, 41.749)" fill="#dbdbdb"/>
      <circle id="Ellipse_910" data-name="Ellipse 910" cx="18.742" cy="18.742" r="18.742" transform="translate(179.948 14.619) rotate(-22.225)" fill="#fff"/>
      <rect id="Rectangle_7816" data-name="Rectangle 7816" width="0.477" height="2.831" transform="translate(203.038 8.006)" fill="#ebebeb"/>
      <rect id="Rectangle_7817" data-name="Rectangle 7817" width="0.477" height="2.831" transform="matrix(0.866, -0.5, 0.5, 0.866, 194.427, 10.467)" fill="#ebebeb"/>
      <rect id="Rectangle_7818" data-name="Rectangle 7818" width="0.479" height="2.841" transform="translate(188.405 15.986) rotate(-60.113)" fill="#ebebeb"/>
      <rect id="Rectangle_7819" data-name="Rectangle 7819" width="2.831" height="0.477" transform="translate(185.979 25.074)" fill="#ebebeb"/>
      <rect id="Rectangle_7820" data-name="Rectangle 7820" width="2.831" height="0.477" transform="translate(188.182 33.769) rotate(-30.01)" fill="#ebebeb"/>
      <rect id="Rectangle_7821" data-name="Rectangle 7821" width="2.831" height="0.477" transform="translate(194.423 40.171) rotate(-60.03)" fill="#ebebeb"/>
      <rect id="Rectangle_7822" data-name="Rectangle 7822" width="0.477" height="2.831" transform="translate(203.038 39.786)" fill="#ebebeb"/>
      <rect id="Rectangle_7823" data-name="Rectangle 7823" width="0.477" height="2.831" transform="translate(210.317 37.986) rotate(-30)" fill="#ebebeb"/>
      <rect id="Rectangle_7824" data-name="Rectangle 7824" width="0.477" height="2.824" transform="translate(215.686 32.755) rotate(-60)" fill="#ebebeb"/>
      <rect id="Rectangle_7825" data-name="Rectangle 7825" width="2.831" height="0.477" transform="translate(217.751 25.074)" fill="#ebebeb"/>
      <rect id="Rectangle_7826" data-name="Rectangle 7826" width="2.824" height="0.477" transform="translate(215.691 17.862) rotate(-30)" fill="#ebebeb"/>
      <rect id="Rectangle_7827" data-name="Rectangle 7827" width="2.831" height="0.477" transform="translate(210.325 12.671) rotate(-60.03)" fill="#ebebeb"/>
      <rect id="Rectangle_7828" data-name="Rectangle 7828" width="18.053" height="0.477" transform="translate(197.857 35.417) rotate(-63.04)" fill="#ebebeb"/>
      <rect id="Rectangle_7829" data-name="Rectangle 7829" width="0.634" height="17.779" transform="translate(201.703 19.022) rotate(-11.32)" fill="#dbdbdb"/>
      <path id="Path_6553" data-name="Path 6553" d="M189.6,211.635H55.32V56.56H189.6ZM58.441,208.506H186.476V59.689H58.449Z" transform="translate(-47.623 -51.682)" fill="#ebebeb"/>
      <rect id="Rectangle_7830" data-name="Rectangle 7830" width="3.129" height="149.561" transform="translate(72.054 8.828)" fill="#ebebeb"/>
      <rect id="Rectangle_7831" data-name="Rectangle 7831" width="139.971" height="4.357" transform="translate(4.857 11.206)" fill="#ebebeb"/>
      <rect id="Rectangle_7832" data-name="Rectangle 7832" width="139.971" height="4.357" transform="translate(4.857 16.11)" fill="#ebebeb"/>
      <rect id="Rectangle_7833" data-name="Rectangle 7833" width="139.971" height="4.357" transform="translate(4.857 21.006)" fill="#ebebeb"/>
      <rect id="Rectangle_7834" data-name="Rectangle 7834" width="139.971" height="4.357" transform="translate(4.857 25.911)" fill="#ebebeb"/>
      <rect id="Rectangle_7835" data-name="Rectangle 7835" width="139.971" height="4.357" transform="translate(4.857 30.815)" fill="#ebebeb"/>
      <rect id="Rectangle_7836" data-name="Rectangle 7836" width="139.971" height="4.357" transform="translate(4.857 35.711)" fill="#ebebeb"/>
      <rect id="Rectangle_7837" data-name="Rectangle 7837" width="139.971" height="4.357" transform="translate(4.857 40.616)" fill="#ebebeb"/>
      <rect id="Rectangle_7838" data-name="Rectangle 7838" width="139.971" height="4.357" transform="translate(4.857 45.52)" fill="#ebebeb"/>
      <rect id="Rectangle_7839" data-name="Rectangle 7839" width="139.971" height="4.357" transform="translate(4.857 50.416)" fill="#ebebeb"/>
      <rect id="Rectangle_7840" data-name="Rectangle 7840" width="0.782" height="100.424" transform="translate(134.754 10.322)" fill="#263238"/>
      <path id="Path_6554" data-name="Path 6554" d="M219.257,195.459H216.48l.7-3.989h1.384Z" transform="translate(-82.727 -81.068)" fill="#263238"/>
      <rect id="Rectangle_7841" data-name="Rectangle 7841" width="0.782" height="145.274" transform="translate(137.57 10.322)" fill="#263238"/>
      <path id="Path_6555" data-name="Path 6555" d="M222.859,251.889H220.09l.688-3.989h1.392Z" transform="translate(-83.514 -93.36)" fill="#263238"/>
      <rect id="Rectangle_7842" data-name="Rectangle 7842" width="149.678" height="9.112" transform="translate(0 4.268)" fill="#dbdbdb"/>
      <rect id="Rectangle_7843" data-name="Rectangle 7843" width="84.382" height="106.259" transform="translate(239.441 40.154)" fill="#ebebeb"/>
      <rect id="Rectangle_7844" data-name="Rectangle 7844" width="63.192" height="2.01" transform="translate(249.891 62.11)" fill="#dbdbdb"/>
      <rect id="Rectangle_7845" data-name="Rectangle 7845" width="53.509" height="2.01" transform="translate(249.891 66.318)" fill="#dbdbdb"/>
      <rect id="Rectangle_7846" data-name="Rectangle 7846" width="40.806" height="2.01" transform="translate(249.891 70.518)" fill="#dbdbdb"/>
      <rect id="Rectangle_7847" data-name="Rectangle 7847" width="60.987" height="2.01" transform="translate(249.891 74.726)" fill="#dbdbdb"/>
      <rect id="Rectangle_7848" data-name="Rectangle 7848" width="55.801" height="2.01" transform="translate(249.891 78.927)" fill="#dbdbdb"/>
      <rect id="Rectangle_7849" data-name="Rectangle 7849" width="57.905" height="2.01" transform="translate(249.891 87.335)" fill="#dbdbdb"/>
      <rect id="Rectangle_7850" data-name="Rectangle 7850" width="22.183" height="2.01" transform="translate(249.891 91.543)" fill="#dbdbdb"/>
      <rect id="Rectangle_7851" data-name="Rectangle 7851" width="44.733" height="2.01" transform="translate(249.891 95.744)" fill="#dbdbdb"/>
      <rect id="Rectangle_7852" data-name="Rectangle 7852" width="60.987" height="2.01" transform="translate(249.891 99.952)" fill="#dbdbdb"/>
      <rect id="Rectangle_7853" data-name="Rectangle 7853" width="52.586" height="2.01" transform="translate(249.891 104.152)" fill="#dbdbdb"/>
      <rect id="Rectangle_7854" data-name="Rectangle 7854" width="56.982" height="2.01" transform="translate(249.891 112.56)" fill="#dbdbdb"/>
      <rect id="Rectangle_7855" data-name="Rectangle 7855" width="34.494" height="2.01" transform="translate(249.891 116.769)" fill="#dbdbdb"/>
      <rect id="Rectangle_7856" data-name="Rectangle 7856" width="34.494" height="2.01" transform="translate(249.891 129.495)" fill="#dbdbdb"/>
      <circle id="Ellipse_911" data-name="Ellipse 911" cx="6.39" cy="6.39" r="6.39" transform="translate(301.366 125.114)" fill="#90b645"/>
      <path id="Path_6564" data-name="Path 6564" d="M256.093,348.436H411.05l3.223-63.576H252.87Z" transform="translate(-90.654 -101.411)" fill="#ebebeb"/>
      <path id="Path_6565" data-name="Path 6565" d="M427.33,315.923H362.542L361.33,293.85h67.416Zm-64.045-.782H426.6l1.314-20.509h-65.75Z" transform="translate(-114.278 -103.369)" fill="#dbdbdb"/>
      <path id="Path_6566" data-name="Path 6566" d="M426.9,348.982H365.853l-.993-19.922h63.286ZM366.6,348.2h59.571l1.15-18.358H365.681Z" transform="translate(-115.047 -111.038)" fill="#dbdbdb"/>
      <path id="Path_6567" data-name="Path 6567" d="M409.048,309.517H398.16l-.68-5.327h12.257Zm-10.168-.782h9.511l.485-3.762H398.4Z" transform="translate(-122.153 -105.621)" fill="#dbdbdb"/>
      <path id="Path_6568" data-name="Path 6568" d="M409.048,343.717H398.16l-.68-5.327h12.257Zm-10.168-.782h9.511l.485-3.762H398.4Z" transform="translate(-122.153 -113.07)" fill="#dbdbdb"/>
      <path id="Path_6569" data-name="Path 6569" d="M329.91,315.923H265.122L263.91,293.85h67.416Zm-64.045-.782h63.31l1.291-20.509h-65.7Z" transform="translate(-93.058 -103.369)" fill="#dbdbdb"/>
      <path id="Path_6570" data-name="Path 6570" d="M329.483,348.982H268.433l-.993-19.922h63.286Zm-60.306-.782h59.571l1.15-18.358H268.261Z" transform="translate(-93.827 -111.038)" fill="#dbdbdb"/>
      <path id="Path_6571" data-name="Path 6571" d="M311.628,309.517H300.74l-.68-5.327h12.257Zm-10.168-.782h9.5l.485-3.762H300.967Z" transform="translate(-100.933 -105.621)" fill="#dbdbdb"/>
      <path id="Path_6572" data-name="Path 6572" d="M311.628,343.717H300.74l-.68-5.327h12.257Zm-10.168-.782h9.5l.485-3.762H300.967Z" transform="translate(-100.933 -113.07)" fill="#dbdbdb"/>
      <path id="Path_6573" data-name="Path 6573" d="M272.878,366.14l-.978,6.93-1.955,13.915H266.12V366.14Z" transform="translate(-93.54 -119.115)" fill="#ebebeb"/>
      <path id="Path_6574" data-name="Path 6574" d="M272.878,366.14l-.978,6.93h-5.78v-6.93Z" transform="translate(-93.54 -119.115)" fill="#dbdbdb"/>
      <path id="Path_6575" data-name="Path 6575" d="M437.33,366.14l.97,6.93,1.963,13.915h3.825V366.14Z" transform="translate(-130.833 -119.115)" fill="#ebebeb"/>
      <path id="Path_6576" data-name="Path 6576" d="M437.33,366.14l.97,6.93h5.788v-6.93Z" transform="translate(-130.833 -119.115)" fill="#dbdbdb"/>
    </g>
    <g id="freepik--Shadow--inject-112" transform="translate(30.46 322.105)">
      <ellipse id="Ellipse_912" data-name="Ellipse 912" cx="141.137" cy="18.389" rx="141.137" ry="18.389" transform="translate(30.583 21.979)" fill="#ebebeb"/>
      <ellipse id="Ellipse_913" data-name="Ellipse 913" cx="42.253" cy="10.121" rx="42.253" ry="10.121" fill="#ebebeb"/>
    </g>
    <g id="freepik--Floor--inject-112" transform="translate(32.76 317.811)">
      <path id="Path_6577" data-name="Path 6577" d="M33.4,392.683l42.355-.188,42.355-.07,84.71-.125,84.71.125,42.355.07,42.355.188-42.355.2-42.355.07-84.71.125-84.71-.125-42.355-.07Z" transform="translate(-33.4 -392.3)" fill="#263238"/>
    </g>
    <g id="freepik--Plant--inject-112" transform="translate(35.012 138.246)">
      <path id="Path_6578" data-name="Path 6578" d="M81.374,211.718s-21.033-2.941-16.121-28.338C65.253,183.38,88.757,188.66,81.374,211.718Z" transform="translate(-42.429 -167.228)" fill="#90b645"/>
      <path id="Path_6579" data-name="Path 6579" d="M81.374,211.718s-21.033-2.941-16.121-28.338C65.253,183.38,88.757,188.66,81.374,211.718Z" transform="translate(-42.59 -167.228)" opacity="0.1"/>
      <path id="Path_6580" data-name="Path 6580" d="M81.557,207.881a38.618,38.618,0,0,0-1.431-3.778,1.446,1.446,0,0,0-.055-.485c0-.352-.063-.7-.086-1.048-.063-.782-.11-1.517-.156-2.276-.086-1.517-.18-3.035-.2-4.552,0-.086-.133-.078-.133,0v4.56c0,.782.078,1.517.125,2.276v.508a45.193,45.193,0,0,0-4.224-7.212,34.577,34.577,0,0,0-2.214-2.918c-.837-.962-1.721-1.877-2.573-2.824-.055-.063-.141,0-.086.094a37.333,37.333,0,0,1,4.052,5.389c.641.962,1.244,1.955,1.822,2.964l-.2-.07-.782-.305-1.721-.649c-1.126-.422-2.253-.829-3.379-1.259-.07,0-.117.094-.047.117,1.119.446,2.221.915,3.332,1.392l1.627.7.821.336a2.347,2.347,0,0,0,.555.2c.422.782.845,1.525,1.236,2.307a54.976,54.976,0,0,1,2.566,6.062c.055.141.1.289.156.438a13.485,13.485,0,0,0-1.729-.837l-2.174-.986c-1.478-.68-2.941-1.369-4.357-2.167a.063.063,0,0,0-.063.11c1.447.782,2.863,1.635,4.31,2.417.727.391,1.455.782,2.2,1.134a6.719,6.719,0,0,0,1.971.782,24.866,24.866,0,0,1,1.384,5.968c.235,2.871.211,5.765.282,8.643h.07c.211-2.612.329-5.248.344-7.869a22.926,22.926,0,0,0-1.244-7.165Z" transform="translate(-43.676 -168.693)" fill="#263238"/>
      <path id="Path_6581" data-name="Path 6581" d="M80.505,193.727a25.279,25.279,0,0,0-.211,4.482.031.031,0,0,0,.063,0c.086-1.486.1-2.972.274-4.451C80.638,193.68,80.513,193.649,80.505,193.727Z" transform="translate(-45.862 -169.472)" fill="#263238"/>
      <path id="Path_6582" data-name="Path 6582" d="M72.1,195a16.692,16.692,0,0,1-2.706-1.33c-.07-.047-.133.07-.063.109a10.247,10.247,0,0,0,2.738,1.306C72.116,195.1,72.194,195.02,72.1,195Z" transform="translate(-43.473 -169.466)" fill="#263238"/>
      <path id="Path_6583" data-name="Path 6583" d="M86.427,256.2c0-2.347-.063-4.646-.086-6.969-.047-7.72-.11-15.44-.25-23.16q-.164-9.2-.43-18.381a.094.094,0,0,0-.047-.078q0-2.511,0-5.022c0-.047-.047-.063-.1-.063s-.1,0-.094.063v5.029s-.055.039-.055.07c-.305,10.951-.579,21.815-.649,32.726v6.656q-.117,10.661-.086,21.338v3.395c0,6.508.07,13.016.07,19.555,0,.344.391.524.782.54s.978-.172.978-.571c0-7.173.047-14.353.047-21.526C86.482,265.253,86.482,260.724,86.427,256.2Z" transform="translate(-46.81 -171.399)" fill="#263238"/>
      <path id="Path_6584" data-name="Path 6584" d="M67.114,260.953s-10.121-7.493-19.719-2.44S36.28,283.1,36.28,283.1s14.079,2.018,22.98-6.437C67.818,268.532,67.114,260.953,67.114,260.953Z" transform="translate(-36.28 -183.212)" fill="#90b645"/>
      <path id="Path_6585" data-name="Path 6585" d="M71.692,262.237a12.109,12.109,0,0,0-5.859-.782,8.276,8.276,0,0,0-1.236-.125l-1.431-.11-2.949-.2c-1.995-.149-4-.274-5.992-.477a.07.07,0,0,0,0,.133c1.971.25,3.911.532,5.905.727,1.017.1,2.034.211,3.058.282l.735.07c-.3.07-.6.141-.9.227a24.176,24.176,0,0,0-4.584,1.862c-.782.141-1.564.368-2.347.548-1.251.3-2.5.618-3.739.946-2.456.641-4.889,1.369-7.329,2.081-.078,0-.039.141,0,.117,2.433-.594,4.889-1.142,7.329-1.721l3.551-.853.931-.219A29.933,29.933,0,0,0,49.65,271a39.509,39.509,0,0,0-4.99,7.892c0,.07.063.141.109.07a38.483,38.483,0,0,1,6.046-7.892c-.047.133-.086.274-.133.407l-.563,1.783c-.375,1.2-.782,2.386-1.111,3.582,0,.078.1.1.125,0,.43-1.158.837-2.347,1.244-3.481.2-.571.4-1.134.594-1.705q.164-.446.305-.892a1.071,1.071,0,0,1,.1-.274,36.817,36.817,0,0,1,3.582-3.058,27.689,27.689,0,0,1,5.374-3.074,2.321,2.321,0,0,1-.1.516c-.1.461-.2.923-.3,1.384-.2.954-.383,1.916-.571,2.878-.383,1.955-.618,3.911-.986,5.9,0,.086.11.117.125,0,.454-1.971,1.04-3.911,1.478-5.882.219-.986.438-1.971.649-2.957l.282-1.392c.047-.258.11-.516.141-.782l.548-.227a15.874,15.874,0,0,1,8.416-1.15,8.26,8.26,0,0,1,6.093,4.881c.094.219.438.078.383-.149A7.838,7.838,0,0,0,71.692,262.237Z" transform="translate(-38.105 -184.035)" fill="#263238"/>
      <path id="Path_6586" data-name="Path 6586" d="M58.987,273.357c-.282,1.283-.571,2.566-.853,3.848a27.845,27.845,0,0,0-.7,3.739c0,.055.063.055.078,0a28.158,28.158,0,0,0,.86-3.762c.25-1.267.5-2.534.743-3.8C59.127,273.31,59,273.279,58.987,273.357Z" transform="translate(-40.887 -186.817)" fill="#263238"/>
      <path id="Path_6587" data-name="Path 6587" d="M45.81,277.539c-1.291.649-2.534,1.392-3.911,1.932a.063.063,0,0,0,.047.117,41,41,0,0,0,3.934-2S45.88,277.524,45.81,277.539Z" transform="translate(-37.495 -187.737)" fill="#263238"/>
      <path id="Path_6588" data-name="Path 6588" d="M72.287,236.955s-12.366.782-18.123-7.36-4.458-19.8-4.458-19.8,12.992,1.564,18.147,7.439S72.287,236.955,72.287,236.955Z" transform="translate(-39.177 -172.981)" fill="#90b645"/>
      <path id="Path_6589" data-name="Path 6589" d="M79.385,250.434c-.43-1.322-.962-2.628-1.463-3.911s-.993-2.487-1.564-3.708a75.725,75.725,0,0,0-3.7-7.282c-.876-1.5-1.815-2.964-2.777-4.4a4.746,4.746,0,0,0-.094-.657c-.055-.383-.11-.782-.172-1.15-.125-.782-.258-1.564-.391-2.347-.282-1.713-.634-3.41-.907-5.115,0-.078-.141-.078-.125,0,.242,1.69.415,3.387.649,5.076.117.829.227,1.658.352,2.487l.141.9a87.83,87.83,0,0,0-6.117-7.939l-.853-.986c0-.094-.078-.188-.117-.282-.094-.235-.18-.469-.266-.712-.188-.485-.36-.978-.54-1.471-.344-.97-.657-1.948-.923-2.941,0-.078-.141-.039-.117,0,.25,1.017.508,2.026.782,3.027.149.485.305.962.477,1.439a.714.714,0,0,0,.086.235c-1.564-1.721-3.23-3.379-4.9-5.022-.055-.055-.141,0-.086.094a88.731,88.731,0,0,1,8.76,10.732,7.446,7.446,0,0,0-.915-.227c-.954-.188-1.909-.321-2.871-.446-2.018-.258-4.028-.508-6.031-.829-.086,0-.117.11,0,.125,1.916.375,3.809.782,5.718,1.251.9.2,1.8.375,2.7.555a16.886,16.886,0,0,1,2.174.618c.2.289.407.571.6.86.907,1.314,1.776,2.667,2.628,4.02l-1.259-.242c-.954-.188-1.916-.36-2.871-.516-1.885-.313-3.778-.641-5.64-1.064-.078,0-.11.11,0,.125,1.893.446,3.762.962,5.64,1.463.907.242,1.822.461,2.738.665l1.369.3a3.128,3.128,0,0,0,.563.094c1.807,2.925,3.5,5.929,5.069,8.987.688,1.345,1.353,2.706,1.995,4.067s1.228,2.839,1.838,4.263A.219.219,0,1,0,79.385,250.434Z" transform="translate(-40.495 -174.257)" fill="#263238"/>
      <path id="Path_6590" data-name="Path 6590" d="M69.587,222.793c-.235-1.181-.485-2.347-.782-3.535,0-.078-.141-.039-.125,0,.235,1.158.461,2.347.673,3.481a34.413,34.413,0,0,0,.7,3.465h0A24.522,24.522,0,0,0,69.587,222.793Z" transform="translate(-43.337 -175.033)" fill="#263238"/>
      <path id="Path_6591" data-name="Path 6591" d="M59.557,222.908c-.571-.289-1.181-.516-1.776-.782l-.939-.368-.477-.188a2.62,2.62,0,0,1-.524-.235c-.094-.063-.149.094-.055.109a2.19,2.19,0,0,1,.524.219l.469.211.907.4A16.69,16.69,0,0,0,59.51,223C59.58,223.057,59.627,222.939,59.557,222.908Z" transform="translate(-40.518 -175.492)" fill="#263238"/>
      <path id="Path_6592" data-name="Path 6592" d="M94.79,227.52s7.485-13.978,18.866-16.144,18.358,9.55,18.358,9.55-8.307,10.606-18.772,12.46S94.79,227.52,94.79,227.52Z" transform="translate(-49.025 -173.268)" fill="#90b645"/>
      <path id="Path_6593" data-name="Path 6593" d="M119.116,218.29a30.505,30.505,0,0,0-8.932.109l.508-.274,2.526-1.3a59.154,59.154,0,0,1,5.342-2.612c.086-.039,0-.156-.047-.117-1.783.829-3.629,1.564-5.413,2.347-.9.407-1.776.837-2.644,1.3-.563.3-1.181.579-1.736.939a31.193,31.193,0,0,0-7.235,2.4l1.424-1.564c1.056-1.165,2.1-2.386,3.27-3.442.063-.055,0-.141-.094-.086-1.189,1.079-2.448,2.081-3.606,3.207-.555.548-1.1,1.111-1.619,1.7-.258.289-.524.587-.782.9A30,30,0,0,0,84.81,242.4c0,.078.1.117.125.039A34.416,34.416,0,0,1,93.3,228.279a32.906,32.906,0,0,1,15.268-8.784,33.36,33.36,0,0,1,10.528-.954.125.125,0,1,0,.016-.25Z" transform="translate(-46.851 -173.917)" fill="#263238"/>
      <path id="Path_6594" data-name="Path 6594" d="M132.2,223.243s-8.307,10.606-18.772,12.46c-7.97,1.408-14.525-2.745-17.208-4.795l-.579-.946s5.389-4.537,15.589-7.157S132.2,223.243,132.2,223.243Z" transform="translate(-49.21 -175.584)" opacity="0.1"/>
      <path id="Path_6595" data-name="Path 6595" d="M118.891,213.087a28.164,28.164,0,0,0-2.526,1.666,16.715,16.715,0,0,0-2.2,2.01.07.07,0,0,0,.1.094c.782-.657,1.51-1.314,2.3-1.932a23.526,23.526,0,0,1,2.393-1.729.065.065,0,0,0-.07-.109Z" transform="translate(-53.243 -173.697)" fill="#263238"/>
      <path id="Path_6596" data-name="Path 6596" d="M127.479,216.109c-.422.18-.853.329-1.275.508l-1.267.524c-.086,0-.047.188.047.149l1.267-.516c.43-.172.845-.368,1.267-.54C127.6,216.2,127.557,216.077,127.479,216.109Z" transform="translate(-55.581 -174.356)" fill="#263238"/>
      <path id="Path_6597" data-name="Path 6597" d="M92.88,253.874s2,13.868,12.429,18.718,23.137,0,23.137,0S123.479,242.595,92.88,253.874Z" transform="translate(-48.609 -182.03)" fill="#90b645"/>
      <path id="Path_6598" data-name="Path 6598" d="M119.561,264.076c-.954-.11-1.916-.274-2.863-.446l-1.408-.266-.727-.149c-.282-.258-.555-.524-.845-.782a42.645,42.645,0,0,0-6.383-4.623,35.847,35.847,0,0,0-3.817-1.963h.2l3.434.149c2.284.11,4.576.156,6.86.305.086,0,.078-.117,0-.125-2.3-.156-4.584-.407-6.875-.6l-3.332-.3-1.721-.149-.438-.047c-.594-.227-1.189-.438-1.8-.626a16.238,16.238,0,0,0-8.831-.485c-2.62.673-5.241,2.393-5.921,5.155,0,.094.125.164.164.07.978-2.347,3.543-3.481,5.859-3.958a14.079,14.079,0,0,1,4.693-.094,10.951,10.951,0,0,0,.524,2.1c.289.978.571,1.955.868,2.925.594,1.948,1.244,3.911,1.822,5.827a.063.063,0,1,0,.125,0c-.485-1.948-.9-3.911-1.369-5.866-.227-.954-.469-1.909-.7-2.863a17.541,17.541,0,0,0-.524-1.971,24.253,24.253,0,0,1,2.706.634,39.422,39.422,0,0,1,4.693,1.736c.149.986.375,1.963.6,2.941.282,1.22.6,2.433.986,3.629a.063.063,0,0,0,.117,0l-.047-.227h0c-.235-1.134-.485-2.268-.727-3.4-.188-.915-.368-1.83-.563-2.738a42.237,42.237,0,0,1,3.8,1.924,5.559,5.559,0,0,0,.133.829c.078.469.164.946.25,1.424.2,1.064.407,2.135.665,3.191a50.794,50.794,0,0,0,1.791,6.031.063.063,0,0,0,0,.078l.063.07c.047.055.117,0,.1-.063-.477-2.057-1.032-4.1-1.486-6.156-.219-1.032-.446-2.065-.657-3.129-.1-.516-.2-1.032-.3-1.564l-.07-.461a42.067,42.067,0,0,1,4.06,2.706,43.619,43.619,0,0,1,6.218,5.671c.07.086.219,0,.149-.125a38.026,38.026,0,0,0-2.479-3.027c-.524-.563-1.072-1.111-1.627-1.643h.172c.493.086.978.156,1.47.219.962.133,1.932.227,2.9.336C119.615,264.193,119.647,264.076,119.561,264.076Z" transform="translate(-46.912 -182.518)" fill="#263238"/>
      <path id="Path_6599" data-name="Path 6599" d="M119.56,271.982h0a.732.732,0,0,0-.063-.36,1.541,1.541,0,0,1-.125-.454h0c-.211-.931-.391-1.862-.563-2.8,0-.063-.11-.047-.11,0a11.514,11.514,0,0,0,.782,3.621c0,.039.086,0,.078,0Z" transform="translate(-54.233 -185.731)" fill="#263238"/>
      <path id="Path_6600" data-name="Path 6600" d="M108.132,270.566a.061.061,0,0,0-.063-.063c-.3-1.228-.579-2.456-.829-3.692-.133-.649-.266-1.3-.391-1.948-.07-.352-.133-.7-.2-1.056a2.926,2.926,0,0,0-.227-.9.063.063,0,0,0-.117,0,6.093,6.093,0,0,0,.266,1.862c.125.673.258,1.353.407,2.026.305,1.369.641,2.73,1.032,4.075a.07.07,0,0,0,.133,0Z" transform="translate(-51.534 -184.542)" fill="#263238"/>
      <path id="Path_6601" data-name="Path 6601" d="M126.388,261.652c-1.909-.258-3.809-.532-5.718-.782-.078,0-.109.117,0,.125,1.9.282,3.809.516,5.718.782C126.388,261.793,126.427,261.668,126.388,261.652Z" transform="translate(-54.646 -184.107)" fill="#263238"/>
      <path id="Path_6602" data-name="Path 6602" d="M85.892,202.05s-6.383-27.986,23.692-39.32C109.584,162.73,117.922,199.579,85.892,202.05Z" transform="translate(-46.963 -162.73)" fill="#90b645"/>
      <path id="Path_6603" data-name="Path 6603" d="M92.39,188.952l.321-.2,1.705-.954,3.489-1.948c2.292-1.291,4.56-2.62,6.868-3.911.078,0,0-.149-.063-.11-2.347,1.259-4.693,2.44-7,3.668l-3.449,1.822-1.408.782c1-1.9,2.073-3.762,3.254-5.561a84.915,84.915,0,0,1,5.084-6.914.1.1,0,0,0-.149-.141,47.4,47.4,0,0,0-6.954,8.526v-.3c0-.7.055-1.392.063-2.088,0-1.369-.047-2.738,0-4.1,0-.086-.125-.078-.133,0-.055,1.345-.219,2.691-.3,4.036,0,.665-.063,1.338-.086,2.01v1.173q-.923,1.478-1.776,3a52.554,52.554,0,0,0-2.691,5.639c0-.7-.07-1.392-.11-2.088-.094-1.564-.274-3.058-.344-4.591a.063.063,0,0,0-.125,0v4.6c0,.782.047,1.564.094,2.3a4.463,4.463,0,0,0,.055.853,51.207,51.207,0,0,0-2.268,7.7,80.668,80.668,0,0,0-1.119,8.455h0a44.522,44.522,0,0,1,1.564-7.532c.368-1.322.782-2.636,1.189-3.911,1.251-.587,2.448-1.322,3.653-1.995l3.778-2.065c2.511-1.377,5.014-2.777,7.6-3.989.07,0,0-.149-.07-.109-2.62,1.181-5.264,2.347-7.822,3.606-1.283.649-2.542,1.338-3.794,2.041-1.04.587-2.12,1.173-3.129,1.854.289-.876.594-1.744.931-2.6a72.742,72.742,0,0,1,3.137-6.961Z" transform="translate(-46.968 -165.503)" fill="#263238"/>
      <path id="Path_6604" data-name="Path 6604" d="M91.073,184.507a.07.07,0,0,0-.133,0c.109,1.564.164,3.191.336,4.787a.07.07,0,1,0,.141,0C91.362,187.7,91.19,186.11,91.073,184.507Z" transform="translate(-48.186 -167.463)" fill="#263238"/>
      <path id="Path_6605" data-name="Path 6605" d="M107.959,191.359c-1.877.782-3.778,1.478-5.655,2.26-.047,0,0,.109,0,.086,1.9-.712,3.77-1.486,5.663-2.221C108.077,191.452,108.038,191.327,107.959,191.359Z" transform="translate(-50.657 -168.965)" fill="#263238"/>
      <path id="Path_6606" data-name="Path 6606" d="M111.7,174.849a48.774,48.774,0,0,0-5.35,2.871.086.086,0,0,0,.086.141c1.744-1.025,3.52-2,5.327-2.9C111.845,174.966,111.774,174.817,111.7,174.849Z" transform="translate(-51.539 -165.369)" fill="#263238"/>
      <rect id="Rectangle_7857" data-name="Rectangle 7857" width="43.372" height="45.718" transform="translate(16.332 99.853)" fill="#455a64"/>
      <rect id="Rectangle_7858" data-name="Rectangle 7858" width="2.221" height="78.312" transform="translate(13.352 116.036)" fill="#263238"/>
      <rect id="Rectangle_7859" data-name="Rectangle 7859" width="2.221" height="78.312" transform="translate(60.244 116.036)" fill="#263238"/>
      <rect id="Rectangle_7860" data-name="Rectangle 7860" width="2.221" height="78.312" transform="translate(37.975 116.036)" fill="#263238"/>
      <rect id="Rectangle_7861" data-name="Rectangle 7861" width="46.892" height="6.328" transform="translate(14.463 142.646)" fill="#263238"/>
    </g>
    <g id="freepik--Characters--inject-112" transform="translate(92.149 76.055)">
      <path id="Path_6607" data-name="Path 6607" d="M319.78,378.5v33.712c0,6.437-.055,12.085-.375,15a.047.047,0,0,1,0,.047,4.466,4.466,0,0,1-.469,1.995l-.039.039c-1.909,1.306-53.376,3.074-55.191,2.526s-.415-5.757,1.564-7.423,21.354-11.146,21.354-11.146l.321-33.673Z" transform="translate(-142.771 -147.538)" fill="#ad6359"/>
      <path id="Path_6608" data-name="Path 6608" d="M319.77,412.75v6.922c0,6.437-.055,12.085-.375,15a.047.047,0,0,1,0,.047,9.128,9.128,0,0,1-.469,1.995l-.039.039c-1.909,1.306-53.376,3.074-55.191,2.526s-.415-5.757,1.564-7.423,21.354-11.146,21.354-11.146l-.094-7.04Z" transform="translate(-142.769 -154.998)" fill="#c7c7c7"/>
      <path id="Path_6609" data-name="Path 6609" d="M263.695,441.129c1.815.548,53.282-1.212,55.2-2.526.735-.485.915-8,.876-17.083v-.289l-33.219.782.039.563s-19.4,9.488-21.354,11.154S261.872,440.6,263.695,441.129Z" transform="translate(-142.767 -156.845)" fill="#263238"/>
      <path id="Path_6610" data-name="Path 6610" d="M264.543,443.659c8.674-.516,43.685-1.752,52.289-1.564.07,0,.07.047,0,.055-8.6.688-43.6,1.65-52.281,1.682C264.371,443.8,264.364,443.667,264.543,443.659Z" transform="translate(-143.108 -161.386)" fill="#455a64"/>
      <path id="Path_6611" data-name="Path 6611" d="M289.574,423.079c3.395-.782,7.587-.375,10.278,1.971.109.094,0,.235-.133.2a48.208,48.208,0,0,0-10.114-1.744.219.219,0,0,1-.031-.43Z" transform="translate(-148.553 -157.169)" fill="#455a64"/>
      <path id="Path_6612" data-name="Path 6612" d="M286.493,425.089c3.387-.782,7.587-.375,10.278,1.971.1.086,0,.235-.141.2a48.035,48.035,0,0,0-10.114-1.744.219.219,0,0,1-.023-.43Z" transform="translate(-147.881 -157.607)" fill="#455a64"/>
      <path id="Path_6613" data-name="Path 6613" d="M283.4,427.089c3.395-.782,7.587-.368,10.278,1.971.11.094,0,.242-.133.211a48.211,48.211,0,0,0-10.114-1.752.219.219,0,0,1-.031-.43Z" transform="translate(-147.209 -158.043)" fill="#455a64"/>
      <path id="Path_6614" data-name="Path 6614" d="M328.8,213.127l-.031,2.229L327.508,313.8l-.008.375-.743,58.969-36.027-.72,6.954-159.181.094-2.128.352-18.467h30.427Z" transform="translate(-148.84 -107.056)" fill="#455a64"/>
      <path id="Path_6615" data-name="Path 6615" d="M292.642,414.781c5.624-.055,4-.117,9.629-.1,2.753,0,20.845.07,23.411.524.055,0,.055.11,0,.117-2.581.391-20.665,0-23.418-.047-5.624-.117-4-.149-9.629-.329a.086.086,0,0,1,.008-.164Z" transform="translate(-149.243 -155.418)" fill="#263238"/>
      <path id="Path_6616" data-name="Path 6616" d="M311.913,232.053a.063.063,0,0,0-.125,0c0,9.425-.383,14.705-.61,24.122s-.5,18.835-.782,28.245c-.508,18.827-1.267,37.638-1.963,56.458q-.587,15.831-1.463,31.647a.055.055,0,0,0,.11,0c1.369-18.772,2.675-37.607,3.426-56.434s1.283-37.646,1.369-56.473C311.952,249.049,311.89,242.62,311.913,232.053Z" transform="translate(-152.378 -115.625)" fill="#263238"/>
      <path id="Path_6617" data-name="Path 6617" d="M332.309,213.127,331.026,313.8,306.88,192.65h25.186Z" transform="translate(-152.358 -107.056)" fill="#263238"/>
      <path id="Path_6618" data-name="Path 6618" d="M373.516,376.17s4.537,33.376,4.537,33.4c.907,6.383,1.564,11.991,1.658,14.924v.047a4.576,4.576,0,0,1-.188,2.034q0,.024,0,.047c-1.721,1.564-52.484,10.247-54.354,9.949s-1.181-5.647.516-7.564,19.656-13.923,19.656-13.923l-4.224-33.407Z" transform="translate(-156.099 -147.03)" fill="#ad6359"/>
      <path id="Path_6619" data-name="Path 6619" d="M377.121,410.11s.931,6.828.931,6.852c.907,6.383,1.564,11.991,1.658,14.924v.047a9.022,9.022,0,0,1-.188,2.034.454.454,0,0,0,0,.047c-1.721,1.564-52.484,10.247-54.354,9.949s-1.181-5.647.516-7.564,19.656-13.923,19.656-13.923L344.27,415.5Z" transform="translate(-156.099 -154.423)" fill="#c7c7c7"/>
      <path id="Path_6620" data-name="Path 6620" d="M325.123,445.792c1.877.3,52.633-8.393,54.354-9.949.665-.587-.172-8.049-1.439-17.052l-.047-.282-32.8,5.241.11.555s-17.943,12.014-19.656,13.931S323.215,445.487,325.123,445.792Z" transform="translate(-156.084 -156.253)" fill="#263238"/>
      <path id="Path_6621" data-name="Path 6621" d="M325.706,448.354c8.526-1.674,43.02-7.626,51.624-8.6.07,0,.078.039,0,.055-8.408,1.846-42.973,7.517-51.577,8.721C325.55,448.55,325.526,448.393,325.706,448.354Z" transform="translate(-156.433 -160.879)" fill="#455a64"/>
      <path id="Path_6622" data-name="Path 6622" d="M347.692,426.4c3.262-1.2,7.47-1.392,10.45.563.117.078,0,.242-.109.227a47.816,47.816,0,0,0-10.254-.368.219.219,0,0,1-.086-.422Z" transform="translate(-161.218 -157.773)" fill="#455a64"/>
      <path id="Path_6623" data-name="Path 6623" d="M344.9,428.8c3.262-1.2,7.47-1.392,10.45.571.117.07,0,.235-.11.219a48.3,48.3,0,0,0-10.254-.368.219.219,0,0,1-.086-.422Z" transform="translate(-160.61 -158.296)" fill="#455a64"/>
      <path id="Path_6624" data-name="Path 6624" d="M342.122,431.207c3.262-1.2,7.462-1.392,10.45.563.117.078,0,.242-.109.227a47.328,47.328,0,0,0-10.254-.368.219.219,0,0,1-.086-.422Z" transform="translate(-160.005 -158.821)" fill="#455a64"/>
      <path id="Path_6625" data-name="Path 6625" d="M304.15,192.61h0c.133.626,2.26,10.5,4.466,18.976,1.6,6.195,3.254,11.639,4.2,12.2,1.072.634,6.3,2.949,8.049,3.676l8,76.521,10.818,70.85,35.37-5.475L349.884,214.3l-4.1-21.69Z" transform="translate(-151.764 -107.047)" fill="#455a64"/>
      <path id="Path_6626" data-name="Path 6626" d="M349.839,415.222c5.553-.892,3.911-.72,9.511-1.564,2.722-.407,20.618-3.058,23.223-2.988a.055.055,0,0,1,0,.11c-2.487.782-20.431,3.129-23.16,3.473-5.577.72-3.981.454-9.566,1.118a.086.086,0,0,1-.008-.149Z" transform="translate(-161.707 -154.545)" fill="#263238"/>
      <path id="Path_6627" data-name="Path 6627" d="M369.609,354.773c-.884-4.912-1.76-9.824-2.667-14.736q-2.714-14.736-5.475-29.465-5.538-29.48-10.951-59.008c-2.018-11.107-1.971-10.067-3.731-21.228,0-.07-.141-.063-.125,0,1.69,9.918.892,7.744,2.487,17.677s3.27,19.656,5.029,29.457c3.535,19.7,7.243,39.375,10.99,59.039q1.564,8.275,3.2,16.527c1.1,5.616,2.347,11.2,3.5,16.8,0,.125.227.117.2,0C371.259,364.824,370.524,359.787,369.609,354.773Z" transform="translate(-161.023 -115.254)" fill="#263238"/>
      <path id="Path_6628" data-name="Path 6628" d="M359.506,227.865c-.939-.242-1.948-.321-2.9-.469-.782-.125-1.564-.266-2.346-.43a10.067,10.067,0,0,1-4.083-1.721,9.7,9.7,0,0,1-2.652-4.114q-.579-1.338-1.173-2.675l-.587-1.291a14.534,14.534,0,0,1-.727-1.564c0-.078-.149,0-.117,0a9.163,9.163,0,0,1,.328,1.118c.133.43.25.86.383,1.291.242.782.477,1.564.727,2.347a18.241,18.241,0,0,0,1.635,4.052c1.424,2.253,3.958,3.168,6.492,3.489.727.086,1.463.141,2.2.18a15.588,15.588,0,0,0,2.769,0,.125.125,0,0,0,.055-.211Z" transform="translate(-160.643 -112.048)" fill="#263238"/>
      <path id="Path_6629" data-name="Path 6629" d="M311.594,230.737a67.717,67.717,0,0,1,10.771,5.022.121.121,0,1,1-.1.219c-3.629-1.564-7.329-3.051-10.865-4.8a.242.242,0,0,1,.2-.438Z" transform="translate(-153.318 -115.35)" fill="#263238"/>
      <path id="Path_6630" data-name="Path 6630" d="M310.208,198.97c0-.125.235-.156.235,0a119.206,119.206,0,0,0,.61,12.124c.164,1.869,1.666,12.194,4.912,11.443.54-.125.782-.665.9-1.478a12.924,12.924,0,0,0-.43-3.168c-.36-2.167-.649-4.333-.829-6.516a58.521,58.521,0,0,1,.133-12.218.1.1,0,0,1,.2,0,113.671,113.671,0,0,0,.986,16.872c.407,2.683,1.76,6.727-1.048,7.141s-4.693-6.351-5.061-8.205a61.789,61.789,0,0,1-.61-16Z" transform="translate(-153.026 -108.41)" fill="#263238"/>
      <path id="Path_6631" data-name="Path 6631" d="M317.326,229.36a18.672,18.672,0,0,1,.727,2.143,4.881,4.881,0,0,1,.305,1.76.125.125,0,0,1-.227.047,6.006,6.006,0,0,1-.782-1.713c-.25-.657-.508-1.322-.735-1.987a.377.377,0,1,1,.712-.25Z" transform="translate(-154.474 -114.997)" fill="#263238"/>
      <path id="Path_6632" data-name="Path 6632" d="M349.291,216.583c-4.286-.282-49.551-5.475-49.551-5.475l.352-18.467h44.764l4.1,21.69Z" transform="translate(-150.803 -107.054)" fill="#263238"/>
      <path id="Path_6633" data-name="Path 6633" d="M306.492,136.692c-5.178,16.207-13.946,32.938-16.481,36.231-6.8,8.854-27.22,17.576-33.454,18.7-2.7.485-9.167-16.919-7.493-19.312s27.056-12.093,28.3-13.383c.86-.9,11.568-14.7,18.772-23.02C305.139,125.562,307.853,132.453,306.492,136.692Z" transform="translate(-139.705 -93.516)" fill="#ad6359"/>
      <path id="Path_6634" data-name="Path 6634" d="M256.07,168.706,266.1,189.042s21.314-9.238,26.391-15.831,14.275-28.941,15.644-36.059-.993-12.2-10.528-1.8-17.435,20.767-19.14,22.5S256.07,168.706,256.07,168.706Z" transform="translate(-141.291 -93.288)" fill="#ebebeb"/>
      <path id="Path_6635" data-name="Path 6635" d="M257.15,167.574l12.014,21.072s18.772-8.972,23.559-14.861,12.679-23.974,15.151-33.735,1.025-16.684-10.028-4.74-17.3,20.618-19.555,22.566C277.221,158.72,257.15,167.574,257.15,167.574Z" transform="translate(-141.526 -93.189)" fill="#37474f"/>
      <circle id="Ellipse_914" data-name="Ellipse 914" cx="1.103" cy="1.103" r="1.103" transform="translate(119.582 74.127)" fill="#263238"/>
      <circle id="Ellipse_915" data-name="Ellipse 915" cx="1.103" cy="1.103" r="1.103" transform="translate(124.783 71.734)" fill="#263238"/>
      <path id="Path_6636" data-name="Path 6636" d="M314.655,140.01c-2.472,9.762-10.356,27.814-15.151,33.735-2.049,2.526-6.633,5.608-11.224,8.315l24.193-52.985C316.219,128.058,316.337,133.377,314.655,140.01Z" transform="translate(-148.307 -93.181)" fill="#263238"/>
      <path id="Path_6637" data-name="Path 6637" d="M350.855,194.232c-.125.141-54.236.305-54.753-.25-.7-.782,11.529-59.446,17.083-66.65,1.181-1.564,5.1-1.979,8.432-1.564a14.7,14.7,0,0,1,2.566.524h.094a6.258,6.258,0,0,1,1.885.923c9.261,7.4,17.067,33.266,18.89,41.033C348.1,181.068,351.3,193.724,350.855,194.232Z" transform="translate(-150.004 -92.455)" fill="#ebebeb"/>
      <path id="Path_6638" data-name="Path 6638" d="M332.826,126.78s-4.4,24.013-5.17,30.255.36,39.211.36,39.211l33.978,2.511s-7.345-21.823-7.431-23.207c0,0-6.1-26.14-11.819-37.06a38.977,38.977,0,0,0-9.918-11.709Z" transform="translate(-156.825 -92.708)" fill="#37474f"/>
      <path id="Path_6639" data-name="Path 6639" d="M364.276,199.429l-15.409-1.142-11-68.417h0v.047l6.9,8.839c.078.141.156.282.227.422,5.718,10.951,11.819,37.06,11.819,37.06C356.932,177.606,364.276,199.429,364.276,199.429Z" transform="translate(-159.109 -93.381)" fill="#263238"/>
      <path id="Path_6640" data-name="Path 6640" d="M312.42,127.45s-3.606,24.318-4,26.328-5.851,41.667-5.851,41.667l-8.5.266L298.5,177.58S308.368,132.628,312.42,127.45Z" transform="translate(-149.568 -92.854)" fill="#37474f"/>
      <path id="Path_6641" data-name="Path 6641" d="M322.342,143.2l-2.409-4.693L316.82,141.9l.767,3.379,3.066.4Z" transform="translate(-154.523 -95.263)" fill="#263238"/>
      <path id="Path_6642" data-name="Path 6642" d="M319.391,147.569l1.471,34.525-6.469,11.42-3.363-12.851,5.3-33.493Z" transform="translate(-153.262 -97.15)" fill="#263238"/>
      <rect id="Rectangle_7862" data-name="Rectangle 7862" width="40.548" height="66.923" transform="translate(164.732 186.39) rotate(-89.94)" fill="#90b645"/>
      <rect id="Rectangle_7863" data-name="Rectangle 7863" width="19.093" height="66.923" transform="translate(164.751 164.939) rotate(-89.94)" opacity="0.1"/>
      <rect id="Rectangle_7864" data-name="Rectangle 7864" width="70.091" height="18.921" transform="translate(233.268 158.865) rotate(-179.94)" fill="#90b645"/>
      <path id="Path_6643" data-name="Path 6643" d="M343.916,248.28l-.016,10.786,5.076.008.008-6.14,19.359.023-.008,6.14h5.076l.008-10.794Z" transform="translate(-160.422 -119.173)" fill="#263238"/>
      <rect id="Rectangle_7865" data-name="Rectangle 7865" width="4.568" height="9.042" transform="translate(223.639 163.367) rotate(-179.94)" fill="#263238"/>
      <rect id="Rectangle_7866" data-name="Rectangle 7866" width="4.568" height="9.042" transform="translate(177.357 163.329) rotate(-179.94)" fill="#263238"/>
      <path id="Path_6644" data-name="Path 6644" d="M342.357,135.4c15.1,13.7,24.678,33.258,25.327,37.208,1.564,9.55,3.543,26.289,3.207,33.634-.125,2.722-20.751-.579-20.712-3.489.133-9.1-1.079-29.128-1.134-29.48-.368-2.448-4.857-13.453-9.386-25.39S336.006,129.651,342.357,135.4Z" transform="translate(-158.879 -94.117)" fill="#ad6359"/>
      <path id="Path_6645" data-name="Path 6645" d="M350.1,250.648a3.238,3.238,0,0,0,3.637-.665,4.8,4.8,0,0,0,2.558,2.034c1.9.548,3.59-2.2,3.59-2.2a5.96,5.96,0,0,0,3.043,1.721c1.869.336,3.973-2.19,3.973-2.19a5.248,5.248,0,0,0,3.622-.172c1.948-.915,3.6-6.5,4-9.715s-1.463-12.718-1.635-14.564l-20.618-2.769s-5.913,13.907-5.851,17.755C346.475,243.147,347.828,249.522,350.1,250.648Z" transform="translate(-160.971 -113.478)" fill="#ad6359"/>
      <path id="Path_6646" data-name="Path 6646" d="M355.168,254.572c-.884-3.434-.7-6.946-.72-10.45a.063.063,0,0,1,.125,0c0,3.489.641,6.938.782,10.426a.095.095,0,0,1-.188.023Z" transform="translate(-162.718 -118.254)" fill="#263238"/>
      <path id="Path_6647" data-name="Path 6647" d="M363.268,254.572a9.252,9.252,0,0,1-.063-2.417c0-.853.094-1.713.164-2.566q.2-2.566.524-5.115c0-.078.125-.078.117,0-.125,1.705-.227,3.41-.289,5.115,0,.86-.047,1.713-.063,2.566a11.345,11.345,0,0,1-.156,2.417.125.125,0,0,1-.235,0Z" transform="translate(-164.616 -118.332)" fill="#263238"/>
      <path id="Path_6648" data-name="Path 6648" d="M372.583,254.256a6.61,6.61,0,0,1,.063-2.182c.078-.782.149-1.564.219-2.347.141-1.564.274-3.129.352-4.693a.063.063,0,0,1,.125,0c-.078,1.564-.133,3.176-.219,4.763l-.141,2.347a6.132,6.132,0,0,1-.321,2.1.047.047,0,0,1-.078.008Z" transform="translate(-166.656 -118.454)" fill="#263238"/>
      <path id="Path_6649" data-name="Path 6649" d="M348.588,201.975l22.863,1.236s-1.69-25.03-3.5-31.983-17.3-30.13-26.446-38.53c-8.6-7.908-8.6-1.33-5.342,7.939s11.334,31.67,11.608,33.305S348.588,201.975,348.588,201.975Z" transform="translate(-158.298 -93.228)" fill="#37474f"/>
      <path id="Path_6650" data-name="Path 6650" d="M353.9,216.34c.876-.078,1.76,0,2.636,0s1.752.039,2.628.078c1.69.07,3.379.172,5.069.282l5.061.336c1.744.117,3.528.149,5.256.407a.063.063,0,0,1,0,.117c-1.744.07-3.52-.086-5.264-.149l-5.162-.211c-1.721-.078-3.442-.164-5.162-.274-.845-.047-1.689-.109-2.526-.2s-1.713-.1-2.542-.266A.059.059,0,0,1,353.9,216.34Z" transform="translate(-162.589 -112.209)" fill="#263238"/>
      <path id="Path_6651" data-name="Path 6651" d="M320.509,132.065c.892-.039,6.813-4.693,8.6-8.275.125-.25-.336-2.8-.743-5.921-.242-1.893-.469-4.013-.532-5.96,0-.4-1.345.383-1.345.383l-2.5.688-8.26,2.3a30.864,30.864,0,0,1,1.424,7.439,3.765,3.765,0,0,1-.055.782.871.871,0,0,1,0,.133C316.919,125.174,319.07,132.12,320.509,132.065Z" transform="translate(-154.286 -89.444)" fill="#ad6359"/>
      <path id="Path_6652" data-name="Path 6652" d="M317.143,123.768a.871.871,0,0,1,0,.133,6.672,6.672,0,0,0,1.259,0c8.213-.454,8.893-10.951,8.893-10.951l-3.246.25-8.26,2.3a30.864,30.864,0,0,1,1.424,7.439,3.766,3.766,0,0,1-.07.829Z" transform="translate(-154.299 -89.696)" fill="#263238"/>
      <path id="Path_6653" data-name="Path 6653" d="M325.531,89.314c1.971,4.075,1.643,16.793-.978,20.024-3.786,4.693-10.951,6.187-15.174,1.408-4.091-4.623-3.363-21.189-.352-24.248C313.462,82.056,322.621,83.291,325.531,89.314Z" transform="translate(-152.284 -83.354)" fill="#ad6359"/>
      <path id="Path_6654" data-name="Path 6654" d="M316.86,102.7s.063,0,.063.078c-.047.853.047,1.846.782,2.143v.047C316.789,104.82,316.68,103.506,316.86,102.7Z" transform="translate(-154.516 -87.463)" fill="#263238"/>
      <path id="Path_6655" data-name="Path 6655" d="M317.646,101.58c1.377-.078,1.431,2.691.149,2.761S316.488,101.642,317.646,101.58Z" transform="translate(-154.52 -87.219)" fill="#263238"/>
      <path id="Path_6656" data-name="Path 6656" d="M310.292,103s-.063.039-.063.078c.039.853-.055,1.846-.829,2.143v.047C310.354,105.112,310.472,103.782,310.292,103Z" transform="translate(-152.907 -87.529)" fill="#263238"/>
      <path id="Path_6657" data-name="Path 6657" d="M309.24,101.86c-1.377-.078-1.439,2.691-.156,2.761S310.382,101.969,309.24,101.86Z" transform="translate(-152.638 -87.28)" fill="#263238"/>
      <path id="Path_6658" data-name="Path 6658" d="M318.639,99.4c-.383-.094-.72-.235-1.079-.36a1.8,1.8,0,0,1-1.032-.579.571.571,0,0,1,.086-.7,1.447,1.447,0,0,1,1.455-.18,2.135,2.135,0,0,1,1.244.9.626.626,0,0,1-.673.923Z" transform="translate(-154.441 -86.321)" fill="#263238"/>
      <path id="Path_6659" data-name="Path 6659" d="M307.938,99.585a10.3,10.3,0,0,0,1.1-.305,1.862,1.862,0,0,0,1.056-.524.579.579,0,0,0-.047-.712,1.439,1.439,0,0,0-1.447-.25,2.12,2.12,0,0,0-1.283.837.626.626,0,0,0,.626.954Z" transform="translate(-152.431 -86.374)" fill="#263238"/>
      <path id="Path_6660" data-name="Path 6660" d="M317.6,112.845c-.2.2-.407.485-.712.516a2.346,2.346,0,0,1-.923-.2l-.039.047a1.158,1.158,0,0,0,1.1.446.915.915,0,0,0,.657-.782C317.7,112.83,317.635,112.814,317.6,112.845Z" transform="translate(-154.33 -89.67)" fill="#263238"/>
      <path id="Path_6661" data-name="Path 6661" d="M315.472,107.033a2.91,2.91,0,0,1-1.924,1.33,3.606,3.606,0,0,1-1.048.07.853.853,0,0,1-.2,0h-.188a.211.211,0,0,1-.172-.188h0a.32.32,0,0,1,0-.086h0v-1.736c-.242.125-1.463.7-1.447.352a43.913,43.913,0,0,1,.978-8.846.078.078,0,1,1,.156,0c0,2.753-.5,5.475-.548,8.244a5.163,5.163,0,0,1,1.369-.446c.094,0-.125,1.94-.086,2.237a4.028,4.028,0,0,0,3-.993C315.457,106.908,315.519,106.962,315.472,107.033Z" transform="translate(-153.145 -86.407)" fill="#263238"/>
      <path id="Path_6662" data-name="Path 6662" d="M313.55,110.648a3.394,3.394,0,0,0,1.4,1.048,1.564,1.564,0,0,0,.946.047c.688-.2.688-.782.555-1.361a3.716,3.716,0,0,0-.321-.782,4.482,4.482,0,0,1-2.581,1.048Z" transform="translate(-153.811 -88.966)" fill="#263238"/>
      <path id="Path_6663" data-name="Path 6663" d="M315.34,111.914a1.564,1.564,0,0,0,.946.047c.688-.2.688-.782.555-1.361A1.627,1.627,0,0,0,315.34,111.914Z" transform="translate(-154.201 -89.184)" fill="#ff9abb"/>
      <path id="Path_6664" data-name="Path 6664" d="M307.48,90.619c.446-1.1.97-2.2,1.619-2.433s1.111,1.361,2.6,1.431c2.01.1,2.949-1.76,5.757-2.01,4.028-.36,5.866,2.98,6.078,8.706.18,5.108,3.285,5.53,3.285,5.53s1.658-11.31-1.564-14.987-10.575-5.186-15.409-1.564C308.059,86.662,307.48,90.619,307.48,90.619Z" transform="translate(-152.489 -83.22)" fill="#263238"/>
      <path id="Path_6665" data-name="Path 6665" d="M328.79,103.483s2.261-4.388,4.216-3.637.634,6.852-1.4,7.939A2.19,2.19,0,0,1,328.54,107Z" transform="translate(-157.076 -86.823)" fill="#ad6359"/>
      <path id="Path_6666" data-name="Path 6666" d="M332.908,102.1s.047.039,0,.055a5.349,5.349,0,0,0-2.346,3.817,1.2,1.2,0,0,1,1.752-.571c.039,0,0,.086,0,.086a1.345,1.345,0,0,0-1.408.665,6.4,6.4,0,0,0-.547,1.283c-.047.149-.305.109-.274-.055h0C329.756,105.44,330.882,102.569,332.908,102.1Z" transform="translate(-157.4 -87.333)" fill="#263238"/>
      <path id="Path_6667" data-name="Path 6667" d="M317.019,126.629l2.949,7.243,8.948-9.152,2.55,2.925s-8.745,14.5-8.8,13.868l-2.988-6.211-4.279,4.333.321-10.864Z" transform="translate(-154.214 -92.26)" fill="#ebebeb"/>
      <path id="Path_6668" data-name="Path 6668" d="M315.171,135.28c.117-1.791.18-3.606.375-5.389a.063.063,0,0,1,.125,0c.36,1.729-.11,8.6-.1,10.223h0c.18-.188,3.966-3.809,4-3.754.649.986,2.839,5.475,2.988,5.921,1.384-2.307,6.68-10.692,8.322-12.875a.063.063,0,0,1,.1.063c-1.2,2.393-8.205,13.7-8.315,13.7a71.553,71.553,0,0,1-3.129-6.57c-.641.782-4.466,4.889-4.482,4.623A57.039,57.039,0,0,1,315.171,135.28Z" transform="translate(-154.133 -93.277)" fill="#263238"/>
      <path id="Path_6669" data-name="Path 6669" d="M186.9,136.368c9.84,19.422,19.836,66.141,20.767,72.391.634,4.247-21.7,8.088-21.7,5.147,0-3.77-4.505-47.869-4.075-65.3C182.127,139,184.864,132.356,186.9,136.368Z" transform="translate(-125.127 -94.538)" fill="#eb9481"/>
      <path id="Path_6670" data-name="Path 6670" d="M186.977,232.444c-.36,2.558.493,11.42,2.167,17.99.782,3.207,4.13,12.163,6.641,11.733s1.768-3.129,1.768-3.129,1.971,3.567,4.451,2.9,1.2-4.842,1.2-4.842,2.284,3.528,4.693,2.683.43-4.826.43-4.826,1.948,3.324,3.653,1.783c2.057-1.854-2.214-7.564-2.933-11.154-.164-.782-2.159-16.754-2.159-16.754Z" transform="translate(-126.223 -114.937)" fill="#eb9481"/>
      <path id="Path_6671" data-name="Path 6671" d="M213.133,258.876c-3.129-4.208-3.77-6.594-4.161-11.733a.086.086,0,0,0-.164,0c-.07,5.076.305,8.182,4.13,11.913C213.126,259.22,213.282,259.071,213.133,258.876Z" transform="translate(-130.995 -118.913)" fill="#263238"/>
      <path id="Path_6672" data-name="Path 6672" d="M206.567,261.738c-2.871-4.654-3.59-7.235-4.4-12.593,0-.078-.141-.07-.133,0,.352,5.327.782,8.416,4.279,12.695C206.465,262.043,206.7,261.949,206.567,261.738Z" transform="translate(-129.52 -119.35)" fill="#263238"/>
      <path id="Path_6673" data-name="Path 6673" d="M199.186,263.414c-2.448-4.693-3.356-7.5-3.473-12.8a.1.1,0,0,0-.2,0,17.634,17.634,0,0,0,3.52,12.875C199.233,263.711,199.342,263.68,199.186,263.414Z" transform="translate(-128.084 -119.665)" fill="#263238"/>
      <path id="Path_6674" data-name="Path 6674" d="M211.472,227.83a62.5,62.5,0,0,1,4.646,8.268c1.048,2.792,1.165,14.5-1.369,14.674-3.27.219-4.693-6.547-4.928-9.949,0,0-7.572.508-9.621-4.13S211.472,227.83,211.472,227.83Z" transform="translate(-129.075 -114.719)" fill="#eb9481"/>
      <path id="Path_6675" data-name="Path 6675" d="M213.829,253.037c-3.129-1.948-3.176-6.437-3.668-9.722a.305.305,0,0,0-.438-.242c-3.183,0-7.681-.923-9.605-3.676a.078.078,0,1,0-.133.078c1.658,3.238,6.007,4.505,9.5,4.279.454,3.371.7,7.877,4.325,9.316C213.829,253.076,213.845,253.053,213.829,253.037Z" transform="translate(-129.07 -117.227)" fill="#263238"/>
      <path id="Path_6676" data-name="Path 6676" d="M209.358,205.85l-25.366,3.911s-4.044-47.1-4.192-62.9,5.53-19.68,11.623-3.512S209.358,205.85,209.358,205.85Z" transform="translate(-124.677 -94.053)" fill="#90b645"/>
      <path id="Path_6677" data-name="Path 6677" d="M184.984,225.1c10.38-2.347,21.635-3.215,23.591-3.5a.07.07,0,1,1,0,.141c-1.924.188-14.689,2.589-23.591,3.52C184.914,225.268,184.906,225.12,184.984,225.1Z" transform="translate(-125.795 -113.362)" fill="#263238"/>
      <path id="Path_6678" data-name="Path 6678" d="M240.744,432.529c-1.76.571-53.345-.2-55.238-1.447-.227-.141-.258-4.8-.2-11.193L182.8,381.93l32.64.094,2.581,32.852s7.321,3.379,13.36,6.336h0a72.478,72.478,0,0,1,7.689,4.067C241.018,426.905,242.5,431.966,240.744,432.529Z" transform="translate(-125.331 -148.285)" fill="#eb9481"/>
      <path id="Path_6679" data-name="Path 6679" d="M241.435,443.1c-1.76.571-53.345-.2-55.238-1.447-.227-.141-.258-4.8-.2-11.193,12.742,2.839,46.72,7.439,47.713,4.771.4-1.072-.415-2.284-1.627-3.4a72.459,72.459,0,0,1,7.689,4.067C241.709,437.476,243.2,442.537,241.435,443.1Z" transform="translate(-126.023 -158.856)" fill="#263238"/>
      <path id="Path_6680" data-name="Path 6680" d="M165.18,205.3s9.245,98.1,9.449,99.29c0,.156.1,1.971.188,4.92.516,16.183,1.783,66.65,1.783,66.65h38.78s-2.526-59.774-3.981-73.713c-1.854-17.795-13.25-97.147-13.25-97.147Z" transform="translate(-121.493 -109.812)" fill="#37474f"/>
      <path id="Path_6681" data-name="Path 6681" d="M180.336,309.949q-1.791-30.552-5.389-61.01c-1.361-11.42-3-22.8-4.631-34.189,0-.1-.172-.094-.156,0,3,20.266,5.123,40.673,6.954,61.1s3.129,40.8,3.911,61.245c.477,11.576.837,23.168,1.2,34.752a.219.219,0,0,0,.43,0C182.143,351.224,181.548,330.575,180.336,309.949Z" transform="translate(-122.578 -111.854)" fill="#263238"/>
      <path id="Path_6682" data-name="Path 6682" d="M216.554,415.627c-1.017-.133-2.12-.094-3.129-.125-1.158,0-2.347-.055-3.489-.094-2.245-.086-4.5-.149-6.742-.18-4.529-.078-9.065-.047-13.586.094l-3.739.133c-1.33.047-2.659.172-3.989.164-.094,0-.094.117,0,.117,2.276,0,4.584.2,6.868.282s4.49.117,6.735.149c4.529.063,9.073,0,13.594-.141,1.244-.047,2.487-.063,3.731-.1l2-.1c.594,0,1.181,0,1.776-.055C216.664,415.768,216.656,415.643,216.554,415.627Z" transform="translate(-125.116 -155.529)" fill="#263238"/>
      <path id="Path_6683" data-name="Path 6683" d="M193.2,205.3,175.481,333.077c-.25-9.527-.5-18.334-.665-23.567-.086-2.949-.156-4.763-.188-4.92-.219-1.189-9.449-99.29-9.449-99.29Z" transform="translate(-121.493 -109.812)" fill="#263238"/>
      <path id="Path_6684" data-name="Path 6684" d="M159.772,435.9c-1.846-.149-49.168-20.7-50.435-22.582-.156-.211,1.564-4.529,4.122-10.4l10.434-36.762,30.192,12.116-8.518,32.64s5.475,5.937,9.9,10.951h0a73.37,73.37,0,0,1,5.538,6.719C162.189,430.805,161.61,436.053,159.772,435.9Z" transform="translate(-109.327 -144.848)" fill="#eb9481"/>
      <path id="Path_6685" data-name="Path 6685" d="M159.772,446.135c-1.846-.149-49.168-20.7-50.435-22.582-.156-.211,1.564-4.529,4.122-10.4,10.677,7.525,40.267,24.826,42.238,22.746.782-.829.493-2.268-.2-3.77a73.363,73.363,0,0,1,5.538,6.719C162.189,441.043,161.61,446.291,159.772,446.135Z" transform="translate(-109.327 -155.085)" fill="#263238"/>
      <path id="Path_6686" data-name="Path 6686" d="M110.27,364.095,148.1,375.827s18.475-64.8,19.891-80.025c1.4-15.088,2.753-45.914,3.356-68.276,0,0,6.32-3.739,7.923-5.78s3.043-9.386,6.2-16.426H139.187c-11.06,21.487-2.738,31.045-2.738,35.73,0,22.621-3.418,52.649-4.505,57.1C129.676,307.426,110.27,364.095,110.27,364.095Z" transform="translate(-109.533 -109.816)" fill="#37474f"/>
      <path id="Path_6687" data-name="Path 6687" d="M149.168,410.232c-.946-.391-2.018-.634-3-.939-1.118-.336-2.245-.649-3.356-.993-2.143-.665-4.3-1.3-6.461-1.909q-6.531-1.862-13.156-3.426l-3.645-.837c-1.291-.3-2.612-.524-3.911-.868-.1,0-.125.086,0,.117,2.206.579,4.38,1.369,6.562,2.041s4.31,1.275,6.469,1.893q6.535,1.842,13.164,3.371c1.22.274,2.425.579,3.637.868l1.948.43c.579.133,1.142.321,1.729.407a.079.079,0,1,0,.023-.156Z" transform="translate(-110.683 -152.496)" fill="#263238"/>
      <path id="Path_6688" data-name="Path 6688" d="M196.454,225.668a34.995,34.995,0,0,0-6.257,3.708c-2.073,1.424-3.981,3.058-5.976,4.584-.078.063,0,.188.078.133,2.1-1.345,4.31-2.526,6.39-3.911a40.093,40.093,0,0,0,5.882-4.349C196.626,225.77,196.556,225.629,196.454,225.668Z" transform="translate(-125.634 -114.247)" fill="#263238"/>
      <path id="Path_6689" data-name="Path 6689" d="M198.186,208.991c-.266,1.439-.618,2.871-.931,4.3s-.508,2.714-.86,4.044a6.884,6.884,0,0,1-1.885,3.387c-.524.493-1.111.923-1.674,1.377-.3.242-.626.469-.939.72.039-.2.07-.383.1-.587.1-.54.2-1.087.282-1.635.2-1.212.4-2.433.587-3.645.368-2.393.7-4.81,1.2-7.18a.081.081,0,0,0-.156-.039c-.594,2.347-1.252,4.693-1.768,7.04-.258,1.158-1.165,6.883-1.2,7.29s-.078.837-.094,1.259a5.475,5.475,0,0,0,0,1.291c0,.1.156.086.2,0h0a5.077,5.077,0,0,0,.368-1.244c.1-.407.2-.821.266-1.236a3.3,3.3,0,0,1,.07-.461c.563-.344,1.087-.782,1.619-1.173a21.035,21.035,0,0,0,1.682-1.267,6.445,6.445,0,0,0,2.057-3.215,23.731,23.731,0,0,0,.68-4.122c.18-1.627.313-3.262.54-4.881C198.35,208.991,198.2,208.912,198.186,208.991Z" transform="translate(-127.076 -110.608)" fill="#263238"/>
      <path id="Path_6690" data-name="Path 6690" d="M187.483,119.559c-.743,9.191-1.666,18.639-3.809,27.619-1.674,6.993-5.475,12.429-13.062,13.156-7.04.673-16.778-.782-21.94-6.109-2.409-2.48-2.933-5.593-2.3-8.909.884-4.607,8.056-29.543,10.239-37.333a83.655,83.655,0,0,1,4.8-14.009c4.521-9.386,9.386-8.6,10.059-8.721.634-.3,4.576-1.439,9.644.97a10.442,10.442,0,0,1,5.585,6.461C189.391,101.068,188.2,110.955,187.483,119.559Z" transform="translate(-117.343 -83.547)" fill="#263238"/>
      <path id="Path_6691" data-name="Path 6691" d="M169.4,86.869c-6.2,1.924-8.471,8.1-10.661,13.61-3.05,7.673-5.976,15.4-8.526,23.262q-1.83,5.667-3.387,11.42c-.978,3.676-2.253,7.564-2.519,11.373-.438,6.257,4.881,9.918,10.293,11.568a.214.214,0,1,0,.133-.407c-3.066-1.056-6.156-2.347-8.182-5.029-2.6-3.41-1.713-7.274-.829-11.123,1.517-6.555,3.4-13.008,5.475-19.39s4.466-12.7,6.907-18.968c2.347-5.968,4.513-13.946,11.279-16.215C169.481,86.971,169.458,86.846,169.4,86.869Z" transform="translate(-116.94 -84.014)" fill="#263238"/>
      <path id="Path_6692" data-name="Path 6692" d="M197.327,100.553c-.454-4.92-2.3-9.91-7.126-11.983h0c6.211,2.957,6.821,10.27,6.868,16.308q.078,9.55-.54,19.07c-.391,6.109-.923,12.249-1.869,18.3-1.025,6.523-3.05,12.515-7.65,17.357a.105.105,0,0,0,.141.156c4.4-3.84,6.492-9.676,7.564-15.26a171.03,171.03,0,0,0,2.4-22.425C197.523,114.992,197.984,107.679,197.327,100.553Z" transform="translate(-126.241 -84.386)" fill="#263238"/>
      <path id="Path_6693" data-name="Path 6693" d="M175.783,126.931c.3.782,4.857,5.553,8.549,4.9,1.2-.219.313-6.828.313-6.828l.047-.5.641-7.04-8.706-4.114-1.244-.532s-.055,1.94-.086,4.349v.344a3.421,3.421,0,0,0,0,.4c0,.36,0,.727,0,1.1v1.713A45.828,45.828,0,0,0,175.783,126.931Z" transform="translate(-123.696 -89.668)" fill="#eb9481"/>
      <path id="Path_6694" data-name="Path 6694" d="M175.3,117.169a14.181,14.181,0,0,0,9.386,7.337l.641-7.04-8.7-4.114-1.244-.532S175.331,114.76,175.3,117.169Z" transform="translate(-123.698 -89.668)" fill="#263238"/>
      <path id="Path_6695" data-name="Path 6695" d="M193.321,101.471c.986,12.358-6.3,14.345-8.972,14.556-2.425.188-10.692.532-12.945-11.67s3.183-16.582,8.7-17.286S192.344,89.105,193.321,101.471Z" transform="translate(-122.735 -84.037)" fill="#eb9481"/>
      <path id="Path_6696" data-name="Path 6696" d="M196.421,101.772a7.557,7.557,0,0,1-.837-.172,1.4,1.4,0,0,1-.829-.336.446.446,0,0,1,0-.54,1.1,1.1,0,0,1,1.072-.266,1.564,1.564,0,0,1,1.017.563.469.469,0,0,1-.422.751Z" transform="translate(-127.915 -86.966)" fill="#263238"/>
      <path id="Path_6697" data-name="Path 6697" d="M186.235,101.988c.289-.039.548-.117.837-.18a1.4,1.4,0,0,0,.782-.352.438.438,0,0,0,0-.54,1.1,1.1,0,0,0-1.079-.25,1.619,1.619,0,0,0-1,.579.469.469,0,0,0,.461.743Z" transform="translate(-125.958 -87.009)" fill="#263238"/>
      <path id="Path_6698" data-name="Path 6698" d="M188.625,106.36a.064.064,0,0,0-.063.07c.055.845,0,1.822-.782,2.128v.047C188.734,108.425,188.812,107.15,188.625,106.36Z" transform="translate(-126.416 -88.261)" fill="#263238"/>
      <path id="Path_6699" data-name="Path 6699" d="M187.57,105.26c-1.361-.055-1.377,2.667-.117,2.722S188.712,105.307,187.57,105.26Z" transform="translate(-126.143 -88.021)" fill="#263238"/>
      <path id="Path_6700" data-name="Path 6700" d="M186.731,105.418c-.242.156-.477.422-.782.454s-.579-.258-.782-.532h-.047c0,.516.18,1.056.782,1.134s.884-.383,1.017-.907C186.911,105.5,186.825,105.356,186.731,105.418Z" transform="translate(-125.837 -88.038)" fill="#263238"/>
      <path id="Path_6701" data-name="Path 6701" d="M194.841,106.12a.064.064,0,0,1,.063.07c-.039.845.055,1.822.821,2.112v.047C194.787,108.208,194.669,106.91,194.841,106.12Z" transform="translate(-127.94 -88.208)" fill="#263238"/>
      <path id="Path_6702" data-name="Path 6702" d="M195.612,105c1.353-.078,1.424,2.644.164,2.722S194.47,105.07,195.612,105Z" transform="translate(-127.943 -87.964)" fill="#263238"/>
      <path id="Path_6703" data-name="Path 6703" d="M196.532,105.172c.219.133.438.391.7.407s.508-.289.7-.579h.039c0,.516-.133,1.064-.626,1.173s-.782-.336-.939-.845C196.375,105.258,196.446,105.11,196.532,105.172Z" transform="translate(-128.292 -87.964)" fill="#263238"/>
      <path id="Path_6704" data-name="Path 6704" d="M188.747,114.9c.2.211.383.493.688.532a2.347,2.347,0,0,0,.915-.164v.047a1.142,1.142,0,0,1-1.1.4.884.884,0,0,1-.626-.782C188.661,114.88,188.724,114.864,188.747,114.9Z" transform="translate(-126.601 -90.116)" fill="#263238"/>
      <path id="Path_6705" data-name="Path 6705" d="M192.463,108.715s.18,1.259.18,1.854c0,.063-.141.086-.344.1h0a2.824,2.824,0,0,1-2.753-1.04.064.064,0,0,1,.094-.086,4.224,4.224,0,0,0,2.581.727c.039-.164-.383-2.151-.289-2.159a5.1,5.1,0,0,1,1.353.3c-.3-2.636-1.017-5.2-1.283-7.822a.078.078,0,0,1,.156,0,43.128,43.128,0,0,1,1.744,8.377C193.926,109.231,192.7,108.793,192.463,108.715Z" transform="translate(-126.797 -86.986)" fill="#263238"/>
      <path id="Path_6706" data-name="Path 6706" d="M194.493,106.078c-.188-2.018.743-3.754,2.073-3.911s2.573,1.408,2.761,3.426-.782,3.754-2.073,3.911S194.681,108.1,194.493,106.078Zm.493-.047c.164,1.744,1.158,3.082,2.221,2.988s1.8-1.6,1.635-3.348-1.165-3.082-2.229-2.988S194.822,104.287,194.986,106.031Z" transform="translate(-127.873 -87.345)" fill="#263238"/>
      <path id="Path_6707" data-name="Path 6707" d="M182.75,107.3a3.434,3.434,0,1,1,3.762,3.332,3.567,3.567,0,0,1-3.762-3.332Zm.493-.047a2.941,2.941,0,1,0,2.628-3.442,3.066,3.066,0,0,0-2.628,3.442Z" transform="translate(-125.32 -87.699)" fill="#263238"/>
      <path id="Path_6708" data-name="Path 6708" d="M191.173,106.788c1.768-.782,2.652-.289,2.659-.282l.266-.415c-.039,0-1.087-.688-3.129.25Z" transform="translate(-127.111 -88.149)" fill="#263238"/>
      <path id="Path_6709" data-name="Path 6709" d="M179.759,107.515l.047-.493c-.329,0-7.916-.7-8.729-.673a9.68,9.68,0,0,0-2.957,1.486l.282.407a9.128,9.128,0,0,1,2.659-1.392h.094C171.749,106.858,177.06,107.273,179.759,107.515Z" transform="translate(-122.134 -88.258)" fill="#263238"/>
      <path id="Path_6710" data-name="Path 6710" d="M171.155,102.985c1.338-.078,4.826-3.778,4.936-10.254,0,0-.5,5.812-.931,6.664s1.948-2.081,2.1-7.3a21.33,21.33,0,0,0,5.366,2.777c2.464.688,3.973.665,4.153.485s-3.457-1.322-4.443-2.448c0,0,6.57,3.043,9.59,3.277.352,0,.782-7.173-3.911-10.223s-12.085.25-14.079,2.174c0,0-2.347.329-4.873,3.794S169.716,103.071,171.155,102.985Z" transform="translate(-122.134 -83.548)" fill="#263238"/>
      <path id="Path_6711" data-name="Path 6711" d="M172.734,109.358s-2.683-3.911-4.443-2.941.227,6.578,2.284,7.36a2.1,2.1,0,0,0,2.824-1.1Z" transform="translate(-122.023 -88.239)" fill="#eb9481"/>
      <path id="Path_6712" data-name="Path 6712" d="M169.26,108.5v.055a5.335,5.335,0,0,1,2.714,3.34,1.15,1.15,0,0,0-1.729-.329s0,.086.039.078a1.283,1.283,0,0,1,1.416.461,6.256,6.256,0,0,1,.673,1.15c.063.133.3.063.25-.086h0C172.655,111.292,171.239,108.7,169.26,108.5Z" transform="translate(-122.382 -88.727)" fill="#263238"/>
      <path id="Path_6713" data-name="Path 6713" d="M173.1,115.26a.907.907,0,1,1-.907-.9.907.907,0,0,1,.907.9Z" transform="translate(-122.824 -90.003)" fill="#fff"/>
      <path id="Path_6714" data-name="Path 6714" d="M194.519,192.051s-41.659.618-52-.109c0,0,8.432-47.791,19.555-59.868a16.946,16.946,0,0,1,1.314-1.291c.68-.571.587-5.131.907-5.475s13.837,1.431,14.009,1.76.868,4.631.868,4.631c3.066,3.911,12.929,17.427,14.079,23s-2.472,11.733-2.472,11.733Z" transform="translate(-116.557 -92.378)" fill="#90b645"/>
      <path id="Path_6715" data-name="Path 6715" d="M163.13,143.277c-2.464,11.873-1,37.545,4.693,42.238,9.386,7.681,31.944,9.926,38.241,10.669,2.714.321,8.119-17.443,6.257-19.734s-29.59-5.859-30.912-7.04c-.915-.845-5.225-16.355-8.94-25.1C167.471,132.475,164.029,138.9,163.13,143.277Z" transform="translate(-120.796 -95.055)" fill="#eb9481"/>
      <path id="Path_6716" data-name="Path 6716" d="M218.692,185.445s8.322-.086,13.766.117c3.043.109,8.229.782,10.426,1.877,3.277,1.65,15.949,10.645,13.829,13.766-1.916,2.824-5.686-.892-5.686-.892s4.505,3.668,1.744,5.89-7.227-3.082-7.227-3.082,5.053,3.567,1.877,5.647c-2.753,1.815-8.534-3.754-8.534-3.754s5.718,3.129,3.074,5.3c-2.918,2.347-12.632-4.912-12.632-4.912-6.961,1.564-11.349,1.564-16.465.727C211.926,205.969,218.692,185.445,218.692,185.445Z" transform="translate(-131.861 -105.483)" fill="#eb9481"/>
      <path id="Path_6717" data-name="Path 6717" d="M254.058,207.6l-1.134-1.2a27.637,27.637,0,0,0-2.237-2.253c-.782-.673-1.564-1.314-2.425-1.924s-1.83-1.22-2.691-1.885c-.07-.055-.149.047-.07.094a31.394,31.394,0,0,1,2.456,2.1c.782.7,1.564,1.424,2.347,2.135s1.564,1.345,2.347,2.026c.383.336.782.688,1.134,1.04a8.655,8.655,0,0,0,1.087.993c.039,0,.086,0,.063-.063A6.485,6.485,0,0,0,254.058,207.6Z" transform="translate(-138.982 -108.729)" fill="#263238"/>
      <path id="Path_6718" data-name="Path 6718" d="M260.37,203.3a42.393,42.393,0,0,0-4.067-4.271,29.269,29.269,0,0,0-4.779-3.481c-.063,0-.125.047-.078.094,1.47,1.322,2.964,2.62,4.458,3.911.727.634,3.95,3.621,4.325,3.911C260.315,203.513,260.425,203.387,260.37,203.3Z" transform="translate(-140.28 -107.688)" fill="#263238"/>
      <path id="Path_6719" data-name="Path 6719" d="M248.066,211.769a43.069,43.069,0,0,0-3.911-3.95,38.231,38.231,0,0,0-4.81-3.019c-.063,0-.125.063-.07.1,1.517,1.126,3.051,2.214,4.513,3.41.72.587,3.426,3.074,4.161,3.567C248.027,211.926,248.113,211.832,248.066,211.769Z" transform="translate(-137.628 -109.703)" fill="#263238"/>
      <path id="Path_6720" data-name="Path 6720" d="M199.627,196.67l9.926-23.145s-27.189-4.5-28.026-5.045-5.8-18.6-8.979-25.687-8.651-11.248-10.763,3.966.946,33.79,4,37.654C169.5,189.091,184.179,195.012,199.627,196.67Z" transform="translate(-120.601 -94.807)" fill="#90b645"/>
      <path id="Path_6721" data-name="Path 6721" d="M185.277,199.3a92.846,92.846,0,0,1-11.92-4.693c-3.34-1.4-6.75-3.129-8.6-6.406a18.436,18.436,0,0,1-1.791-5.311c-.43-2.065-.782-4.153-1.079-6.257q-.54-3.6-.97-7.212c-.141-1.236-.282-2.472-.407-3.708s-.352-2.472-.4-3.715a.063.063,0,0,0-.125,0c.086,1.142,0,2.292.094,3.442,0,.782.094,1.5.149,2.253L160,167.22a8.667,8.667,0,0,1-.548-1.705c0-.07-.133-.039-.117,0,.141.587.282,1.181.446,1.76a8.9,8.9,0,0,0,.282.845,5.523,5.523,0,0,0,.227.555q.282,3.371.727,6.711c.289,2.159.626,4.3,1.009,6.445a24.631,24.631,0,0,0,1.5,5.53,11.866,11.866,0,0,0,3.176,4.357,20.908,20.908,0,0,0,4.693,2.91,83.04,83.04,0,0,0,11.787,4.4C188.014,200.541,189.485,200.439,185.277,199.3Z" transform="translate(-120.221 -100.367)" fill="#263238"/>
      <path id="Path_6722" data-name="Path 6722" d="M199.951,175.446c-1-.133-12.836-2.62-13.3-2.753a1.392,1.392,0,0,1-.946-1c-.368-.954-.688-1.932-1.032-2.894q-.892-2.487-1.815-4.951a9.4,9.4,0,0,0-.11-1.1c-.039-.321-.117-.876-.188-1.314-.156-.946-.438-1.877-.555-2.824,0-.094-.149-.063-.125,0a13.986,13.986,0,0,1,.422,2.847c.039.375.063.782.086,1.134-.36-.962-.727-1.924-1.111-2.878-.446-1.111-.954-2.229-1.314-3.371,0-.078-.141-.039-.117,0,.407,1.025.7,2.112,1.017,3.129s.665,2.112,1.009,3.168c.673,2.073,1.384,4.13,2.1,6.195.344.993.68,2,1.048,2.988a2.128,2.128,0,0,0,1.564,1.51c2.057.555,12.116,2.221,13.336,2.268C200.053,175.673,200.084,175.462,199.951,175.446Z" transform="translate(-124.688 -99.137)" fill="#263238"/>
      <path id="Path_6723" data-name="Path 6723" d="M214.305,184.3c-1.564,3.324-3.129,6.625-4.544,10.02A103.815,103.815,0,0,0,206,204.546a.063.063,0,0,0,.117.047c1.564-3.262,2.933-6.649,4.318-10s2.644-6.8,4.044-10.168C214.548,184.28,214.368,184.17,214.305,184.3Z" transform="translate(-130.383 -105.225)" fill="#263238"/>
      <path id="Path_6724" data-name="Path 6724" d="M249.855,180.9c-1.2.673-8.049-1.22-10.825.86-1.838,1.377-3.637,4.693-4.028,9.019-.4,4.466,3.129,4.239,4.435,2.347a55.231,55.231,0,0,0,4.153-7.822,29.465,29.465,0,0,1,3.708.993Z" transform="translate(-136.695 -104.464)" fill="#ad6359"/>
      <path id="Path_6725" data-name="Path 6725" d="M240.468,200.765c-2.12-2.221-12.71,5.921-9.386,9.621S242.861,203.283,240.468,200.765Z" transform="translate(-135.708 -108.741)" fill="#ad6359"/>
      <path id="Path_6726" data-name="Path 6726" d="M244.988,204.835c-2.12-2.221-12.71,5.921-9.386,9.621S247.381,207.353,244.988,204.835Z" transform="translate(-136.693 -109.628)" fill="#ad6359"/>
      <path id="Path_6727" data-name="Path 6727" d="M249.105,206.318c-2.229-1.729-10.724,7.149-7.165,10.043S251.632,208.274,249.105,206.318Z" transform="translate(-138.026 -109.985)" fill="#ad6359"/>
      <path id="Path_6728" data-name="Path 6728" d="M253.726,206.982c-2.558-.978-7.947,9.66-3.825,11.342S256.628,208.054,253.726,206.982Z" transform="translate(-139.62 -110.164)" fill="#ad6359"/>
      <path id="Path_6729" data-name="Path 6729" d="M241.17,205.548a12.8,12.8,0,0,0-1.658,1.322,22.291,22.291,0,0,0-1.65,1.564,18.887,18.887,0,0,0-1.416,1.658c-.461.626-.845,1.306-1.314,1.916a.063.063,0,1,0,.094.07,16.034,16.034,0,0,1,1.51-1.666c.508-.532.986-1.087,1.494-1.627s.962-1.064,1.463-1.564,1.064-1.017,1.564-1.564C241.28,205.587,241.225,205.517,241.17,205.548Z" transform="translate(-136.724 -109.864)" fill="#263238"/>
      <path id="Path_6730" data-name="Path 6730" d="M246.666,206.811c-.454.7-2.041,3.395-2.526,4.075s-.993,1.361-1.51,2.026-1.017,1.392-1.6,2.018c-.047.055.039.141.094.086.587-.626,1.228-1.2,1.783-1.854s1.064-1.322,1.564-2.018a40,40,0,0,0,2.347-4.286A.084.084,0,0,0,246.666,206.811Z" transform="translate(-138.011 -110.134)" fill="#263238"/>
      <path id="Path_6731" data-name="Path 6731" d="M251.222,208.749c-.469,1.032-.876,2.1-1.353,3.129-.235.508-.477,1.017-.712,1.564l-.329.743a4.984,4.984,0,0,1-.391.853c-.047.063.078.133.109.047a6.122,6.122,0,0,1,.548-.884c.133-.235.274-.469.4-.7q.4-.782.727-1.525a22.632,22.632,0,0,0,1.142-3.129.085.085,0,1,0-.141-.094Z" transform="translate(-139.626 -110.555)" fill="#263238"/>
    </g>
    <g id="freepik--speech-bubble--inject-112" transform="translate(167.905 63.762)">
      <path id="Path_6732" data-name="Path 6732" d="M249.1,89.142a19.39,19.39,0,0,1-32.4,12.265L207,102.83l4.857-8.385a19.391,19.391,0,1,1,37.247-5.3Z" transform="translate(-206.359 -67.557)" fill="#fff"/>
      <path id="Path_6733" data-name="Path 6733" d="M248.926,89.089a19.555,19.555,0,0,1-3.911,9.824,20.592,20.592,0,0,1-1.752,2.026,21.571,21.571,0,0,1-2.049,1.729,18.773,18.773,0,0,1-4.693,2.6,19.023,19.023,0,0,1-5.217,1.244,18.211,18.211,0,0,1-2.691.055,17.053,17.053,0,0,1-2.683-.282,19.554,19.554,0,0,1-9.6-4.693l.235.07-9.683,1.424-.7.11.352-.618,4.826-8.4v.329a19.625,19.625,0,0,1,1.173-17.231,19.844,19.844,0,0,1,6.07-6.469,19.554,19.554,0,0,1,30.325,18.3Zm0,0a19.259,19.259,0,0,0-30-17.857,19.937,19.937,0,0,0-5.8,6.328,19.077,19.077,0,0,0-2.464,8.205,19.453,19.453,0,0,0,1.361,8.44l.07.172-.094.164-4.881,8.369-.344-.516,9.707-1.361h.133l.1.086A19.14,19.14,0,0,0,226,105.906a17.582,17.582,0,0,0,2.636.321,18.774,18.774,0,0,0,2.652,0,19.007,19.007,0,0,0,5.178-1.142,17.912,17.912,0,0,0,4.693-2.519,17.13,17.13,0,0,0,3.809-3.708A19.555,19.555,0,0,0,248.926,89.089Z" transform="translate(-206.18 -67.504)" fill="#263238"/>
      <path id="Path_6734" data-name="Path 6734" d="M230.965,100.535,222.69,92.15l2.777-2.745,4.842,4.9L240.359,78.54l3.293,2.1Z" transform="translate(-209.776 -69.908)" fill="#90b645"/>
    </g>
  </g>
</svg>
