<svg xmlns="http://www.w3.org/2000/svg" width="232.644" height="206" viewBox="0 0 232.644 206">
  <g id="Design_stats-rafiki" data-name="Design stats-rafiki" transform="translate(-56.11 -84.19)">
    <g id="freepik--Shadow--inject-265" transform="translate(56.11 276.608)">
      <ellipse id="freepik--path--inject-265" cx="116.322" cy="6.791" rx="116.322" ry="6.791" transform="translate(0)" fill="#f5f5f5"/>
    </g>
    <g id="freepik--design-stats--inject-265" transform="translate(102.118 84.19)">
      <path id="Path_7289" data-name="Path 7289" d="M297.668,222.416H139.627a6.779,6.779,0,0,1-6.815-7.2l5.9-120.587a7.631,7.631,0,0,1,7.523-7.2H304.273a6.773,6.773,0,0,1,6.815,7.2l-5.9,120.587A7.637,7.637,0,0,1,297.668,222.416Z" transform="translate(-132.798 -85.486)" fill="#b0bec5"/>
      <path id="Path_7290" data-name="Path 7290" d="M297.668,222.416H139.627a6.779,6.779,0,0,1-6.815-7.2l5.9-120.587a7.631,7.631,0,0,1,7.523-7.2H304.273a6.773,6.773,0,0,1,6.815,7.2l-5.9,120.587A7.637,7.637,0,0,1,297.668,222.416Z" transform="translate(-132.798 -85.486)" fill="#fff" opacity="0.7"/>
      <path id="Path_7291" data-name="Path 7291" d="M426.776,87.824a7.944,7.944,0,0,0-3.066-2.1l.216-.564a8.741,8.741,0,0,1,3.294,2.256Z" transform="translate(-249.181 -84.578)" fill="#b0bec5"/>
      <rect id="Rectangle_7959" data-name="Rectangle 7959" width="12.635" height="0.6" transform="translate(158.918 0)" fill="#b0bec5"/>
      <path id="Path_7292" data-name="Path 7292" d="M308.215,87.49H150.173a7.631,7.631,0,0,0-7.523,7.2H315.042a6.773,6.773,0,0,0-6.827-7.2Z" transform="translate(-136.74 -85.51)" fill="#b0bec5"/>
      <path id="Path_7293" data-name="Path 7293" d="M140.856,222.278l5.483-111.51a3.552,3.552,0,0,1,3.51-3.348H305.923a3.156,3.156,0,0,1,3.186,3.348l-5.453,111.516a3.558,3.558,0,0,1-3.516,3.354h-156.1a3.162,3.162,0,0,1-3.186-3.36Z" transform="translate(-136.019 -93.483)" fill="#fff"/>
      <path id="Path_7294" data-name="Path 7294" d="M172.21,161.138h-7.2a1.14,1.14,0,0,1-1.152-1.2l.6-12.6a1.284,1.284,0,0,1,1.272-1.2h7.2a1.14,1.14,0,0,1,1.158,1.2l-.6,12.6A1.284,1.284,0,0,1,172.21,161.138Z" transform="translate(-145.224 -108.974)" fill="#b0bec5" opacity="0.3"/>
      <path id="Path_7295" data-name="Path 7295" d="M196.226,159.618h-7.2a1.152,1.152,0,0,1-1.158-1.2l.726-14.878a1.3,1.3,0,0,1,1.278-1.2h7.2a1.152,1.152,0,0,1,1.158,1.2l-.726,14.878a1.3,1.3,0,0,1-1.278,1.2Z" transform="translate(-154.83 -107.454)" fill="#b0bec5" opacity="0.3"/>
      <path id="Path_7296" data-name="Path 7296" d="M220.246,158.582h-7.2a1.152,1.152,0,0,1-1.158-1.2l.8-16.432a1.3,1.3,0,0,1,1.278-1.2h7.2a1.152,1.152,0,0,1,1.158,1.2l-.774,16.414A1.3,1.3,0,0,1,220.246,158.582Z" transform="translate(-164.439 -106.417)" fill="#b0bec5" opacity="0.3"/>
      <path id="Path_7297" data-name="Path 7297" d="M244.28,157.642h-7.2a1.146,1.146,0,0,1-1.152-1.2l.87-17.842a1.3,1.3,0,0,1,1.278-1.2h7.2a1.152,1.152,0,0,1,1.158,1.2l-.864,17.824A1.284,1.284,0,0,1,244.28,157.642Z" transform="translate(-174.057 -105.477)" fill="#b0bec5" opacity="0.3"/>
      <path id="Path_7298" data-name="Path 7298" d="M268.3,154.013h-7.2a1.152,1.152,0,0,1-1.158-1.2l1.14-23.284a1.29,1.29,0,0,1,1.278-1.2h7.2a1.152,1.152,0,0,1,1.158,1.2l-1.14,23.266a1.3,1.3,0,0,1-1.278,1.218Z" transform="translate(-183.662 -101.849)" fill="#b0bec5"/>
      <path id="Path_7299" data-name="Path 7299" d="M269.863,123.032l.684-1.092a.39.39,0,0,0-.33-.6h-1.266a.39.39,0,0,0-.342.6l.6,1.092a.384.384,0,0,0,.654,0Z" transform="translate(-187.106 -99.052)" fill="#263238"/>
      <path id="Path_7300" data-name="Path 7300" d="M292.317,156.462h-7.2a1.152,1.152,0,0,1-1.158-1.2l.96-19.612a1.3,1.3,0,0,1,1.278-1.2h7.2a1.152,1.152,0,0,1,1.158,1.2l-.972,19.594A1.29,1.29,0,0,1,292.317,156.462Z" transform="translate(-193.272 -104.297)" fill="#b0bec5" opacity="0.3"/>
      <path id="Path_7301" data-name="Path 7301" d="M244.755,177.132H163.877a.372.372,0,0,1-.378-.4h0a.426.426,0,0,1,.42-.4h80.872a.372.372,0,0,1,.378.4h0A.414.414,0,0,1,244.755,177.132Z" transform="translate(-145.08 -121.056)" fill="#263238" opacity="0.1"/>
      <path id="Path_7302" data-name="Path 7302" d="M308.54,223.4l5.207-106.369a.4.4,0,0,1,.4-.378h.036a.354.354,0,0,1,.36.378l-5.2,106.369a.408.408,0,0,1-.4.384H308.9a.366.366,0,0,1-.36-.384Z" transform="translate(-203.106 -97.176)" fill="#263238" opacity="0.1"/>
      <path id="Path_7303" data-name="Path 7303" d="M350.171,140.29a12.173,12.173,0,0,0,1.44,8.4l-3.564,2.22a16.252,16.252,0,0,1-1.914-11.153,17.806,17.806,0,0,1,16.552-14.476v4.092a13.4,13.4,0,0,0-12.515,10.919Z" transform="translate(-218.034 -100.629)" fill="#b0bec5"/>
      <path id="Path_7304" data-name="Path 7304" d="M389.566,135.571l-3.864,1.56a11.807,11.807,0,0,0-9.6-7.679,12.163,12.163,0,0,0-2.184-.1v-4.092a15.922,15.922,0,0,1,15.646,10.313Z" transform="translate(-229.262 -100.613)" fill="#b0bec5" opacity="0.3"/>
      <path id="Path_7305" data-name="Path 7305" d="M380.485,151.051A17.775,17.775,0,0,1,361.023,165.4a15.689,15.689,0,0,1-11.513-7.6l3.564-2.2a11.8,11.8,0,0,0,8.687,5.735,13.355,13.355,0,0,0,14.687-10.8,12.3,12.3,0,0,0-.528-6.467l3.864-1.56A16.4,16.4,0,0,1,380.485,151.051Z" transform="translate(-219.497 -107.526)" fill="#263238"/>
      <path id="Path_7306" data-name="Path 7306" d="M344.671,127.392a.306.306,0,0,1-.222-.09l-2.658-2.8H332.66a.3.3,0,1,1,0-.6h9.257a.288.288,0,0,1,.216.1l2.754,2.892a.294.294,0,0,1-.216.5Z" transform="translate(-212.635 -100.076)" fill="#263238"/>
      <path id="Path_7307" data-name="Path 7307" d="M375.933,204.819a12.143,12.143,0,0,0-8.4-1.65l-.444-4.05a15.936,15.936,0,0,1,17.1,22.48l-3.75-1.464A12.154,12.154,0,0,0,375.933,204.819Z" transform="translate(-226.53 -130.085)" fill="#b0bec5" opacity="0.3"/>
      <path id="Path_7308" data-name="Path 7308" d="M368.27,246.457l.276-4.1a13.3,13.3,0,0,0,11.315-6.1,13.045,13.045,0,0,0,1.062-1.968l3.75,1.464a17.391,17.391,0,0,1-1.4,2.616A17.686,17.686,0,0,1,368.27,246.457Z" transform="translate(-227.002 -144.239)" fill="#263238"/>
      <path id="Path_7309" data-name="Path 7309" d="M349.687,230.061c-7.619-4.722-9.683-15.07-4.577-22.918A17.77,17.77,0,0,1,357.2,199.26l.444,4.05a13.379,13.379,0,0,0-9.125,5.945,12.3,12.3,0,0,0,3.456,17.3,12,12,0,0,0,6.185,1.8l-.276,4.1a16.006,16.006,0,0,1-8.2-2.388Z" transform="translate(-216.614 -130.225)" fill="#b0bec5"/>
      <path id="Path_7310" data-name="Path 7310" d="M341.061,201.078a.312.312,0,0,1-.216-.1l-2.664-2.8H329.05a.3.3,0,0,1,0-.6h9.263a.312.312,0,0,1,.216.1l2.748,2.892a.3.3,0,0,1,0,.426A.324.324,0,0,1,341.061,201.078Z" transform="translate(-211.191 -129.553)" fill="#263238"/>
      <path id="Path_7311" data-name="Path 7311" d="M332.866,279.41H329.83a1.632,1.632,0,0,0-1.6,1.53l-.15,3.042a1.446,1.446,0,0,0,1.458,1.53h3.036a1.632,1.632,0,0,0,1.608-1.53l.15-3.042a1.452,1.452,0,0,0-1.464-1.53Z" transform="translate(-210.922 -162.29)" fill="#b0bec5"/>
      <path id="Path_7312" data-name="Path 7312" d="M361.246,279.409H358.21a1.632,1.632,0,0,0-1.608,1.554l-.144,3.042a1.446,1.446,0,0,0,1.452,1.53h3.072a1.632,1.632,0,0,0,1.6-1.53l.15-3.042a1.446,1.446,0,0,0-1.488-1.554Z" transform="translate(-222.275 -162.29)" fill="#263238"/>
      <path id="Path_7313" data-name="Path 7313" d="M389.632,279.41H386.59a1.632,1.632,0,0,0-1.6,1.53l-.15,3.042a1.446,1.446,0,0,0,1.452,1.53h3.042a1.626,1.626,0,0,0,1.6-1.548l.15-3.042a1.446,1.446,0,0,0-1.452-1.512Z" transform="translate(-233.629 -162.29)" fill="#b0bec5" opacity="0.3"/>
      <text id="_25.54_" data-name="25.54%" transform="translate(23.6 76.142) rotate(2.862)" fill="#263238" font-size="1" font-family="Arial" font-weight="700" letter-spacing="0em"><tspan x="0" y="0">25.54</tspan><tspan y="0" letter-spacing="0em">%</tspan></text>
      <path id="Path_7314" data-name="Path 7314" d="M215.548,220.242h-.072a.294.294,0,0,1-.222-.36c2.028-8.525,6.329-17.26,11.4-17.542,3.39-.192,5.321,2.64,7.559,5.909a28.5,28.5,0,0,0,6.131,7.043,5.726,5.726,0,0,0,5.6,1.074c4.17-1.506,8.159-8.291,10.415-17.7a.309.309,0,0,1,.6.144c-2.334,9.749-6.371,16.528-10.8,18.124A6.3,6.3,0,0,1,240,215.772a28.833,28.833,0,0,1-6.263-7.2c-2.232-3.252-3.984-5.813-7.031-5.651-4.733.264-8.843,8.771-10.8,17.08a.3.3,0,0,1-.354.24Z" transform="translate(-165.782 -129.891)" fill="#b0bec5"/>
      <path id="Path_7315" data-name="Path 7315" d="M237.479,221.195H164.8a4.548,4.548,0,0,1-4.572-4.8l1.062-21.166a5.081,5.081,0,0,1,5.015-4.8h72.652a4.548,4.548,0,0,1,4.572,4.8l-1.032,21.16a5.082,5.082,0,0,1-5.016,4.806Zm-71.207-30.147a4.476,4.476,0,0,0-4.416,4.2l-1.032,21.16a3.942,3.942,0,0,0,3.972,4.2h72.682a4.476,4.476,0,0,0,4.416-4.2l1.038-21.16a3.954,3.954,0,0,0-3.978-4.2Z" transform="translate(-143.768 -126.693)" fill="#263238" opacity="0.1"/>
      <path id="Path_7316" data-name="Path 7316" d="M185.349,198.628H173.6a1.314,1.314,0,0,1-1.314-1.386,1.44,1.44,0,0,1,1.422-1.362h11.741a1.314,1.314,0,0,1,1.32,1.386A1.446,1.446,0,0,1,185.349,198.628ZM173.71,196.48a.84.84,0,0,0-.822.786.708.708,0,0,0,.192.54.738.738,0,0,0,.522.222h11.747a.846.846,0,0,0,.822-.786.714.714,0,0,0-.2-.54.7.7,0,0,0-.522-.222Z" transform="translate(-148.596 -128.873)" fill="#263238" opacity="0.1"/>
      <path id="Path_7317" data-name="Path 7317" d="M174.168,230.2H171.12l-.15,3.048h3.048Z" transform="translate(-148.069 -142.603)" fill="#b0bec5"/>
      <path id="Path_7318" data-name="Path 7318" d="M176.4,288.249h-6.215a1.968,1.968,0,0,1-1.98-2.076l.306-6.221a2.214,2.214,0,0,1,2.178-2.082h6.221a1.962,1.962,0,0,1,1.974,2.082l-.3,6.221A2.22,2.22,0,0,1,176.4,288.249Z" transform="translate(-146.963 -161.674)" fill="#b0bec5" opacity="0.3"/>
      <path id="Path_7319" data-name="Path 7319" d="M209.78,287.11H193.744a1.7,1.7,0,0,1-1.716-1.8,1.89,1.89,0,0,1,1.866-1.8h16.03a1.716,1.716,0,0,1,1.722,1.8A1.89,1.89,0,0,1,209.78,287.11Zm-15.886-3a1.3,1.3,0,0,0-1.272,1.2,1.146,1.146,0,0,0,.306.834,1.122,1.122,0,0,0,.816.342H209.78a1.278,1.278,0,0,0,1.266-1.2,1.086,1.086,0,0,0-.306-.834,1.11,1.11,0,0,0-.816-.348Z" transform="translate(-156.493 -163.931)" fill="#263238" opacity="0.1"/>
      <path id="Path_7320" data-name="Path 7320" d="M176.808,287.341h0a.3.3,0,0,1-.288-.312l.132-2.658a.282.282,0,0,1,.312-.282.3.3,0,0,1,.288.312l-.132,2.658A.3.3,0,0,1,176.808,287.341Z" transform="translate(-150.29 -164.161)" fill="#b0bec5"/>
      <path id="Path_7321" data-name="Path 7321" d="M174.887,285.376a.312.312,0,0,1-.216-.1.3.3,0,0,1,0-.426l1.284-1.2a.305.305,0,0,1,.216-.084.324.324,0,0,1,.21.1l1.164,1.2a.3.3,0,0,1-.438.414l-.954-1.008-1.068,1.02A.323.323,0,0,1,174.887,285.376Z" transform="translate(-149.514 -163.955)" fill="#b0bec5"/>
      <text id="_323_078.00" data-name="$323,078.00" transform="translate(22.182 105.032) rotate(2.862)" fill="#263238" font-size="2" font-family="Arial" font-weight="700"><tspan x="0" y="0">$323,078.00</tspan></text>
      <path id="Path_7322" data-name="Path 7322" d="M244.427,277.87h-6.215a2.22,2.22,0,0,0-2.184,2.082l-.3,6.221a1.962,1.962,0,0,0,1.974,2.076h6.221a2.214,2.214,0,0,0,2.178-2.076l.306-6.221a1.968,1.968,0,0,0-1.98-2.082Z" transform="translate(-173.975 -161.674)" fill="#263238" opacity="0.4"/>
      <path id="Path_7323" data-name="Path 7323" d="M277.291,287.11H261.26a1.716,1.716,0,0,1-1.722-1.8,1.89,1.89,0,0,1,1.866-1.8h16.036a1.722,1.722,0,0,1,1.722,1.8A1.9,1.9,0,0,1,277.291,287.11Zm-15.886-3a1.29,1.29,0,0,0-1.266,1.2,1.146,1.146,0,0,0,.306.834,1.116,1.116,0,0,0,.816.342h16.03a1.284,1.284,0,0,0,1.272-1.2,1.116,1.116,0,0,0-1.122-1.2Z" transform="translate(-183.501 -163.93)" fill="#263238" opacity="0.1"/>
      <path id="Path_7324" data-name="Path 7324" d="M244.338,286.827h0a.3.3,0,0,1-.288-.312l.132-2.658a.288.288,0,0,1,.312-.288.306.306,0,0,1,.288.318l-.132,2.652a.3.3,0,0,1-.312.288Z" transform="translate(-177.306 -163.954)" fill="#fff"/>
      <path id="Path_7325" data-name="Path 7325" d="M243.535,288.3h0a.318.318,0,0,1-.21-.09l-1.164-1.2a.3.3,0,1,1,.426-.426l.954,1.008,1.068-1.02a.3.3,0,0,1,.426,0,.294.294,0,0,1,0,.42l-1.284,1.23A.318.318,0,0,1,243.535,288.3Z" transform="translate(-176.515 -165.12)" fill="#fff"/>
    </g>
    <g id="freepik--Character--inject-265" transform="translate(73.014 97.694)">
      <path id="Path_7326" data-name="Path 7326" d="M107.649,111.679a15.431,15.431,0,0,0-2.706,9.635c.168,2.73-3.4,2.856-2.4,7.607.858,4.116-1.644,5.4-1.584,8.621.132,7.469,6.833,9.677,19.33,7.469s4.991-13.619,6.659-18.112.348-15.028-3-14.554C124.315,104.414,112.466,105.446,107.649,111.679Z" transform="translate(-90.956 -106.7)" fill="#263238"/>
      <path id="Path_7327" data-name="Path 7327" d="M107.83,168.391c-.084,1.518-.246,2.886-.444,4.32s-.456,2.826-.774,4.23-.678,2.82-1.122,4.2a34.008,34.008,0,0,1-1.638,4.2l-.138.3a3,3,0,0,1-3.828,1.536,23.333,23.333,0,0,1-2.4-1.152c-.762-.408-1.464-.864-2.172-1.308s-1.374-.942-2.034-1.446a25.065,25.065,0,0,1-1.926-1.608,1.836,1.836,0,0,1,1.638-3.072h.06c.768.174,1.542.4,2.3.6l2.25.66,2.19.642c.708.2,1.416.378,2.046.516l-3.972,1.836c.39-1.116.708-2.31,1.008-3.534s.522-2.49.744-3.762.408-2.562.6-3.858.324-2.628.462-3.834v-.066a3.612,3.612,0,0,1,7.2.6Z" transform="translate(-86.913 -129.815)" fill="#b55b52"/>
      <path id="Path_7328" data-name="Path 7328" d="M88.254,184.147l-1.476-.522a1.446,1.446,0,0,0-1.854.906l-.564,1.686a1.44,1.44,0,0,0,.7,1.734l1.848.972s3,2.3,4.506.894l.822-2.4-2.226-2.166A4.89,4.89,0,0,0,88.254,184.147Z" transform="translate(-84.286 -137.441)" fill="#b55b52"/>
      <path id="Path_7329" data-name="Path 7329" d="M112.185,157.24c-4.422.834-5.357,2.64-8.615,9.353.984,4.416,9.377,8.3,9.377,8.3S119.474,162.951,112.185,157.24Z" transform="translate(-92.001 -126.919)" fill="#263238"/>
      <path id="Path_7330" data-name="Path 7330" d="M128.749,400.417c2.772-3.7,3-4.716,4.746-6.659a18.629,18.629,0,0,1,3.24-2.97c1.164-.942.468-2.3-.6-2.88-.834-.444-1.752-.84-2.76-1.428l-4.572,3.732c.45,2.118-.492,6.533-2.4,9.473C125.006,401.79,127.64,401.892,128.749,400.417Z" transform="translate(-100.976 -218.629)" fill="#263238"/>
      <path id="Path_7331" data-name="Path 7331" d="M102.92,213.27s-4.26,29.889-7.433,50.281a23.35,23.35,0,0,0,1.128,11.807c5.429,14.464,19.5,45.913,19.5,45.913.648.636,4.542-3.066,4.92-4.086,0,0-4.866-39.746-12.431-48.655,15.436-31.845,15.2-55.26,15.2-55.26Z" transform="translate(-88.646 -149.335)" fill="#b0bec5"/>
      <g id="Group_8300" data-name="Group 8300" transform="translate(19.44 64.823)" opacity="0.2">
        <path id="Path_7332" data-name="Path 7332" d="M133.48,214.75l-11.4.8s-2.208,32.829-2.682,51.235C132.053,239.7,133.349,219.166,133.48,214.75Z" transform="translate(-117.774 -214.75)"/>
        <path id="Path_7333" data-name="Path 7333" d="M118.25,307.76c-.156,9.437-.63,21.718-1.56,33.063,2.886,6.641,5.483,12.515,6.905,15.706,1.368-3.954,2.892-8.675,4.266-13.679C125.947,331.3,122.593,314.647,118.25,307.76Z" transform="translate(-116.69 -251.96)"/>
      </g>
      <path id="Path_7334" data-name="Path 7334" d="M126.674,387.175c.348.51.954,1.428,1.374,2.124a.492.492,0,0,0,.7.114,43.128,43.128,0,0,0,5.4-4.566.552.552,0,0,0,.138-.6l-.918-2.088a.492.492,0,0,0-.768-.144l-5.759,4.445A.546.546,0,0,0,126.674,387.175Z" transform="translate(-101.217 -216.793)" fill="#b0bec5"/>
      <path id="Path_7335" data-name="Path 7335" d="M126.674,387.175c.348.51.954,1.428,1.374,2.124a.492.492,0,0,0,.7.114,43.128,43.128,0,0,0,5.4-4.566.552.552,0,0,0,.138-.6l-.918-2.088a.492.492,0,0,0-.768-.144l-5.759,4.445A.546.546,0,0,0,126.674,387.175Z" transform="translate(-101.217 -216.793)" fill="#fff" opacity="0.3"/>
      <path id="Path_7336" data-name="Path 7336" d="M103.064,409.218c4.356.864,6.035,1.134,8.519,1.542,2.124.342,2.52.7,4.2,1,1.416.246,1.92-1.05,2.124-2.622.108-.786.3-2.724.522-3.984l-6.749-.36c-1.608,1.464-5.9,1.944-8.483,1.8C100.742,406.4,101.33,408.87,103.064,409.218Z" transform="translate(-91.195 -225.955)" fill="#263238"/>
      <path id="Path_7337" data-name="Path 7337" d="M118.132,213.27s2.238,38.4,2.652,55.794c.426,18.268.078,46.8-3.234,58.95.906.6,5.105.6,7.3-.036,0,0,13.637-38.7,8.5-58.1,10.337-42.751,4.2-52.848,2.478-56.586Z" transform="translate(-97.594 -149.335)" fill="#b0bec5"/>
      <path id="Path_7338" data-name="Path 7338" d="M117.8,400.06a19.655,19.655,0,0,1-.99,2.4.42.42,0,0,0,.246.642,26.751,26.751,0,0,0,7.259.282.684.684,0,0,0,.546-.378l1.074-2.244a.414.414,0,0,0-.336-.636l-7.139-.516A.69.69,0,0,0,117.8,400.06Z" transform="translate(-97.27 -223.882)" fill="#b0bec5"/>
      <path id="Path_7339" data-name="Path 7339" d="M117.8,400.06a19.655,19.655,0,0,1-.99,2.4.42.42,0,0,0,.246.642,26.751,26.751,0,0,0,7.259.282.684.684,0,0,0,.546-.378l1.074-2.244a.414.414,0,0,0-.336-.636l-7.139-.516A.69.69,0,0,0,117.8,400.06Z" transform="translate(-97.27 -223.882)" fill="#fff" opacity="0.3"/>
      <path id="Path_7340" data-name="Path 7340" d="M130.943,156.429c-.954-.1-1.956-.18-3-.228a76.456,76.456,0,0,0-10.877,0c-1.2.108-2.4.258-3.6.42a9,9,0,0,0-7.691,8.489c-.072,2.358.438,5.915.93,11.525.648,7.313-1.134,11.033.426,13.727,3.054,2.9,17.074,1.452,23.956,0h0c2.07-2.664-1.98-9.6,4.608-26.673A5.431,5.431,0,0,0,130.943,156.429Z" transform="translate(-92.88 -126.426)" fill="#263238"/>
      <path id="Path_7341" data-name="Path 7341" d="M123.465,165.452c-.126.45-.384.762-.6.708s-.258-.462-.132-.906.39-.762.6-.708S123.6,165.008,123.465,165.452Z" transform="translate(-99.639 -129.839)" fill="#fff"/>
      <path id="Path_7342" data-name="Path 7342" d="M122.039,171.645c-.06.462-.27.816-.474.786s-.318-.414-.264-.876.27-.81.468-.786S122.093,171.183,122.039,171.645Z" transform="translate(-99.089 -132.331)" fill="#fff"/>
      <path id="Path_7343" data-name="Path 7343" d="M132.43,136.54c-.108,3.6-.57,9.539,1.7,11.873,0,0-3.318-.5-10.355,3.858-2.04-2.928-.528-3.858-.528-3.858a3.5,3.5,0,0,0,2.664-4.943Z" transform="translate(-99.659 -118.638)" fill="#b55b52"/>
      <path id="Path_7344" data-name="Path 7344" d="M127,158.516c2.322.33,3.048,3.828,3.048,3.828s5.567-3.936,7.331-6.713a22.545,22.545,0,0,1-2.034-1.29S128.326,157.178,127,158.516Z" transform="translate(-101.374 -125.759)" fill="#fff"/>
      <path id="Path_7345" data-name="Path 7345" d="M121.385,158.678a4.317,4.317,0,0,0-2.766,2.964c-.528-5.105,1.89-5.579,1.89-5.579a3,3,0,0,1,2.1-.3A2.478,2.478,0,0,0,121.385,158.678Z" transform="translate(-97.992 -126.299)" fill="#fff"/>
      <path id="Path_7346" data-name="Path 7346" d="M130.492,144.353l-.918.558-1.524,1.62a3.45,3.45,0,0,1,.144,2.634c1.74-.672,3.492-2.034,3.954-3.5h0a1.128,1.128,0,0,0-1.656-1.308Z" transform="translate(-101.794 -121.699)" opacity="0.2"/>
      <path id="Path_7347" data-name="Path 7347" d="M127.058,118.775c1.674,5.5,2.5,7.8.894,11.687-2.4,5.861-9.323,7.031-12.557,2.22-2.9-4.338-5.153-12.6-.852-16.954a7.361,7.361,0,0,1,12.515,3.048Z" transform="translate(-95.433 -109.362)" fill="#b55b52"/>
      <path id="Path_7348" data-name="Path 7348" d="M127.033,115.83c-1.41,3.756,1.932,8.429,6.713,8.069,2.226-4.254.876-7.505-.312-8.831S128.647,113.515,127.033,115.83Z" transform="translate(-101.257 -109.651)" fill="#263238" opacity="0.4"/>
      <path id="Path_7349" data-name="Path 7349" d="M127.048,114.851c-.642,4.554-15.424,1.734-16.228,6.3C110.784,115.187,117.449,107.219,127.048,114.851Z" transform="translate(-94.901 -108.707)" fill="#263238"/>
      <path id="Path_7350" data-name="Path 7350" d="M124.164,131.326c.156.456.06.924-.222,1.044s-.642-.15-.8-.6-.06-.924.222-1.05S124,130.876,124.164,131.326Z" transform="translate(-99.799 -116.297)" fill="#263238"/>
      <path id="Path_7351" data-name="Path 7351" d="M114.928,134.221c.162.456.066.924-.216,1.044s-.642-.15-.8-.6-.06-.924.222-1.044S114.772,133.765,114.928,134.221Z" transform="translate(-96.106 -117.458)" fill="#263238"/>
      <path id="Path_7352" data-name="Path 7352" d="M113.786,133.58l-1.146.132S113.456,134.336,113.786,133.58Z" transform="translate(-95.629 -117.454)" fill="#263238"/>
      <path id="Path_7353" data-name="Path 7353" d="M117.906,134.21a14.14,14.14,0,0,1-.516,3.57,1.926,1.926,0,0,0,1.65-.36Z" transform="translate(-97.53 -117.706)" fill="#a02724"/>
      <path id="Path_7354" data-name="Path 7354" d="M121.927,140.535a4.536,4.536,0,0,1-.762.24.126.126,0,0,1-.156-.108.15.15,0,0,1,.114-.168,4.013,4.013,0,0,0,2.736-2.142.138.138,0,1,1,.252.1A4.2,4.2,0,0,1,121.927,140.535Z" transform="translate(-98.977 -119.321)" fill="#263238"/>
      <path id="Path_7355" data-name="Path 7355" d="M140.31,128.563a3.941,3.941,0,0,1-1.128,3c-1,.924-2.208-.138-2.532-1.674-.288-1.38-.12-3.528,1.2-3.84S140.274,127.082,140.31,128.563Z" transform="translate(-105.187 -114.423)" fill="#b55b52"/>
      <path id="Path_7356" data-name="Path 7356" d="M123.049,126.667a.252.252,0,0,1-.2-.048,2.064,2.064,0,0,0-1.932-.348.252.252,0,0,1-.342-.162.306.306,0,0,1,.174-.372,2.592,2.592,0,0,1,2.442.414.288.288,0,0,1,.042.4A.324.324,0,0,1,123.049,126.667Z" transform="translate(-98.797 -114.26)" fill="#263238"/>
      <path id="Path_7357" data-name="Path 7357" d="M111.2,130.6a.27.27,0,0,1-.2,0,.276.276,0,0,1-.156-.36,3,3,0,0,1,1.836-1.872.264.264,0,0,1,.324.21.306.306,0,0,1-.21.348,2.34,2.34,0,0,0-1.44,1.494A.3.3,0,0,1,111.2,130.6Z" transform="translate(-94.9 -115.364)" fill="#263238"/>
      <path id="Path_7358" data-name="Path 7358" d="M123.016,130.7l-1.146.126S122.7,131.48,123.016,130.7Z" transform="translate(-99.322 -116.301)" fill="#263238"/>
      <path id="Path_7359" data-name="Path 7359" d="M139.512,175.387v1.284a10.307,10.307,0,0,1-.1,1.14,21.6,21.6,0,0,1-.36,2.232,21,21,0,0,1-1.422,4.368,17.181,17.181,0,0,1-2.532,4.062,15.094,15.094,0,0,1-3.72,3.222l-.216.132a2.4,2.4,0,0,1-.6.252,5.628,5.628,0,0,1-3.12,0,9.406,9.406,0,0,1-1.944-.792,17.018,17.018,0,0,1-2.8-1.962,26.037,26.037,0,0,1-2.256-2.19,26.809,26.809,0,0,1-1.962-2.4,1.8,1.8,0,0,1,2.4-2.622l.066.042,2.4,1.41c.8.456,1.6.906,2.4,1.3a15,15,0,0,0,2.226.936,2.586,2.586,0,0,0,.8.15c.174,0,.162-.108-.252,0l-.786.384a9.666,9.666,0,0,0,1.926-2.058,9.552,9.552,0,0,0,.75-1.248,11.445,11.445,0,0,0,.63-1.374,18.116,18.116,0,0,0,.87-3.036c.108-.528.186-1.062.258-1.6.03-.27.06-.534.084-.8l.048-.666v-.318a3.6,3.6,0,0,1,7.2.2Z" transform="translate(-97.814 -132.719)" fill="#b55b52"/>
      <path id="Path_7360" data-name="Path 7360" d="M104.871,190.15H91.876a2.628,2.628,0,0,1-2.568-1.908L87.719,180c-.2-1.044.6-1.89,1.836-1.89h12.989a2.616,2.616,0,0,1,2.568,1.89l1.6,8.243A1.659,1.659,0,0,1,104.871,190.15Z" transform="translate(-85.647 -135.268)" fill="#b0bec5"/>
      <path id="Path_7361" data-name="Path 7361" d="M104.877,190.168h-12.6a2.046,2.046,0,0,1-2-1.428l-1.554-8.021a.936.936,0,0,1,.192-.786,1.4,1.4,0,0,1,1.1-.444h12.6a2.058,2.058,0,0,1,2,1.422l1.548,8.021a.912.912,0,0,1-.186.786A1.41,1.41,0,0,1,104.877,190.168Zm-14.89-10.529a1.26,1.26,0,0,0-.984.39.792.792,0,0,0-.156.666l1.548,8.015a1.9,1.9,0,0,0,1.854,1.284h12.6a1.23,1.23,0,0,0,.978-.4.762.762,0,0,0,.162-.66l-1.506-8a1.89,1.89,0,0,0-1.848-1.3Z" transform="translate(-86.055 -135.819)" fill="#fff"/>
      <path id="Path_7362" data-name="Path 7362" d="M114.313,184.8l-1.524-.384a1.446,1.446,0,0,0-1.758,1.08l-.4,1.734a1.44,1.44,0,0,0,.864,1.656l1.932.792s3.234,2,4.578.456l.6-2.472-2.4-1.944A4.8,4.8,0,0,0,114.313,184.8Z" transform="translate(-94.813 -137.772)" fill="#b55b52"/>
      <path id="Path_7363" data-name="Path 7363" d="M143.941,156.76c5.261.312,6.881,5.8,5.129,15.784-.852,3.75-11.363-1.374-11.363-1.374S137.342,160.5,143.941,156.76Z" transform="translate(-105.657 -126.727)" fill="#263238"/>
    </g>
    <g id="freepik--Plant--inject-265" transform="translate(242.424 207.699)">
      <path id="Path_7364" data-name="Path 7364" d="M395.614,316.7c-1.914-12,3.33-27.735,9.977-26.577C411.1,291.08,396.754,313.031,395.614,316.7Z" transform="translate(-378.087 -290.059)" fill="#b0bec5"/>
      <path id="Path_7365" data-name="Path 7365" d="M388.118,326.278c6.251-8.885,2.4-27.147-4.2-27.561S387.579,321.808,388.118,326.278Z" transform="translate(-372.686 -293.521)" fill="#263238"/>
      <path id="Path_7366" data-name="Path 7366" d="M392.889,335.4c-.714-19.2,10.979-28.851,16.2-26.559C414.457,311.2,396.975,324.773,392.889,335.4Z" transform="translate(-377.144 -297.44)" fill="#b0bec5"/>
      <path id="Path_7367" data-name="Path 7367" d="M382.678,351.57c6.251-13.517.894-34.64-9.047-32.355C365.388,321.112,381.2,345.883,382.678,351.57Z" transform="translate(-368.506 -301.655)" fill="#b0bec5"/>
      <path id="Path_7368" data-name="Path 7368" d="M381.265,361.3c-.69-12.959-4.62-29.481-12.695-27.951C360.867,334.784,378.865,349.962,381.265,361.3Z" transform="translate(-366.666 -307.336)" fill="#263238"/>
      <path id="Path_7369" data-name="Path 7369" d="M387.7,374.015c1.98-19.12,18.346-29.793,18.178-22.54C405.7,359.22,393.2,364.266,387.7,374.015Z" transform="translate(-375.081 -313.715)" fill="#b0bec5"/>
      <path id="Path_7370" data-name="Path 7370" d="M383.778,374.209c2.3-6.839-3.1-16.126-8.771-14.141C370.309,361.718,382.3,371.713,383.778,374.209Z" transform="translate(-369.569 -317.958)" fill="#b0bec5"/>
      <path id="Path_7371" data-name="Path 7371" d="M390.391,356.072c-2.472-14.662,10.163-39.9,21.562-34.472C423.028,326.873,395.791,339.225,390.391,356.072Z" transform="translate(-376.032 -302.377)" fill="#263238"/>
      <path id="Path_7372" data-name="Path 7372" d="M388.576,401.8H377.657a4.445,4.445,0,0,1-4.26-3.144,39.383,39.383,0,0,1-1.932-13.529,25.25,25.25,0,0,1,.6-4.3,1.278,1.278,0,0,1,1.236-1h19.66a1.266,1.266,0,0,1,1.23,1,25.249,25.249,0,0,1,.6,4.3,39.526,39.526,0,0,1-1.926,13.529,4.458,4.458,0,0,1-4.289,3.144Z" transform="translate(-368.578 -325.973)" fill="#b0bec5"/>
      <path id="Path_7373" data-name="Path 7373" d="M394.77,385.127H371.48a25.245,25.245,0,0,1,.6-4.3,1.278,1.278,0,0,1,1.236-1h19.66a1.266,1.266,0,0,1,1.23,1,25.255,25.255,0,0,1,.564,4.3Z" transform="translate(-368.592 -325.973)" fill="#fff" opacity="0.5"/>
    </g>
  </g>
</svg>
