<svg xmlns="http://www.w3.org/2000/svg" width="230.9" height="213.005" viewBox="0 0 230.9 213.005">
  <g id="Business_Plan-bro" data-name="Business Plan-bro" transform="translate(-58.634 -81.642)">
    <g id="freepik--Shadow--inject-242" transform="translate(61.128 280.487)">
      <ellipse id="Ellipse_927" data-name="Ellipse 927" cx="114.203" cy="7.08" rx="114.203" ry="7.08" transform="translate(0)" fill="#b0bec5"/>
      <ellipse id="Ellipse_928" data-name="Ellipse 928" cx="114.203" cy="7.08" rx="114.203" ry="7.08" transform="translate(0)" fill="#fff" opacity="0.7"/>
    </g>
    <g id="freepik--Graphics--inject-242" transform="translate(108.97 82.489)">
      <path id="Path_7227" data-name="Path 7227" d="M290.869,106.4l-.329,2.788,1.51.536a12.36,12.36,0,0,0,.4,2.831l-1.309.95,1.1,2.587,1.589-.3a12.289,12.289,0,0,0,1.753,2.252l-.664,1.485,2.252,1.68,1.218-1.035a12.019,12.019,0,0,0,2.648,1.071l.171,1.613,2.782.335.542-1.516a12.353,12.353,0,0,0,2.831-.4l.956,1.3,2.593-1.114-.286-1.583a12.309,12.309,0,0,0,2.246-1.753l1.485.664,1.68-2.252-1.041-1.218a11.856,11.856,0,0,0,1.071-2.642l1.613-.17.335-2.788-1.516-.542a11.976,11.976,0,0,0-.4-2.825l1.315-.956-1.108-2.587-1.583.292a12.337,12.337,0,0,0-1.759-2.246l.657-1.479-2.271-1.656-1.218,1.041a12.491,12.491,0,0,0-2.63-1.071l-.17-1.613-2.788-.329-.542,1.51a12.26,12.26,0,0,0-2.825.4l-.956-1.309-2.587,1.1.292,1.583a12.3,12.3,0,0,0-2.24,1.729l-1.479-.657-1.686,2.252,1.041,1.218a12.071,12.071,0,0,0-1.071,2.648Zm6.471,2.234a6.976,6.976,0,1,1,6.087,7.749h0a6.976,6.976,0,0,1-6.087-7.749Z" transform="translate(-199.507 -87.816)" fill="none" stroke="#263238" stroke-linejoin="round" stroke-width="1.571"/>
      <path id="Path_7228" data-name="Path 7228" d="M171.418,219.727l-.3,2.526,1.37.487a11.075,11.075,0,0,0,.359,2.563l-1.217.864,1,2.344,1.437-.274a11.26,11.26,0,0,0,1.589,2.039l-.609,1.345,2.088,1.534,1.1-.944a10.785,10.785,0,0,0,2.4.974l.152,1.461,2.526.3.487-1.376a10.955,10.955,0,0,0,2.563-.359l.864,1.187,2.338-1-.256-1.461a11.258,11.258,0,0,0,2.039-1.589l1.345.609,1.522-2.033-.944-1.114a10.909,10.909,0,0,0,.974-2.392l1.461-.158.3-2.526-1.37-.487a11.072,11.072,0,0,0-.359-2.563l1.218-.864-1-2.344-1.431.262a11.23,11.23,0,0,0-1.6-2.027l.609-1.345-2.088-1.516-1.108.944a10.844,10.844,0,0,0-2.386-.968l-.152-1.461-2.526-.3-.487,1.376a11.028,11.028,0,0,0-2.563.359l-.864-1.163-2.344,1,.262,1.437a11.194,11.194,0,0,0-2.039,1.589l-1.345-.609-1.522,2.039.944,1.108a11.083,11.083,0,0,0-.974,2.4Zm5.862,2.021a6.319,6.319,0,1,1,5.528,7.025h0A6.325,6.325,0,0,1,177.281,221.748Z" transform="translate(-152.784 -132.535)" fill="#263238"/>
      <path id="Path_7229" data-name="Path 7229" d="M347.234,307.91v-5.728l-3.2-.724a24.676,24.676,0,0,0-1.485-5.637l2.435-2.246-2.873-4.992-3.141.992a25.1,25.1,0,0,0-4.1-4.134l.992-3.172-4.974-2.867-2.222,2.392a24.664,24.664,0,0,0-5.625-1.528l-.731-3.226h-5.728l-.73,3.2a24.448,24.448,0,0,0-5.637,1.485l-2.246-2.435-4.961,2.861.968,3.141a25.068,25.068,0,0,0-4.134,4.1l-3.165-.98-2.861,4.955,2.4,2.234a24.7,24.7,0,0,0-1.528,5.619l-3.226.737v5.728l3.2.73a25.026,25.026,0,0,0,1.485,5.631l-2.435,2.252,2.867,4.973,3.135-.968a24.832,24.832,0,0,0,4.115,4.115l-.98,3.172,4.98,2.867,2.222-2.435a24.513,24.513,0,0,0,5.594,1.534l.731,3.227H322.1l.724-3.2a25.059,25.059,0,0,0,5.643-1.5l2.246,2.435,4.974-2.867-.968-3.135a24.831,24.831,0,0,0,4.133-4.1l3.166.98,2.867-4.98-2.4-2.228a25,25,0,0,0,1.534-5.625Zm-9.9-2.959a17.983,17.983,0,1,1-17.983-17.983h0A17.983,17.983,0,0,1,337.33,304.952Z" transform="translate(-199.866 -158.74)" fill="#fff"/>
      <rect id="Rectangle_7918" data-name="Rectangle 7918" width="14.756" height="3.403" transform="translate(33.08 6.964)" fill="#b0bec5"/>
      <rect id="Rectangle_7919" data-name="Rectangle 7919" width="9.698" height="3.403" transform="translate(33.08 11.883)" fill="#b0bec5"/>
      <rect id="Rectangle_7920" data-name="Rectangle 7920" width="5.582" height="3.403" transform="translate(33.08 16.802)" fill="#b0bec5"/>
      <rect id="Rectangle_7921" data-name="Rectangle 7921" width="14.756" height="3.403" transform="translate(33.08 6.964)" opacity="0.2" style="mix-blend-mode: normal;isolation: isolate"/>
      <rect id="Rectangle_7922" data-name="Rectangle 7922" width="9.698" height="3.403" transform="translate(33.08 11.883)" opacity="0.2" style="mix-blend-mode: normal;isolation: isolate"/>
      <rect id="Rectangle_7923" data-name="Rectangle 7923" width="5.582" height="3.403" transform="translate(33.08 16.802)" opacity="0.2" style="mix-blend-mode: normal;isolation: isolate"/>
      <rect id="Rectangle_7924" data-name="Rectangle 7924" width="5.004" height="10.251" transform="translate(7.457 44.658)" fill="#b0bec5"/>
      <rect id="Rectangle_7925" data-name="Rectangle 7925" width="5.004" height="6.733" transform="translate(14.683 48.183)" fill="#b0bec5"/>
      <rect id="Rectangle_7926" data-name="Rectangle 7926" width="5.004" height="3.878" transform="translate(21.915 51.038)" fill="#b0bec5"/>
      <rect id="Rectangle_7927" data-name="Rectangle 7927" width="5.004" height="10.251" transform="translate(7.457 44.658)" opacity="0.2" style="mix-blend-mode: normal;isolation: isolate"/>
      <rect id="Rectangle_7928" data-name="Rectangle 7928" width="5.004" height="6.733" transform="translate(14.683 48.183)" opacity="0.2" style="mix-blend-mode: normal;isolation: isolate"/>
      <rect id="Rectangle_7929" data-name="Rectangle 7929" width="5.004" height="3.878" transform="translate(21.915 51.038)" opacity="0.2" style="mix-blend-mode: normal;isolation: isolate"/>
      <path id="Path_7230" data-name="Path 7230" d="M207.927,145.382h-60.59A6.325,6.325,0,0,1,141,139.057V89.035a6.337,6.337,0,0,1,6.325-6.325h60.59a6.331,6.331,0,0,1,6.337,6.325v50.022a6.325,6.325,0,0,1-6.325,6.325Zm-60.59-62.093a5.783,5.783,0,0,0-5.771,5.771v50.022a5.783,5.783,0,0,0,5.771,5.771h60.59a5.783,5.783,0,0,0,5.771-5.771V89.035a5.783,5.783,0,0,0-5.771-5.771Z" transform="translate(-141 -82.71)" fill="#263238"/>
      <rect id="Rectangle_7930" data-name="Rectangle 7930" width="21.605" height="0.554" transform="translate(44.543 44.938)" fill="#263238"/>
      <rect id="Rectangle_7931" data-name="Rectangle 7931" width="21.605" height="0.554" transform="translate(44.543 47.258)" fill="#263238"/>
      <rect id="Rectangle_7932" data-name="Rectangle 7932" width="21.605" height="0.554" transform="translate(44.543 49.571)" fill="#263238"/>
      <rect id="Rectangle_7933" data-name="Rectangle 7933" width="21.605" height="0.554" transform="translate(44.543 51.884)" fill="#263238"/>
      <rect id="Rectangle_7934" data-name="Rectangle 7934" width="21.605" height="0.554" transform="translate(44.543 54.198)" fill="#263238"/>
      <rect id="Rectangle_7935" data-name="Rectangle 7935" width="21.605" height="0.554" transform="translate(6.794 7.196)" fill="#263238"/>
      <rect id="Rectangle_7936" data-name="Rectangle 7936" width="21.605" height="0.554" transform="translate(6.794 9.509)" fill="#263238"/>
      <rect id="Rectangle_7937" data-name="Rectangle 7937" width="21.605" height="0.554" transform="translate(6.794 11.822)" fill="#263238"/>
      <rect id="Rectangle_7938" data-name="Rectangle 7938" width="21.605" height="0.554" transform="translate(6.794 14.135)" fill="#263238"/>
      <rect id="Rectangle_7939" data-name="Rectangle 7939" width="21.605" height="0.554" transform="translate(6.794 16.449)" fill="#263238"/>
      <path id="Path_7231" data-name="Path 7231" d="M209.357,119.518l3.872,2.033-.444-10.921-9.235,5.844,3.872,2.027-2.916,5.546h0a2.3,2.3,0,0,0-1.418.487l-5.144-2.38v-.03a2.362,2.362,0,1,0-4.718-.231h0a1.463,1.463,0,0,0,0,.231,2.465,2.465,0,0,0,.213.98l-6.7,7.305a2.252,2.252,0,0,0-.664-.1,1.682,1.682,0,0,0-.347.037L176.089,118.1a2.356,2.356,0,0,0-4.31-1.893,2.258,2.258,0,0,0-.2.937,2.611,2.611,0,0,0,.122.712l-10.988,11.262a2.356,2.356,0,1,0,1.406,3.044h0a2.436,2.436,0,0,0,.14-.81,2.06,2.06,0,0,0-.079-.572l11.11-11.4a2.147,2.147,0,0,0,.676.11,2.079,2.079,0,0,0,.432-.043l9.588,12.175a2.382,2.382,0,0,0,4.188,2.271,2.331,2.331,0,0,0,.286-1,1.538,1.538,0,0,0,0-.237,2.435,2.435,0,0,0-.122-.724l6.855-7.463a2.175,2.175,0,0,0,.4.037,2.356,2.356,0,0,0,1.315-.4l5.235,2.435a2.356,2.356,0,1,0,4.706-.225,2.332,2.332,0,0,0-.42-1.218Z" transform="translate(-147.477 -93.633)" fill="#263238"/>
      <g id="freepik--chart-1--inject-2--inject-242" transform="translate(63.475 69.118)">
        <path id="Path_7232" data-name="Path 7232" d="M248.862,196.262a3.6,3.6,0,0,0-3.592,3.6v31.174a3.592,3.592,0,0,0,3.592,3.592H286.6a3.6,3.6,0,0,0,3.6-3.592V199.842a3.6,3.6,0,0,0-3.6-3.592Z" transform="translate(-245.27 -196.25)" fill="none" stroke="#263238" stroke-linejoin="round" stroke-width="1"/>
        <rect id="Rectangle_7940" data-name="Rectangle 7940" width="2.867" height="0.384" transform="translate(2.977 4.261)" fill="#263238"/>
        <rect id="Rectangle_7941" data-name="Rectangle 7941" width="2.867" height="0.384" transform="translate(2.977 7.39)" fill="#263238"/>
        <rect id="Rectangle_7942" data-name="Rectangle 7942" width="2.867" height="0.384" transform="translate(2.977 10.519)" fill="#263238"/>
        <rect id="Rectangle_7943" data-name="Rectangle 7943" width="2.867" height="0.384" transform="translate(2.977 13.654)" fill="#263238"/>
        <rect id="Rectangle_7944" data-name="Rectangle 7944" width="2.867" height="0.384" transform="translate(2.867 7.39)" fill="#263238"/>
        <rect id="Rectangle_7945" data-name="Rectangle 7945" width="2.867" height="0.384" transform="translate(2.977 16.783)" fill="#263238"/>
      </g>
      <path id="Path_7233" data-name="Path 7233" d="M277.1,233.965a13.752,13.752,0,1,0-13.466-14A13.752,13.752,0,0,0,277.1,233.965Zm.481-23.461a9.74,9.74,0,1,1-9.935,9.539A9.74,9.74,0,0,1,277.585,210.5Z" transform="translate(-188.98 -131.128)" fill="#b0bec5"/>
      <path id="Path_7234" data-name="Path 7234" d="M277.1,233.965a13.752,13.752,0,1,0-13.466-14A13.752,13.752,0,0,0,277.1,233.965Zm.481-23.461a9.74,9.74,0,1,1-9.935,9.539A9.74,9.74,0,0,1,277.585,210.5Z" transform="translate(-188.98 -131.128)" opacity="0.2" style="mix-blend-mode: normal;isolation: isolate"/>
      <path id="Path_7235" data-name="Path 7235" d="M267.376,229.87a14,14,0,0,0,19.8.085.292.292,0,0,0,0-.39l-2.855-2.873a.274.274,0,0,0-.195-.085.348.348,0,0,0-.2.079,9.35,9.35,0,0,1-6.867,2.745h-.676a9.4,9.4,0,0,1-5.607-2.258c-.14-.128-.286-.256-.42-.39a9.612,9.612,0,0,1-1.065-12.339.249.249,0,0,0,.031-.055c.061-.085.128-.158.2-.244a9.418,9.418,0,0,1,7.914-3.567.274.274,0,0,0,.28-.268h0l.079-4.036a.28.28,0,0,0-.268-.286h0a14,14,0,0,0-10.154,23.882Z" transform="translate(-188.846 -130.941)" fill="#263238"/>
      <path id="Path_7236" data-name="Path 7236" d="M277.482,206a14.312,14.312,0,1,1-.03,0Zm-.56,27.5a13.478,13.478,0,1,0-13.2-13.746h0a13.484,13.484,0,0,0,13.2,13.752Zm.481-23.461a10,10,0,1,1-10.2,9.789A10,10,0,0,1,277.4,210.036Zm-.4,19.425a9.442,9.442,0,1,0-9.247-9.631h0a9.442,9.442,0,0,0,9.247,9.625Z" transform="translate(-188.792 -130.946)" fill="#263238"/>
      <line id="Line_20" data-name="Line 20" y2="36.927" transform="translate(17.453 118.963)" fill="none" stroke="#263238" stroke-linecap="round" stroke-linejoin="round" stroke-width="0.879"/>
      <rect id="Rectangle_7946" data-name="Rectangle 7946" width="3.135" height="21.142" transform="translate(20.253 132.898)" fill="#263238"/>
      <rect id="Rectangle_7947" data-name="Rectangle 7947" width="3.135" height="12.51" transform="translate(24.734 141.524)" fill="#b0bec5"/>
      <rect id="Rectangle_7948" data-name="Rectangle 7948" width="3.135" height="27.978" transform="translate(30 126.061)" fill="#fff" stroke="#263238" stroke-linejoin="round" stroke-width="0.879"/>
      <rect id="Rectangle_7949" data-name="Rectangle 7949" width="3.135" height="32.008" transform="translate(38.741 122.025)" fill="#263238"/>
      <rect id="Rectangle_7950" data-name="Rectangle 7950" width="3.135" height="7.92" transform="translate(43.228 146.12)" fill="#b0bec5"/>
      <rect id="Rectangle_7951" data-name="Rectangle 7951" width="3.135" height="18.902" transform="translate(48.494 135.138)" fill="#fff" stroke="#263238" stroke-linejoin="round" stroke-width="0.879"/>
      <rect id="Rectangle_7952" data-name="Rectangle 7952" width="3.135" height="16.004" transform="translate(61.265 138.03)" fill="#263238"/>
      <rect id="Rectangle_7953" data-name="Rectangle 7953" width="3.135" height="28.423" transform="translate(65.752 125.611)" fill="#b0bec5"/>
      <rect id="Rectangle_7954" data-name="Rectangle 7954" width="3.135" height="22.147" transform="translate(71.018 131.887)" fill="#fff" stroke="#263238" stroke-linejoin="round" stroke-width="0.879"/>
      <line id="Line_21" data-name="Line 21" x2="1.753" transform="translate(14.087 149.145)" fill="none" stroke="#263238" stroke-linecap="round" stroke-linejoin="round" stroke-width="0.879"/>
      <line id="Line_22" data-name="Line 22" x2="1.753" transform="translate(14.087 144.586)" fill="none" stroke="#263238" stroke-linecap="round" stroke-linejoin="round" stroke-width="0.879"/>
      <line id="Line_23" data-name="Line 23" x2="1.753" transform="translate(14.087 140.032)" fill="none" stroke="#263238" stroke-linecap="round" stroke-linejoin="round" stroke-width="0.879"/>
      <line id="Line_24" data-name="Line 24" x2="1.753" transform="translate(14.087 135.473)" fill="none" stroke="#263238" stroke-linecap="round" stroke-linejoin="round" stroke-width="0.879"/>
      <line id="Line_25" data-name="Line 25" x2="1.753" transform="translate(14.087 130.913)" fill="none" stroke="#263238" stroke-linecap="round" stroke-linejoin="round" stroke-width="0.879"/>
      <line id="Line_26" data-name="Line 26" x2="1.753" transform="translate(14.087 126.354)" fill="none" stroke="#263238" stroke-linecap="round" stroke-linejoin="round" stroke-width="0.879"/>
      <line id="Line_27" data-name="Line 27" x2="1.753" transform="translate(14.087 121.794)" fill="none" stroke="#263238" stroke-linecap="round" stroke-linejoin="round" stroke-width="0.879"/>
      <line id="Line_28" data-name="Line 28" x2="60.973" transform="translate(15.377 154.04)" fill="none" stroke="#263238" stroke-linecap="round" stroke-linejoin="round" stroke-width="0.879"/>
      <rect id="Rectangle_7955" data-name="Rectangle 7955" width="3.135" height="12.51" transform="translate(24.734 141.524)" opacity="0.3"/>
      <rect id="Rectangle_7956" data-name="Rectangle 7956" width="3.135" height="7.92" transform="translate(43.228 146.12)" opacity="0.3"/>
      <rect id="Rectangle_7957" data-name="Rectangle 7957" width="3.135" height="28.423" transform="translate(65.752 125.611)" opacity="0.3"/>
      <path id="Path_7237" data-name="Path 7237" d="M157.5,269.7a3.969,3.969,0,0,0-3.963,3.963v36.227a3.975,3.975,0,0,0,3.963,3.969H224.74a3.982,3.982,0,0,0,3.969-3.969V273.649a3.975,3.975,0,0,0-3.969-3.969Z" transform="translate(-145.906 -155.861)" fill="none" stroke="#263238" stroke-linejoin="round" stroke-width="1"/>
    </g>
    <g id="freepik--character-1--inject-242" transform="translate(59.132 82.145)">
      <path id="Path_7238" data-name="Path 7238" d="M67.361,400.933s1.406,9.387-2,10.349-5.765-.3-6.191-1.711,2.587-11.451,2.587-11.451Z" transform="translate(-59.132 -205.768)" fill="#fff"/>
      <path id="Path_7239" data-name="Path 7239" d="M164.89,404.526l14.793,3.507s1.12.609,1,1.613-6.873,3.579-8.766,3.9-12.82,1.747-14.373.414S159.271,402,159.271,402Z" transform="translate(-97.471 -207.286)" fill="#fff"/>
      <path id="Path_7240" data-name="Path 7240" d="M117.824,124.78s2.082,3.141,2.112,4.73-.164,3.4.81,4.34,1.723,1.96,1.321,2.435-1.175,1.4-1.175,1.4,1,5.351-.3,6.319-5.217,0-5.217,0v3.458s-5.564-1.826-9.405-1.485l-.682-7.409S113.636,122.521,117.824,124.78Z" transform="translate(-77.191 -98.74)" fill="#fff"/>
      <path id="Path_7241" data-name="Path 7241" d="M181.656,150.821s-.5-3.8,1.351-6.088c0,0-2.216-.377-1.948-1.181s3.653.25,3.653.25l-.913-1.826s-3.2-1.059-2.8-2.051,5.083,1.449,5.083,1.449-2.782-2.325-2.392-3.293,3.22-.95,4.73,4.066l.767-.956s.274-5.71,1.059-6.021c0,0,1.217.67,1.217,3.951,0,0,1.218,1.467.444,2.709s-2.593,4.036-4.14,5.083-1.54,5.132-1.54,5.132Z" transform="translate(-106.798 -102.89)" fill="#fff"/>
      <path id="Path_7242" data-name="Path 7242" d="M98.353,98.887l.7-.937s7.835-3.494,7.64-4.584-4.633.414-5.479-.164c0,0,.81-10.312,0-10.647s-1.711,4.84-1.711,4.84-1.138-5.308-2.015-5.156-.511,5.479-.511,5.479-1.674-3.415-2.325-3.1.323,4.48.323,4.48-1.217-1.431-1.7-1A16.139,16.139,0,0,0,95,94.267l-1.692,2.861Z" transform="translate(-72.488 -82.18)" fill="#fff"/>
      <path id="Path_7243" data-name="Path 7243" d="M136.011,139.042l5.4.755s-3.951,33.482-5.114,37.615-2.21,7.1-6.179,7.305-18.11-11.688-18.11-11.688l-.657,16.436.919,6.818s-17.295,9.089-34.882,1.181l.4-8-6.337-36.586L66.46,135.5,82.549,105l5.832,3.044L78.093,135.809l2.879,9.271,3.22-1.291,3.561-4.541s6.039-3.135,13.679,1.217l1.218,3.811s8.961.676,24.089,21.647Z" transform="translate(-61.999 -91.087)" fill="#b0bec5"/>
      <path id="Path_7244" data-name="Path 7244" d="M117.3,160.92l.682,4.687s5.028,3.336,7.049,4.493c0,0,4.943,31.217,1.284,37.359l-3.853,6.033s3.939,0,5.753-2.758c0,0-2.258,7.536-8.115,9.564,0,0,8.991-.937,12.084-2.131l-.919-6.818,1.479-38.017s1.394-2.545-10.2-7.1l-1.711-4.109Z" transform="translate(-81.89 -112.965)" opacity="0.2"/>
      <path id="Path_7245" data-name="Path 7245" d="M124.307,125.62s1.887,2.764,2.112,4.3-.444,3.239.81,4.34,1.826,1.826,1.321,2.435-1.175,1.4-1.175,1.4.511,5.217-.3,6.319-5.217,0-5.217,0v3.458" transform="translate(-83.674 -99.154)" fill="none" stroke="#263238" stroke-linecap="round" stroke-linejoin="round" stroke-width="1"/>
      <path id="Path_7246" data-name="Path 7246" d="M119.534,143.407s-1.765-4.56-3.086-3.458-.146,7.129,3.086,5.808" transform="translate(-81.348 -104.693)" fill="none" stroke="#263238" stroke-linecap="round" stroke-linejoin="round" stroke-width="1"/>
      <path id="Path_7247" data-name="Path 7247" d="M109.445,131.192s2.1-.17.773-5.1,1.546-4.261,4.633-5.661,3.823-3.969,3.159-5.509-1.765-2.356-5.661-1.619c0,0-4.261-4.925-8.377.517,0,0-9.265-.146-11.761,4.261s.81,15.657,5.661,19.407,9.594.749,10.58-2.776c0,0-3.306-1.784-1.613-5.9C106.84,128.794,108.38,128.246,109.445,131.192Z" transform="translate(-71.74 -93.537)" fill="#263238"/>
      <path id="Path_7248" data-name="Path 7248" d="M73.86,174.445s22.421-16.26,41.962,0l-1.577,39.338.919,6.818s-16.522,7.737-34.882,1.181l.4-8Z" transform="translate(-64.894 -115.429)" fill="none" stroke="#263238" stroke-linecap="round" stroke-linejoin="round" stroke-width="1"/>
      <path id="Path_7249" data-name="Path 7249" d="M95.1,165.658l3.86-4.919s7.567-2.618,13.679,1.218l1.217,3.811" transform="translate(-73.204 -112.553)" fill="none" stroke="#263238" stroke-linecap="round" stroke-linejoin="round" stroke-width="1"/>
      <line id="Line_29" data-name="Line 29" x2="19.523" y2="22.451" transform="translate(50.927 59.016)" fill="none" stroke="#263238" stroke-linecap="round" stroke-linejoin="round" stroke-width="1"/>
      <path id="Path_7250" data-name="Path 7250" d="M141.31,194.466S154.246,206.5,159.4,206.641s6.015-6.088,6.015-6.088l5.278-38.839-5.4-.755-9.29,26.925" transform="translate(-91.284 -112.981)" fill="none" stroke="#263238" stroke-linecap="round" stroke-linejoin="round" stroke-width="1"/>
      <path id="Path_7251" data-name="Path 7251" d="M187.795,154.556s.676-4.389,2.435-5.388,3.847-4.87,3.178-5.984-2.715,2.508-4.56,3.2-3.342,4.1-3.6,5.582" transform="translate(-108.475 -105.943)" fill="none" stroke="#263238" stroke-linecap="round" stroke-linejoin="round" stroke-width="1"/>
      <path id="Path_7252" data-name="Path 7252" d="M196.441,139.948s0-5.071-.931-4.834-1.059,6.66-1.059,6.66" transform="translate(-112.074 -102.866)" fill="none" stroke="#263238" stroke-linecap="round" stroke-linejoin="round" stroke-width="1"/>
      <path id="Path_7253" data-name="Path 7253" d="M190.221,143.9a8.711,8.711,0,0,0-2.283-4.231c-1.674-1.388-2.721-.639-2.532-.17s3.044,4.261,2.977,5.552" transform="translate(-108.527 -104.338)" fill="none" stroke="#263238" stroke-linecap="round" stroke-linejoin="round" stroke-width="1"/>
      <path id="Path_7254" data-name="Path 7254" d="M185.608,144.018s-4.6-2.106-4.608-.846,2.8,1.747,2.8,1.747l.913,1.826s-3.872-1.218-3.653-.25,1.948,1.181,1.948,1.181-1.881,1.863-1.351,6.088" transform="translate(-106.812 -105.864)" fill="none" stroke="#263238" stroke-linecap="round" stroke-linejoin="round" stroke-width="1"/>
      <path id="Path_7255" data-name="Path 7255" d="M107.39,255.1l1.175,8.23s10.818,32.453,12.461,38.8,2.587,20.7,3.044,27.278,4.261,17.654,4.261,17.654-.469,4.468-8.462,3.762c0,0-3.293-13.167-6.818-20.929s-4.042-19.535-4.042-19.535L91.843,278.852s-3.513,18.348-5.875,25.16c-2.435,7.025-19.036,46-17.873,43.271,0,0-2.35,1.412-7.305-2.119,0,0,3.525-11.755,4.462-18.1s5.881-20.929,5.881-20.929,1.175-27.51,3.044-35.978c0,0-1.218-9.326,1.382-15.913a55.957,55.957,0,0,0,31.832.864Z" transform="translate(-59.781 -149.476)" fill="#263238"/>
      <path id="Path_7256" data-name="Path 7256" d="M96.35,285.59l7.707,2.24,1.12,2.733" transform="translate(-73.693 -161.741)" fill="none" stroke="#fff" stroke-linecap="round" stroke-linejoin="round" stroke-width="1"/>
      <path id="Path_7257" data-name="Path 7257" d="M157.783,409.509s-1.041,5.217-.189,6.288c.45.56,1.79.457,2.435.469,1.485.03,2.977-.067,4.462-.164,2.971-.195,6.015-.164,8.882-1.083a28.258,28.258,0,0,0,6.861-3.111c1.169-.779,0-2.039,0-2.039l-14.154-3.178" transform="translate(-97.524 -209.121)" fill="none" stroke="#263238" stroke-linecap="round" stroke-linejoin="round" stroke-width="1"/>
      <path id="Path_7258" data-name="Path 7258" d="M158,416s15.907,2.612,22.524-4.091" transform="translate(-97.814 -211.163)" fill="none" stroke="#263238" stroke-linecap="round" stroke-linejoin="round" stroke-width="1"/>
      <path id="Path_7259" data-name="Path 7259" d="M60.781,402.74s-1.826,6.264-1.558,8.236,2.246,2.435,4.56,2.38,3.263-1.09,3.6-2.654a41.617,41.617,0,0,0,0-6.623" transform="translate(-59.157 -207.575)" fill="none" stroke="#263238" stroke-linecap="round" stroke-linejoin="round" stroke-width="1"/>
      <line id="Line_30" data-name="Line 30" x2="8.188" y2="0.682" transform="translate(0.041 202.445)" fill="none" stroke="#263238" stroke-linecap="round" stroke-linejoin="round" stroke-width="1"/>
      <path id="Path_7260" data-name="Path 7260" d="M93.872,96.253c.694-1.266,1.1-2.039,1.1-2.039s-2.258-5.461-1.692-6.13S95.156,89.3,95.156,89.3s-1.339-4.34-.493-4.712,2.356,3.653,2.356,3.653-.4-5.814.481-6.088,1.93,5.528,1.93,5.528,1.132-5.162,1.826-5.211,0,10.647,0,10.647c1.4.688,5.515-.992,5.479.365s-7.914,4.48-7.914,4.48a3.518,3.518,0,0,0-.359.572" transform="translate(-72.457 -82.145)" fill="none" stroke="#263238" stroke-linecap="round" stroke-linejoin="round" stroke-width="1"/>
      <path id="Path_7261" data-name="Path 7261" d="M70.965,150.115l-4.5-14.6L82.549,105.03l5.832,3.05L78.093,135.845l2.879,9.271" transform="translate(-61.999 -91.098)" fill="none" stroke="#263238" stroke-linecap="round" stroke-linejoin="round" stroke-width="1"/>
      <path id="Path_7262" data-name="Path 7262" d="M74.384,151.32s5.771-.049,6.605,2.636a11.566,11.566,0,0,0-7.129,1.972" transform="translate(-64.894 -109.209)" fill="none" stroke="#263238" stroke-linecap="round" stroke-linejoin="round" stroke-width="1"/>
      <line id="Line_31" data-name="Line 31" y1="4.231" transform="translate(28.555 43.322)" fill="none" stroke="#263238" stroke-linecap="round" stroke-linejoin="round" stroke-width="1"/>
      <path id="Path_7263" data-name="Path 7263" d="M142.1,198.43l1.443,9.6s1.181-6.264,1.918-6.264,0,7.342,0,7.342,12.1,10.958,17.337,11.018c0,0-2.91,2.045-5.826.524s-15.7-11.566-15.7-11.566Z" transform="translate(-91.268 -127.64)" opacity="0.2"/>
      <path id="Path_7264" data-name="Path 7264" d="M90.242,109.15,79.174,136.033a5.906,5.906,0,0,0-5.314,3.4l5.917-1.059,1.991,9.131,2.1-.8-2.879-9.271,10.288-27.765Z" transform="translate(-64.894 -92.71)" opacity="0.2"/>
    </g>
    <g id="freepik--character-2--inject-242" transform="translate(215.508 97.048)">
      <path id="Path_7265" data-name="Path 7265" d="M337.5,180.828l-4.359-9.308-17.13,11.317,14.135,25.044,11.025-6.258Z" transform="translate(-316.01 -132.015)" fill="#fff"/>
      <path id="Path_7266" data-name="Path 7266" d="M368.1,316.885s2.77,7.689,3.178,11.432-.84,19.511-.572,23.857,2.618,17.319,2.618,17.319-11.524,8.376-15.182,5.68c0,0,8.121-6.575,8.943-9.192l-2.63-17.77L361.841,327.2a38.7,38.7,0,0,0-1.589-6.648c-.925-2.259-.785-7.049-.785-7.049Z" transform="translate(-332.493 -187.564)" fill="#fff"/>
      <path id="Path_7267" data-name="Path 7267" d="M367.159,316.027s3,8.1,3.7,13.91-1.406,19-.712,25.349,1.406,9.862,2.636,13.2l-.609,9.807h-1.577l-.609-5.564s-2.472-1.029-3.969,2.532-7.031,4.03-9.655,1.966a4.069,4.069,0,0,1,1.972-3c1.972-1.406,7.122-5.8,8.06-8.425,0,0-2.812-18.263-3.47-24.18s-1.686-16.674-3-20.144a28.588,28.588,0,0,1-1.309-8.431" transform="translate(-331.797 -187.388)" fill="none" stroke="#263238" stroke-linecap="round" stroke-linejoin="round" stroke-width="1"/>
      <path id="Path_7268" data-name="Path 7268" d="M373.209,401.1s-7.725,8.4-14.208,8.346" transform="translate(-332.83 -221.837)" fill="none" stroke="#263238" stroke-linecap="round" stroke-linejoin="round" stroke-width="1"/>
      <path id="Path_7269" data-name="Path 7269" d="M357.38,409.739a6.854,6.854,0,0,0,3.166-.4c1.747-.609,8.036-3.653,11.128-7.494l.95,1.077-.5,9.886-1.589.225-.609-5.564a2.593,2.593,0,0,0-3.342,1.357c-1.309,2.289-2.252,3.86-4.541,4.365s-5.741-1.217-5.741-1.217S355.7,411.073,357.38,409.739Z" transform="translate(-331.733 -222.13)" fill="#263238"/>
      <path id="Path_7270" data-name="Path 7270" d="M383.35,318.41a70.626,70.626,0,0,0,2.642,7.859c1.382,3.172,13.32,35.247,13.32,35.247s.907,17.362,5.99,17.307-.2-12.133-.2-12.133l-3.092-6.617s-1.181-19.438-2.642-26.584l-6.221-16.759Z" transform="translate(-342.356 -188.827)" fill="#fff"/>
      <path id="Path_7271" data-name="Path 7271" d="M392.551,315.5s5.108,11.621,6.161,16.2,2.112,25.172,2.642,26.584,8.979,16.369,3.872,19.365-6.313-17.252-6.313-17.252-11.792-32.751-13.557-35.917-3.7-12.327-3.7-12.327Z" transform="translate(-341.695 -187.036)" fill="none" stroke="#263238" stroke-linecap="round" stroke-linejoin="round" stroke-width="1"/>
      <path id="Path_7272" data-name="Path 7272" d="M418.15,407.13s-.353,4.054-1.692,4.627-4.3-4-4.3-4" transform="translate(-353.628 -224.196)" fill="none" stroke="#263238" stroke-linecap="round" stroke-linejoin="round" stroke-width="1"/>
      <path id="Path_7273" data-name="Path 7273" d="M412.18,409s1.826,6.915,4.261,6.623,2.873-4.133,1.723-7.1c0,0-.408,3.044-1.692,3.774C415.175,412.323,412.18,409,412.18,409Z" transform="translate(-353.636 -224.744)" fill="#263238"/>
      <path id="Path_7274" data-name="Path 7274" d="M365.827,218.35a82.243,82.243,0,0,1,10.422,21.915c4.267,13.514,3.829,39.4,3.829,39.4s-15.882,5.107-31.278-1.382l2.819-58.319S361.523,220.146,365.827,218.35Z" transform="translate(-328.839 -150.337)" fill="#263238"/>
      <path id="Path_7275" data-name="Path 7275" d="M358.859,118.27s-4.785,4.48-5.345,7.415a23.021,23.021,0,0,1-2.2,5.887,4.292,4.292,0,0,0,2.149,1.68s.31,6.008,2.058,6.471l4.176-1.1.444,2.575,5.99-2.277v-3.47l4.566-2.983-1.625-7.8-7.427-3.47Z" transform="translate(-329.821 -111.181)" fill="#fff"/>
      <path id="Path_7276" data-name="Path 7276" d="M351.174,192.651l-.53-8.425s-3.9-7.305-2.66-9.959c1.364-2.916,9.558-13.715,9.558-13.715l-.8-5.893,11.481-4.919.548,4.919-1.388,1.029,1.54,3.3s.1-.98,2.764,3.993,12.711,22.67,13.5,26.067-15.621,15.365-21.16,18.19c0,0-.639-1.37-7.22,3.653a8.054,8.054,0,0,1-4.481-2.727c-.493-.931,1.893-3.147,1.893-3.147a2.4,2.4,0,0,1,3.975-.542h2.7l15.468-14.4L368.524,178.6l-3.111,12.887S355.35,194.544,351.174,192.651Z" transform="translate(-328.425 -123.494)" fill="#fff"/>
      <path id="Path_7277" data-name="Path 7277" d="M362.52,154.659l.822,6.021,11.207-6.021L374,149.74Z" transform="translate(-334.207 -123.494)" fill="none" stroke="#263238" stroke-linecap="round" stroke-linejoin="round" stroke-width="1"/>
      <path id="Path_7278" data-name="Path 7278" d="M357.489,167.71s-10.2,12.473-9.923,14.933,3.007,8.614,3.007,8.614l.56,8.888s8.249.225,14.208-1.607l3.111-12.887" transform="translate(-328.354 -130.524)" fill="none" stroke="#263238" stroke-linecap="round" stroke-linejoin="round" stroke-width="1"/>
      <path id="Path_7279" data-name="Path 7279" d="M384.4,195.452l-15.8-23.815s-1.552-5.479,2.185-7.433,6.988.524,8.151,1.826,13.7,25.464,14.287,28.368-12.662,14.519-20.326,17.654c0,0-3.488,2.094-3.488-2.2Z" transform="translate(-336.462 -128.87)" fill="none" stroke="#263238" stroke-linecap="round" stroke-linejoin="round" stroke-width="1"/>
      <line id="Line_32" data-name="Line 32" x1="1.479" y1="3.531" transform="translate(38.863 31.962)" fill="none" stroke="#263238" stroke-linecap="round" stroke-linejoin="round" stroke-width="1"/>
      <path id="Path_7280" data-name="Path 7280" d="M364.274,239.057H361.1s-2.478-2.216-3.652,0-2.66,2.654-2.216,3.689,2.989,3.1,4.48,2.727,5.7-3.793,5.7-3.793" transform="translate(-331.322 -158.053)" fill="none" stroke="#263238" stroke-linecap="round" stroke-linejoin="round" stroke-width="1"/>
      <path id="Path_7281" data-name="Path 7281" d="M357.714,120.86s-3.732,3.263-4.146,5.071-.237,4.87-2.258,6.654c0,0,.1,1.461,2.149,1.68,0,0,1.047,5.765,2.058,6.471s7.2-2.484,9.618-3.8a3.209,3.209,0,0,0,1.272-1.771" transform="translate(-329.821 -112.195)" fill="none" stroke="#263238" stroke-linecap="round" stroke-linejoin="round" stroke-width="1"/>
      <path id="Path_7282" data-name="Path 7282" d="M357.07,144.671a4.7,4.7,0,0,0,2.9-1.711" transform="translate(-332.075 -120.841)" fill="none" stroke="#263238" stroke-linecap="round" stroke-linejoin="round" stroke-width="1"/>
      <path id="Path_7283" data-name="Path 7283" d="M357.07,131.905a1.63,1.63,0,0,1,2.283.566" transform="translate(-332.075 -116.416)" fill="none" stroke="#263238" stroke-linecap="round" stroke-linejoin="round" stroke-width="1"/>
      <path id="Path_7284" data-name="Path 7284" d="M358.2,136.54c0,.493-.14.895-.365.907s-.432-.377-.457-.864.14-.9.365-.913S358.176,136.047,358.2,136.54Z" transform="translate(-332.194 -117.989)" fill="#263238"/>
      <line id="Line_33" data-name="Line 33" x2="0.493" y2="2.843" transform="translate(29.872 27.445)" fill="none" stroke="#263238" stroke-linecap="round" stroke-linejoin="round" stroke-width="1"/>
      <path id="Path_7285" data-name="Path 7285" d="M362.27,124.8s.913-1.771,1.93-.737,2.946,5.82-2.258,4.681c0,0-.347,2.922,2.258,3.653s7.555-3.3,7.719-10.172-6.471-11.512-9.978-10.185c0,0-5.083-7.969-10.124-4.572s-1.644,8.626-2.715,9.807-3.36.073-3.433,3.245,5.229,2.849,5.229,2.849l.639-3.494,4.389-4.584a8.267,8.267,0,0,0,.724,6.191C358.24,124.075,362.27,124.8,362.27,124.8Z" transform="translate(-327.614 -106.626)" fill="#263238"/>
      <path id="Path_7286" data-name="Path 7286" d="M381.173,128.993s2.435.548,2.167,3.841-5.765,11.39-5.351,16.053l14.19,26.444s6.386-1.218,6.088-7.792-8.09-12.114-6.587-16.96,7.408-17.185-.956-24.259-21.4,3.768-21.4,3.768l6.386-2.058Z" transform="translate(-336.867 -113.394)" fill="#263238"/>
      <path id="Path_7287" data-name="Path 7287" d="M336.951,180.286l-3.811-8.766-17.13,11.317,14.135,25.044,8.571-4.718" transform="translate(-316.01 -132.015)" fill="none" stroke="#263238" stroke-linecap="round" stroke-linejoin="round" stroke-width="1"/>
      <path id="Path_7288" data-name="Path 7288" d="M324.556,206.287s-.925-1.912.31-2.965,5.479-4.176,5.479-3.409a1.339,1.339,0,0,1-.292,1.053c-1.218,1.632-4.133,4.261-3.945,4.474,0,0,5.321-3.531,5.832-3.2.128.085.055.542-.39.986a46.05,46.05,0,0,1-4.608,3.6s5.613-2.173,6.337-1.826c.207.1.164.414-.487.81a51.192,51.192,0,0,1-5.022,2.386l1.406,2.35S326.522,211.017,324.556,206.287Z" transform="translate(-319.223 -143.077)" fill="#fff" stroke="#263238" stroke-linecap="round" stroke-linejoin="round" stroke-width="1"/>
      <line id="Line_34" data-name="Line 34" x2="0.39" y2="3.914" transform="translate(35.917 23.829)" fill="none" stroke="#263238" stroke-linejoin="round" stroke-width="1"/>
    </g>
  </g>
</svg>
