<svg xmlns="http://www.w3.org/2000/svg" width="16" height="20" viewBox="0 0 16 20">
  <g id="password" transform="translate(-4 -332.65)">
    <path id="rect1873" d="M12,332.65a5.011,5.011,0,0,0-5,5v3a2.96,2.96,0,0,0-3,2.832v6.334a2.851,2.851,0,0,0,2.834,2.834H17.166A2.851,2.851,0,0,0,20,349.816v-6.334a2.824,2.824,0,0,0-3-2.832v-3A5.011,5.011,0,0,0,12,332.65Zm0,2a2.972,2.972,0,0,1,3,3v3H9v-3A2.972,2.972,0,0,1,12,334.65Zm-5.166,8H17.166a.81.81,0,0,1,.834.832v6.334a.812.812,0,0,1-.834.834H6.834A.812.812,0,0,1,6,349.816v-6.334A.81.81,0,0,1,6.834,342.65Z"/>
  </g>
</svg>
