<svg xmlns="http://www.w3.org/2000/svg" xmlns:xlink="http://www.w3.org/1999/xlink" width="96.851" height="33.193" viewBox="0 0 96.851 33.193">
  <defs>
    <linearGradient id="linear-gradient" x1="0.5" x2="0.5" y2="1" gradientUnits="objectBoundingBox">
      <stop offset="0" stop-color="#26009c"/>
      <stop offset="1" stop-color="#4db151"/>
    </linearGradient>
  </defs>
  <g id="poweredby_exalca" transform="translate(240 -7039.403)">
    <text id="Powered_by" data-name="Powered by" transform="translate(-240 7048.403)" fill="#acacac" font-size="8" font-family="Poppins-Medium, Poppins" font-weight="500"><tspan x="0" y="0">Powered by</tspan></text>
    <g id="Group_8631" data-name="Group 8631" transform="translate(-240 7052.176)">
      <g id="Group_31" data-name="Group 31" transform="translate(0)">
        <path id="Exclusion_16" data-name="Exclusion 16" d="M8.1,15.481h0a15.973,15.973,0,0,1-3.205-.289A6.6,6.6,0,0,1,2.2,14.077,5.107,5.107,0,0,1,.551,11.685,10.129,10.129,0,0,1,.019,8.8,16.385,16.385,0,0,1,.234,5.271,7.488,7.488,0,0,1,1.673,2.605,7.013,7.013,0,0,1,3.909.812,8.007,8.007,0,0,1,7.558,0,11.49,11.49,0,0,1,9.083.106a6.553,6.553,0,0,1,4.794,2.562A5.57,5.57,0,0,1,14.662,4.4a7.106,7.106,0,0,1,.227,1.637,7.381,7.381,0,0,1-.142,1.694H3.966a6.186,6.186,0,0,0,.117,1.752,4.827,4.827,0,0,0,.575,1.5,3.72,3.72,0,0,0,1.3,1.3A5.675,5.675,0,0,0,8.7,12.8a16.918,16.918,0,0,0,2.6-.22,13.678,13.678,0,0,0,2.118-.491l-.457,2.946h0A29.041,29.041,0,0,1,8.1,15.481ZM7.872,2.534a3.722,3.722,0,0,0-2.035.549A3.585,3.585,0,0,0,4.69,4.29a4.9,4.9,0,0,0-.621,1.756h6.98a4.171,4.171,0,0,0-.061-.922,3.359,3.359,0,0,0-.783-1.7,3.029,3.029,0,0,0-2.32-.889Z" transform="translate(0 4.829)" fill="#26009c"/>
        <path id="Path_289" data-name="Path 289" d="M2644.046,4759.234l6.132-7.735-4.833-7.139h4.833l2.567,4.075,3.137-4.075h4.491l-5.531,7.139,5.254,7.735h-4.72l-3.183-4.668-3.549,4.668Z" transform="translate(-2629.233 -4739.183)" fill="#26009c"/>
        <path id="Path_290" data-name="Path 290" d="M2721.327,4756.222c-.1.063-.758,2.542-.758,2.542s-4.4.494-6.349-.8a4.093,4.093,0,0,1,1.326-7.1c3.9-1.6,7.415-1.4,7.491-3.472s-2.74-1.687-2.74-1.687a21.1,21.1,0,0,0-5.714,1.2c.23-1.62.442-2.725.442-2.725s7.8-1.6,10.415-.2,1.6,3.71,1.594,7.235-.292,7.306-.292,7.306H2722.6l.432-7.662a14.648,14.648,0,0,1-3.7,1.319c-1.341.251-3.261,1.23-2.634,3.534C2717.731,4757.131,2719.872,4756.568,2721.327,4756.222Z" transform="translate(-2680.941 -4738.464)" fill="#26009c"/>
        <path id="Path_293" data-name="Path 293" d="M2721.327,4756.222c-.1.063-.758,2.542-.758,2.542s-4.4.494-6.349-.8a4.093,4.093,0,0,1,1.326-7.1c3.9-1.6,7.415-1.4,7.491-3.472s-2.74-1.687-2.74-1.687a21.1,21.1,0,0,0-5.714,1.2c.23-1.62.442-2.725.442-2.725s7.8-1.6,10.415-.2,1.6,3.71,1.594,7.235-.292,7.306-.292,7.306H2722.6l.432-7.662a14.648,14.648,0,0,1-3.7,1.319c-1.341.251-3.261,1.23-2.634,3.534C2717.731,4757.131,2719.872,4756.568,2721.327,4756.222Z" transform="translate(-2643.209 -4738.464)" fill="#26009c"/>
        <path id="Path_291" data-name="Path 291" d="M2782.8,4743.524h4.212s-.034-10.12.813-20.051a37.364,37.364,0,0,1-4.418,0Z" transform="translate(-2733.735 -4723.474)" fill="#26009c"/>
        <path id="Path_292" data-name="Path 292" d="M2821.722,4755.144l-.35,3.062s-5.922,1.476-9.247-.808-2.72-7.345-2.7-7.487.942-4.3,4.008-5.9,8.544-.239,8.544-.239v3.241s-3.115-1.156-5.415-.5c-2.752.666-5.042,6.78-1.072,8.633C2817.889,4756.327,2821.722,4755.144,2821.722,4755.144Z" transform="translate(-2753.778 -4738.332)" fill="#26009c"/>
      </g>
      <path id="iconfinder_registered_1608810" d="M2.042,1.378a.246.246,0,0,0-.118-.237A.523.523,0,0,0,1.7,1.105H1.454v.551h.317a.266.266,0,0,0,.2-.073A.283.283,0,0,0,2.042,1.378Zm.1.559.4.731a.059.059,0,0,1,0,.061.055.055,0,0,1-.053.031h-.3a.056.056,0,0,1-.055-.033l-.38-.715h-.3V2.7a.06.06,0,0,1-.063.063H1.129A.06.06,0,0,1,1.066,2.7V.815A.06.06,0,0,1,1.129.753h.576A1.1,1.1,0,0,1,2.077.8a.509.509,0,0,1,.263.214.649.649,0,0,1,.1.353.636.636,0,0,1-.083.324.527.527,0,0,1-.226.215ZM1.756.314A1.4,1.4,0,0,0,1.2.428,1.424,1.424,0,0,0,.428,1.2a1.427,1.427,0,0,0,0,1.121,1.424,1.424,0,0,0,.767.767,1.427,1.427,0,0,0,1.121,0,1.424,1.424,0,0,0,.767-.767,1.427,1.427,0,0,0,0-1.121A1.424,1.424,0,0,0,2.317.428,1.4,1.4,0,0,0,1.756.314ZM3.512,1.756a1.717,1.717,0,0,1-.139.682,1.725,1.725,0,0,1-.935.935,1.741,1.741,0,0,1-1.364,0,1.725,1.725,0,0,1-.935-.935,1.741,1.741,0,0,1,0-1.364A1.725,1.725,0,0,1,1.074.139a1.741,1.741,0,0,1,1.364,0,1.725,1.725,0,0,1,.935.935A1.717,1.717,0,0,1,3.512,1.756Z" transform="translate(88.515 0.282)" fill="#26009c"/>
      <g id="Group_30" data-name="Group 30" transform="translate(85.892 5.898)">
        <rect id="Rectangle_47" data-name="Rectangle 47" width="3.51" height="3.524" transform="translate(0 0)" fill="#26009c"/>
        <rect id="Rectangle_49" data-name="Rectangle 49" width="3.511" height="3.524" transform="translate(3.5 3.524)" fill="#26009c"/>
        <rect id="Rectangle_51" data-name="Rectangle 51" width="3.511" height="3.524" transform="translate(7.449 5.286)" fill="url(#linear-gradient)"/>
        <rect id="Rectangle_48" data-name="Rectangle 48" width="3.51" height="3.512" transform="translate(0 11.012)" fill="#4db151"/>
        <rect id="Rectangle_50" data-name="Rectangle 50" width="3.511" height="3.524" transform="translate(3.5 7.488)" fill="#4db151"/>
      </g>
    </g>
  </g>
</svg>
