<svg xmlns="http://www.w3.org/2000/svg" width="9.464" height="9.409" viewBox="0 0 9.464 9.409">
  <g id="previous" transform="translate(0.55 0.551)">
    <g id="Layer_2" data-name="Layer 2" transform="translate(8.372) rotate(90)">
      <path id="Path_6391" data-name="Path 6391" d="M4.353,4.52,8.222.647A.392.392,0,0,0,7.669.094L4.118,3.645.669.2A.392.392,0,0,0,.116.2h0a.392.392,0,0,0,0,.557L3.883,4.52a.333.333,0,0,0,.47,0Z" transform="translate(0 0)" fill="#626675" stroke="#626675" stroke-width="1"/>
      <path id="Path_6392" data-name="Path 6392" d="M4.351,4.52,8.22.647A.392.392,0,0,0,7.667.094L4.116,3.645.667.2A.392.392,0,0,0,.114.2h0a.392.392,0,0,0,0,.553L3.881,4.52A.333.333,0,0,0,4.351,4.52Z" transform="translate(0.002 3.755)" fill="#626675" stroke="#626675" stroke-width="1"/>
    </g>
  </g>
</svg>
