<svg xmlns="http://www.w3.org/2000/svg" width="16.935" height="20.014" viewBox="0 0 16.935 20.014">
  <g id="user_id" transform="translate(-5 -3)">
    <path id="Path_6540" data-name="Path 6540" d="M19.425,16.113a.77.77,0,1,0-1.085,1.093A6.928,6.928,0,0,1,20.4,22.133c0,.939-2.7,2.309-6.928,2.309s-6.928-1.37-6.928-2.309a6.928,6.928,0,0,1,2.024-4.9.767.767,0,1,0-1.085-1.085A8.406,8.406,0,0,0,5,22.133c0,2.5,4.365,3.849,8.467,3.849s8.467-1.347,8.467-3.849a8.421,8.421,0,0,0-2.509-6.019Z" transform="translate(0 -2.968)"/>
    <path id="Path_6541" data-name="Path 6541" d="M14.388,13.777A5.388,5.388,0,1,0,9,8.388a5.388,5.388,0,0,0,5.388,5.388Zm0-9.237A3.849,3.849,0,1,1,10.54,8.388,3.849,3.849,0,0,1,14.388,4.54Z" transform="translate(-0.921)"/>
  </g>
</svg>
